<svg width="57" height="57" viewBox="0 0 57 57" fill="none" xmlns="http://www.w3.org/2000/svg">
<path d="M41.4696 57C38.1709 56.3537 34.9703 55.431 31.9124 53.9913C23.6434 50.0956 16.6494 44.5908 10.8767 37.5126C6.72666 32.4179 3.32102 26.8908 1.22592 20.6283C0.321017 17.9137 -0.25402 15.1324 0.111507 12.2262C0.392339 9.99754 1.36411 8.14329 2.91091 6.56095C4.22146 5.21929 5.53647 3.87764 6.87377 2.56719C9.78016 -0.276585 13.0432 -0.2855 15.9674 2.5761C18.1739 4.73344 20.3582 6.91753 22.5112 9.13282C25.4221 12.1192 25.4354 15.1769 22.5781 18.2079C21.3478 19.5139 20.0684 20.7709 18.7712 22.0903C20.0729 24.9831 22.0253 27.4524 24.1695 29.7836C27.0134 32.8725 30.1338 35.6271 33.847 37.6686C34.5602 38.0608 34.9837 38.0118 35.5409 37.4145C36.7489 36.1353 37.9882 34.8828 39.3076 33.7283C41.7103 31.6289 44.7103 31.6512 47.0238 33.8576C49.5959 36.3091 52.1189 38.823 54.5573 41.4083C56.8931 43.8866 56.9644 47.0423 54.6286 49.5206C52.5513 51.727 50.3091 53.7996 47.9599 55.7118C47.0595 56.4473 45.6732 56.5899 44.5097 57C43.5023 57 42.4859 57 41.4696 57ZM3.44583 13.3182C3.47258 17.8157 4.93023 21.4127 6.69546 24.8538C12.0001 35.1992 19.6539 43.3561 29.8173 49.0793C33.7489 51.2946 37.8232 53.1444 42.4102 53.5322C44.5498 53.7149 46.4265 53.1622 47.951 51.5843C49.1992 50.2917 50.4785 49.0258 51.7177 47.7243C53.327 46.0305 53.3359 44.9786 51.7044 43.3071C49.5469 41.0963 47.3626 38.9166 45.1561 36.7548C43.5781 35.2082 42.5617 35.2304 40.9525 36.7905C39.6643 38.043 38.4161 39.3401 37.1323 40.597C35.746 41.961 34.9035 42.0412 33.1516 41.1587C28.8366 38.979 25.2036 35.9213 21.9362 32.4134C19.4265 29.7212 17.1219 26.864 15.6152 23.4542C14.8574 21.7426 15.0001 20.8957 16.3374 19.563C17.5855 18.3238 18.8693 17.1203 20.0952 15.8589C21.7222 14.1874 21.7356 13.2202 20.1219 11.5665C17.9644 9.35569 15.7802 7.17606 13.5825 5.0098C12.0446 3.49877 10.8901 3.48985 9.33439 4.9786C8.06396 6.19545 6.86039 7.47915 5.59442 8.70046C4.12339 10.109 3.34331 11.776 3.44583 13.3182Z" fill="white"/>
</svg>
