<svg width="507" height="427" viewBox="0 0 507 427" fill="none" xmlns="http://www.w3.org/2000/svg">
<path d="M276.148 31.7715C276.148 33.3141 275.513 34.7254 274.484 35.7538C273.466 36.7822 272.053 37.4168 270.509 37.4168H149.926C146.828 37.4168 144.288 34.8786 144.288 31.7824C144.288 30.2398 144.923 28.8284 145.952 27.8C146.97 26.7716 148.383 26.137 149.926 26.137H155.631C157.886 20.9074 163.076 17.2533 169.131 17.2533C173.204 17.2533 176.883 18.9163 179.555 21.5858C183.102 15.5684 189.661 11.5204 197.161 11.5204C199.219 11.5204 201.212 11.8377 203.084 12.3957C206.993 5.02173 214.756 0 223.691 0C234.432 0 243.454 7.24266 246.18 17.1001C248.162 16.1155 250.385 15.5466 252.761 15.5466C259.462 15.5466 265.1 20.0103 266.885 26.1261H270.52C273.619 26.1261 276.148 28.6643 276.148 31.7715Z" fill="#CAE6FE"/>
<path d="M418.805 55.7314C418.805 56.8692 418.345 57.9086 417.589 58.6525C416.845 59.4074 415.805 59.8669 414.666 59.8669H325.978C323.7 59.8669 321.839 58.007 321.839 55.7204C321.839 54.5826 322.299 53.5433 323.054 52.7993C323.799 52.0444 324.839 51.5849 325.978 51.5849H330.171C331.825 47.7448 335.646 45.0534 340.102 45.0534C343.102 45.0534 345.807 46.2678 347.767 48.2371C350.384 43.8062 355.201 40.8303 360.72 40.8303C362.241 40.8303 363.698 41.0601 365.077 41.4758C367.968 36.0493 373.661 32.3623 380.242 32.3623C388.136 32.3623 394.782 37.6904 396.786 44.933C398.242 44.211 399.885 43.7952 401.626 43.7952C406.553 43.7952 410.702 47.0774 412.005 51.574H414.677C416.932 51.5849 418.805 53.4448 418.805 55.7314Z" fill="#CAE6FE"/>
<path d="M479.824 224.982C478.335 225.278 476.879 225.781 475.488 226.481L470.89 221.372L465.295 226.415L469.707 231.306C468.689 232.641 467.89 234.107 467.32 235.638L459.634 235.244L459.24 242.761L466.335 243.133C466.532 245.244 467.112 247.312 468.098 249.248L462.984 253.854L468.032 259.445L472.926 255.036C474.525 256.25 476.288 257.137 478.138 257.716L477.81 264.095L485.332 264.489L485.649 258.329C487.861 258.012 490.029 257.246 492.011 256.032L496.412 260.922L502.007 255.878L497.398 250.769C498.241 249.467 498.887 248.067 499.346 246.623L506.617 247.006L507.011 239.489L499.96 239.128C499.642 236.918 498.876 234.752 497.66 232.772L502.555 228.374L497.507 222.783L492.394 227.378C490.828 226.361 489.131 225.617 487.368 225.179L487.74 218.133L480.218 217.74L479.824 224.982ZM488.31 236.94C490.861 239.763 490.631 244.139 487.806 246.688C484.981 249.237 480.602 249.008 478.05 246.185C475.499 243.362 475.729 238.986 478.554 236.437C481.39 233.888 485.759 234.118 488.31 236.94Z" fill="#CAE6FE"/>
<path d="M52.1945 100.588C50.7054 100.883 49.2492 101.386 47.8586 102.086L43.26 96.9772L37.665 102.021L42.0775 106.911C41.0592 108.246 40.2599 109.712 39.6906 111.244L32.0043 110.85L31.6101 118.366L38.7051 118.738C38.9022 120.85 39.4825 122.917 40.468 124.854L35.3547 129.46L40.4023 135.05L45.2965 130.641C46.8951 131.856 48.6579 132.742 50.5083 133.322L50.1799 139.7L57.7019 140.094L58.0194 133.934C60.2312 133.617 62.3991 132.851 64.3809 131.637L68.7824 136.527L74.3774 131.484L69.7679 126.375C70.6109 125.073 71.2569 123.672 71.7168 122.228L78.987 122.611L79.3812 115.095L72.33 114.734C72.0124 112.524 71.246 110.358 70.0306 108.377L74.9249 103.979L69.8773 98.3885L64.7641 102.984C63.1984 101.966 61.5013 101.222 59.7385 100.774L60.1107 93.7278L52.5887 93.334L52.1945 100.588ZM60.6801 112.546C63.2312 115.368 63.0013 119.745 60.1764 122.294C57.3515 124.843 52.9719 124.613 50.4207 121.79C47.8696 118.968 48.0995 114.592 50.9244 112.042C53.7602 109.493 58.1289 109.723 60.6801 112.546Z" fill="#CAE6FE"/>
<path d="M471.722 185.399C470.911 185.563 470.112 185.837 469.357 186.22L466.838 183.43L463.783 186.187L466.192 188.856C465.634 189.589 465.196 190.388 464.889 191.22L460.685 191.001L460.466 195.114L464.342 195.311C464.451 196.46 464.769 197.598 465.305 198.659L462.513 201.175L465.273 204.228L467.944 201.821C468.82 202.488 469.784 202.97 470.791 203.287L470.605 206.766L474.722 206.974L474.897 203.604C476.112 203.429 477.295 203.013 478.368 202.346L480.776 205.016L483.831 202.259L481.313 199.469C481.773 198.758 482.134 197.992 482.375 197.204L486.35 197.412L486.569 193.298L482.714 193.101C482.539 191.887 482.123 190.705 481.455 189.633L484.127 187.226L481.368 184.174L478.576 186.69C477.722 186.132 476.791 185.727 475.827 185.487L476.025 181.636L471.908 181.417L471.722 185.399ZM476.353 191.942C477.744 193.484 477.623 195.88 476.079 197.27C474.535 198.659 472.138 198.539 470.747 196.996C469.357 195.454 469.477 193.058 471.021 191.668C472.576 190.268 474.962 190.399 476.353 191.942Z" fill="#CAE6FE"/>
<path d="M23.5953 150.05C22.7851 150.214 21.9858 150.488 21.2303 150.871L18.712 148.081L15.6572 150.838L18.066 153.507C17.5076 154.24 17.0696 155.039 16.7631 155.87L12.5586 155.652L12.3396 159.765L16.2156 159.962C16.3251 161.111 16.6426 162.249 17.1791 163.31L14.3871 165.826L17.1463 168.879L19.8179 166.472C20.6938 167.139 21.6573 167.621 22.6646 167.938L22.4785 171.417L26.5954 171.625L26.7706 168.255C27.9859 168.08 29.1684 167.664 30.2414 166.997L32.6503 169.666L35.7051 166.909L33.1868 164.12C33.6466 163.408 34.008 162.643 34.2488 161.855L38.2234 162.063L38.4424 157.949L34.5883 157.752C34.4131 156.538 33.997 155.356 33.3291 154.284L36.0007 151.877L33.2415 148.825L30.4495 151.341C29.5954 150.783 28.6648 150.378 27.7012 150.138L27.8983 146.286L23.7815 146.068L23.5953 150.05ZM28.2378 156.582C29.6283 158.124 29.5079 160.52 27.964 161.91C26.4202 163.299 24.0223 163.179 22.6318 161.636C21.2413 160.093 21.3617 157.697 22.9055 156.308C24.4494 154.919 26.8363 155.039 28.2378 156.582Z" fill="#CAE6FE"/>
<path d="M240.202 426.989C372.862 426.989 480.405 419.024 480.405 409.2C480.405 399.375 372.862 391.41 240.202 391.41C107.542 391.41 0 399.375 0 409.2C0 419.024 107.542 426.989 240.202 426.989Z" fill="#CAE6FE"/>
<path d="M473.09 141.068C476.66 141.068 479.572 143.978 479.572 147.545C479.572 151.111 476.66 154.022 473.09 154.022C469.521 154.022 466.608 151.111 466.608 147.545C466.608 143.978 469.51 141.068 473.09 141.068ZM473.09 151.987C475.543 151.987 477.536 149.995 477.536 147.545C477.536 145.094 475.543 143.103 473.09 143.103C470.638 143.103 468.645 145.094 468.645 147.545C468.645 149.995 470.638 151.987 473.09 151.987Z" fill="#61B3FF"/>
<path d="M444.535 122.152C448.105 122.152 451.017 125.062 451.017 128.628C451.017 132.195 448.105 135.105 444.535 135.105C440.966 135.105 438.053 132.195 438.053 128.628C438.053 125.062 440.966 122.152 444.535 122.152ZM444.535 133.07C446.988 133.07 448.98 131.079 448.98 128.628C448.98 126.178 446.988 124.187 444.535 124.187C442.083 124.187 440.09 126.178 440.09 128.628C440.09 131.079 442.083 133.07 444.535 133.07Z" fill="#007CE6"/>
<path d="M441.677 104.187C442.236 104.187 442.696 104.647 442.696 105.205V109.69C442.696 110.248 442.236 110.708 441.677 110.708C441.119 110.708 440.659 110.248 440.659 109.69V105.205C440.659 104.647 441.108 104.187 441.677 104.187Z" fill="#61B3FF"/>
<path d="M441.677 96.3428C442.236 96.3428 442.696 96.8023 442.696 97.3602V101.846C442.696 102.404 442.236 102.863 441.677 102.863C441.119 102.863 440.659 102.404 440.659 101.846V97.3602C440.659 96.8023 441.108 96.3428 441.677 96.3428Z" fill="#61B3FF"/>
<path d="M435.382 102.502H439.411C439.969 102.502 440.429 102.962 440.429 103.52C440.429 104.078 439.969 104.537 439.411 104.537H435.382C434.823 104.537 434.363 104.078 434.363 103.52C434.363 102.962 434.823 102.502 435.382 102.502Z" fill="#61B3FF"/>
<path d="M443.944 102.502H447.973C448.531 102.502 448.991 102.962 448.991 103.52C448.991 104.078 448.531 104.537 447.973 104.537H443.944C443.385 104.537 442.925 104.078 442.925 103.52C442.925 102.962 443.374 102.502 443.944 102.502Z" fill="#61B3FF"/>
<path d="M476.78 121.101C477.338 121.101 477.798 121.561 477.798 122.119V126.604C477.798 127.162 477.338 127.622 476.78 127.622C476.222 127.622 475.762 127.162 475.762 126.604V122.119C475.762 121.55 476.222 121.101 476.78 121.101Z" fill="#61B3FF"/>
<path d="M476.78 113.257C477.338 113.257 477.798 113.716 477.798 114.274V118.749C477.798 119.307 477.338 119.766 476.78 119.766C476.222 119.766 475.762 119.307 475.762 118.749V114.274C475.762 113.716 476.222 113.257 476.78 113.257Z" fill="#61B3FF"/>
<path d="M470.495 119.417H474.525C475.083 119.417 475.543 119.876 475.543 120.434C475.543 120.992 475.083 121.451 474.525 121.451H470.495C469.937 121.451 469.477 120.992 469.477 120.434C469.477 119.876 469.926 119.417 470.495 119.417Z" fill="#61B3FF"/>
<path d="M479.047 119.417H483.076C483.634 119.417 484.094 119.876 484.094 120.434C484.094 120.992 483.634 121.451 483.076 121.451H479.047C478.488 121.451 478.028 120.992 478.028 120.434C478.028 119.876 478.488 119.417 479.047 119.417Z" fill="#61B3FF"/>
<path d="M87.6369 51.9895C84.0675 51.9895 81.155 49.0793 81.155 45.5127C81.155 41.9461 84.0675 39.0359 87.6369 39.0359C91.2063 39.0359 94.1188 41.9461 94.1188 45.5127C94.1188 49.0793 91.2173 51.9895 87.6369 51.9895ZM87.6369 49.9546C90.0895 49.9546 92.0823 47.9634 92.0823 45.5127C92.0823 43.062 90.0895 41.0708 87.6369 41.0708C85.1843 41.0708 83.1916 43.062 83.1916 45.5127C83.1916 47.9634 85.1843 49.9546 87.6369 49.9546Z" fill="#61B3FF"/>
<path d="M107.641 71.1355C104.071 71.1355 101.159 68.2253 101.159 64.6587C101.159 61.0921 104.071 58.1819 107.641 58.1819C111.21 58.1819 114.123 61.0921 114.123 64.6587C114.123 68.2253 111.21 71.1355 107.641 71.1355ZM107.641 69.1006C110.093 69.1006 112.086 67.1094 112.086 64.6587C112.086 62.208 110.093 60.2168 107.641 60.2168C105.188 60.2168 103.195 62.208 103.195 64.6587C103.185 67.1094 105.188 69.1006 107.641 69.1006Z" fill="#007CE6"/>
<path d="M128.017 46.1254C128.017 45.5674 127.558 45.1079 126.999 45.1079H122.51C121.952 45.1079 121.492 45.5674 121.492 46.1254C121.492 46.6834 121.952 47.1429 122.51 47.1429H126.999C127.568 47.1319 128.017 46.6834 128.017 46.1254Z" fill="#61B3FF"/>
<path d="M135.868 46.1254C135.868 45.5674 135.408 45.1079 134.85 45.1079H130.372C129.813 45.1079 129.353 45.5674 129.353 46.1254C129.353 46.6834 129.813 47.1429 130.372 47.1429H134.85C135.408 47.1319 135.868 46.6834 135.868 46.1254Z" fill="#61B3FF"/>
<path d="M129.704 52.4054V48.3793C129.704 47.8213 129.244 47.3618 128.685 47.3618C128.127 47.3618 127.667 47.8213 127.667 48.3793V52.4054C127.667 52.9634 128.127 53.4229 128.685 53.4229C129.244 53.4229 129.704 52.9743 129.704 52.4054Z" fill="#61B3FF"/>
<path d="M129.704 43.8607V39.8346C129.704 39.2766 129.244 38.8171 128.685 38.8171C128.127 38.8171 127.667 39.2766 127.667 39.8346V43.8607C127.667 44.4187 128.127 44.8782 128.685 44.8782C129.244 44.8782 129.704 44.4187 129.704 43.8607Z" fill="#61B3FF"/>
<path d="M72.5489 69.6586C72.5489 69.1006 72.0891 68.6411 71.5306 68.6411H67.0525C66.494 68.6411 66.0342 69.1006 66.0342 69.6586C66.0342 70.2166 66.494 70.6761 67.0525 70.6761H71.5306C72.1 70.6761 72.5489 70.2166 72.5489 69.6586Z" fill="#61B3FF"/>
<path d="M80.3995 69.6586C80.3995 69.1006 79.9396 68.6411 79.3812 68.6411H74.892C74.3336 68.6411 73.8738 69.1006 73.8738 69.6586C73.8738 70.2166 74.3336 70.6761 74.892 70.6761H79.3702C79.9396 70.6761 80.3995 70.2166 80.3995 69.6586Z" fill="#61B3FF"/>
<path d="M74.235 75.9494V71.9232C74.235 71.3653 73.7752 70.9058 73.2168 70.9058C72.6584 70.9058 72.1985 71.3653 72.1985 71.9232V75.9494C72.1985 76.5073 72.6584 76.9668 73.2168 76.9668C73.7752 76.9559 74.235 76.5073 74.235 75.9494Z" fill="#61B3FF"/>
<path d="M74.235 67.3939V63.3678C74.235 62.8098 73.7752 62.3503 73.2168 62.3503C72.6584 62.3503 72.1985 62.8098 72.1985 63.3678V67.3939C72.1985 67.9519 72.6584 68.4114 73.2168 68.4114C73.7752 68.4114 74.235 67.9519 74.235 67.3939Z" fill="#61B3FF"/>
<path d="M278.174 386.049C296.656 371.761 315.116 355.733 326.098 343.687C340.442 327.944 348.062 314.334 348.763 303.229C348.807 302.496 348.248 301.862 347.515 301.807C346.781 301.763 346.146 302.321 346.091 303.054C344.865 322.463 320.416 350.733 275.327 384.879L278.174 386.049Z" fill="#ABD3F2"/>
<path d="M337.704 328.59C337.704 328.59 345.128 336.926 359.296 323.305C359.296 323.316 344.307 313.765 337.704 328.59Z" fill="#CAE6FE"/>
<path d="M330.774 335.996C330.774 335.996 339.522 329.049 326.701 314.159C326.69 314.159 316.321 328.59 330.774 335.996Z" fill="#CAE6FE"/>
<path d="M345.708 311.336C345.708 311.336 356.274 307.704 349.146 289.389C349.146 289.4 334.562 299.542 345.708 311.336Z" fill="#CAE6FE"/>
<path d="M317.273 351.313C317.273 351.313 321.445 361.674 339.38 353.643C339.38 353.632 328.496 339.585 317.273 351.313Z" fill="#CAE6FE"/>
<path d="M309.061 357.779C309.061 357.779 318.883 352.451 308.821 335.57C308.821 335.57 296.12 347.987 309.061 357.779Z" fill="#CAE6FE"/>
<path d="M298.704 367.757C298.704 367.757 302.678 378.194 320.755 370.503C320.755 370.492 310.145 356.247 298.704 367.757Z" fill="#CAE6FE"/>
<path d="M96.8121 263.876C83.5199 244.675 70.7641 223.823 63.9428 209.02C55.0302 189.688 51.8769 174.404 54.5704 163.617C54.7455 162.905 55.4791 162.468 56.1908 162.643C56.9025 162.818 57.3405 163.551 57.1653 164.262C52.4572 183.135 67.2276 217.466 99.8779 263.624L96.8121 263.876Z" fill="#ABD3F2"/>
<path d="M57.4282 191.121C57.4282 191.121 47.8258 196.832 38.4424 179.568C38.4424 179.568 55.6216 175.006 57.4282 191.121Z" fill="#CAE6FE"/>
<path d="M61.8079 200.278C61.8079 200.278 55.5669 191.012 72.2972 180.695C72.2972 180.695 77.8155 197.576 61.8079 200.278Z" fill="#CAE6FE"/>
<path d="M55.0193 172.259C55.0193 172.259 46.0519 165.608 58.3697 150.302C58.3697 150.302 69.2094 164.382 55.0193 172.259Z" fill="#CAE6FE"/>
<path d="M70.0415 218.954C70.0415 218.954 62.9355 227.575 48.2637 214.501C48.2637 214.49 62.8808 204.392 70.0415 218.954Z" fill="#CAE6FE"/>
<path d="M75.9103 227.597C75.9103 227.597 68.1692 219.556 82.852 206.493C82.852 206.493 91.2172 222.171 75.9103 227.597Z" fill="#CAE6FE"/>
<path d="M82.7754 240.233C82.7754 240.233 75.8336 248.986 60.9209 236.196C60.9209 236.185 75.3409 225.803 82.7754 240.233Z" fill="#CAE6FE"/>
<path d="M349.486 71.1687C332.427 70.7748 327.894 86.4636 315.368 82.0655C302.842 77.6564 290.689 82.5031 289.474 94.1548C288.269 105.807 288.039 114.45 273.86 115.38C259.681 116.299 248.283 130.138 256.177 139.613C258.137 141.976 260.272 144.525 262.363 147.02C262.933 147.698 263.502 148.387 264.061 149.055C264.192 149.208 264.323 149.372 264.444 149.525C272.864 159.58 287.568 161.899 298.452 154.58C302.853 151.615 306.149 147.435 306.302 141.549C306.784 123.093 321.795 134.635 332.208 126.911C344.208 118.016 338.055 105.074 347.657 99.4173C361.026 91.551 366.545 71.5625 349.486 71.1687Z" fill="#ABD3F2"/>
<path d="M336.259 89.1112L262.353 147.02C262.922 147.698 263.491 148.387 264.05 149.055L337.891 91.1899C338.471 90.7414 338.57 89.9099 338.121 89.33C337.672 88.7611 336.84 88.6517 336.259 89.1112Z" fill="#90C3EF"/>
<path d="M293.174 38.3578C278.229 46.5742 282.192 62.4161 269.141 64.8996C256.09 67.3722 248.009 77.6564 252.827 88.3453C257.644 99.0343 261.783 106.627 249.991 114.537C238.199 122.447 235.286 140.138 246.87 144.372C249.75 145.433 252.881 146.571 255.947 147.676C256.779 147.982 257.622 148.278 258.444 148.584C258.63 148.65 258.827 148.726 259.013 148.792C271.342 153.267 285.225 147.884 290.974 136.101C293.295 131.331 294.039 126.068 291.214 120.894C282.357 104.691 301.134 107.141 306.27 95.2379C312.182 81.5184 300.357 73.4114 305.821 63.7071C313.408 50.1955 308.131 30.1414 293.174 38.3578Z" fill="#CAE6FE"/>
<path d="M290.755 60.5126L255.947 147.676C256.779 147.983 257.622 148.278 258.444 148.584L293.218 61.4972C293.492 60.8189 293.163 60.0421 292.485 59.7795C291.806 59.506 291.028 59.8342 290.755 60.5126Z" fill="#ABD3F2"/>
<path d="M70.392 265.911C86.093 272.585 83.7499 288.744 96.9874 289.893C110.214 291.042 119.291 300.461 115.59 311.566C111.878 322.682 108.528 330.657 121.065 337.331C133.601 344.005 138.288 361.313 127.174 366.696C124.415 368.041 121.415 369.486 118.481 370.897C117.681 371.28 116.882 371.674 116.094 372.046C115.908 372.133 115.732 372.221 115.546 372.308C103.732 377.997 89.3778 374.059 82.4689 362.91C79.6768 358.403 78.4067 353.239 80.6951 347.801C87.8668 330.789 69.4394 335.121 63.1327 323.787C55.8625 310.735 66.8116 301.479 60.3954 292.376C51.4609 279.729 54.68 259.248 70.392 265.911Z" fill="#ABD3F2"/>
<path d="M75.0343 287.705L118.47 370.908C117.67 371.291 116.871 371.685 116.083 372.057L72.6802 288.93C72.3408 288.284 72.5926 287.486 73.2386 287.147C73.8956 286.807 74.6949 287.059 75.0343 287.705Z" fill="#90C3EF"/>
<path d="M31.5992 304.116C48.647 304.728 52.2493 320.669 65.016 317.004C77.7827 313.349 89.6297 318.896 90.1443 330.603C90.6589 342.309 90.3742 350.952 104.477 352.714C118.568 354.475 129.145 368.96 120.692 377.954C118.59 380.196 116.313 382.614 114.079 384.988C113.466 385.634 112.864 386.279 112.262 386.914C112.119 387.067 111.988 387.209 111.845 387.352C102.845 396.892 88.0311 398.336 77.5966 390.393C73.3702 387.176 70.3373 382.811 70.5344 376.914C71.1475 358.457 55.4793 369.103 45.5375 360.766C34.0847 351.171 40.9936 338.622 31.7416 332.408C18.8763 323.776 14.5514 303.492 31.5992 304.116Z" fill="#CAE6FE"/>
<path d="M43.7418 322.802L114.09 384.988C113.477 385.634 112.875 386.279 112.273 386.914L41.99 324.782C41.4425 324.301 41.3878 323.459 41.8695 322.911C42.3513 322.364 43.1944 322.321 43.7418 322.802Z" fill="#ABD3F2"/>
<path d="M440.112 407.099C442.794 394.857 456.065 403.784 465.547 396.749C477.547 387.855 471.393 374.912 480.996 369.256C494.354 361.389 499.872 341.401 482.813 341.007C465.755 340.613 461.222 356.302 448.696 351.904C436.17 347.495 424.017 352.342 422.801 363.993C421.597 375.645 421.367 384.288 407.188 385.218C394.147 386.06 383.45 397.843 387.972 407.099H440.112Z" fill="#ABD3F2"/>
<path d="M412.454 407.099L471.24 361.039C471.82 360.591 471.919 359.759 471.47 359.179C471.021 358.599 470.189 358.501 469.609 358.95L408.162 407.099H412.454Z" fill="#90C3EF"/>
<path d="M423.699 407.099C423.907 406.716 424.115 406.333 424.301 405.939C426.622 401.169 427.367 395.907 424.542 390.732C415.684 374.529 434.462 376.98 439.597 365.076C445.51 351.357 433.685 343.25 439.148 333.546C446.747 320.045 441.48 299.991 426.524 308.207C411.578 316.424 415.542 332.266 402.491 334.749C389.439 337.222 381.359 347.506 386.176 358.195C390.994 368.884 395.133 376.476 383.34 384.386C375.194 389.846 371.285 399.966 373.464 407.11H423.699V407.099Z" fill="#CAE6FE"/>
<path d="M396.293 407.099L426.546 331.336C426.82 330.657 426.491 329.881 425.812 329.618C425.133 329.344 424.356 329.673 424.093 330.362L393.447 407.11H396.293V407.099Z" fill="#ABD3F2"/>
<path d="M289.747 408.948H99.1663C95.2465 408.948 92.0713 405.775 92.0713 401.859V123.924C92.0713 120.007 95.2465 116.834 99.1663 116.834H289.747C293.667 116.834 296.842 120.007 296.842 123.924V401.848C296.853 405.775 293.667 408.948 289.747 408.948Z" fill="#18184B"/>
<path d="M275.097 392.012H113.816C109.896 392.012 106.721 388.839 106.721 384.923V98.8263C106.721 94.9096 109.896 91.7368 113.816 91.7368H275.097C279.017 91.7368 282.192 94.9096 282.192 98.8263V384.912C282.192 388.839 279.017 392.012 275.097 392.012Z" fill="#304E7E"/>
<path d="M129.386 91.7369H259.538C259.538 89.3518 257.6 87.4153 255.214 87.4153H133.711C131.324 87.4044 129.386 89.3409 129.386 91.7369Z" fill="#18184B"/>
<path d="M253.363 380.021H135.539C134.806 380.021 134.204 379.419 134.204 378.686V377.144C134.204 376.411 134.806 375.809 135.539 375.809H253.363C254.097 375.809 254.699 376.411 254.699 377.144V378.686C254.699 379.419 254.108 380.021 253.363 380.021Z" fill="#18184B"/>
<path d="M264.29 122.6V197.029C264.29 200.289 261.641 202.937 258.378 202.937H130.536C129.89 202.937 129.265 202.839 128.685 202.642C126.32 201.865 124.623 199.644 124.623 197.029V122.6C124.623 119.34 127.273 116.703 130.536 116.703H258.378C261.641 116.703 264.29 119.34 264.29 122.6Z" fill="#CAE6FE"/>
<path opacity="0.4" d="M252.246 116.703L165.945 202.937H130.525C129.879 202.937 129.255 202.839 128.674 202.642L214.68 116.703H252.246Z" fill="white"/>
<path opacity="0.4" d="M178.799 116.703L124.623 170.826V158.485L166.438 116.703H178.799Z" fill="white"/>
<path opacity="0.4" d="M264.29 148.912V161.253L222.574 202.937H210.223L264.29 148.912Z" fill="white"/>
<path d="M157.941 223.396H129.747C126.769 223.396 124.349 220.978 124.349 218.002C124.349 215.026 126.769 212.608 129.747 212.608H157.952C160.93 212.608 163.35 215.026 163.35 218.002C163.339 220.978 160.919 223.396 157.941 223.396Z" fill="#CAE6FE"/>
<path d="M208.559 223.396H180.354C177.376 223.396 174.956 220.978 174.956 218.002C174.956 215.026 177.376 212.608 180.354 212.608H208.559C211.537 212.608 213.957 215.026 213.957 218.002C213.957 220.978 211.537 223.396 208.559 223.396Z" fill="#CAE6FE"/>
<path d="M259.166 223.396H230.961C227.983 223.396 225.563 220.978 225.563 218.002C225.563 215.026 227.983 212.608 230.961 212.608H259.166C262.144 212.608 264.564 215.026 264.564 218.002C264.564 220.978 262.144 223.396 259.166 223.396Z" fill="#CAE6FE"/>
<path d="M159.978 257.574H126.09C124.415 257.574 123.068 256.075 123.068 254.227V237.947C123.068 236.098 124.426 234.599 126.09 234.599H159.978C161.653 234.599 163 236.098 163 237.947V254.227C163 256.075 161.642 257.574 159.978 257.574Z" fill="#CAE6FE"/>
<path d="M211.406 257.574H177.519C175.843 257.574 174.497 256.075 174.497 254.227V237.947C174.497 236.098 175.854 234.599 177.519 234.599H211.406C213.081 234.599 214.428 236.098 214.428 237.947V254.227C214.428 256.075 213.07 257.574 211.406 257.574Z" fill="#CAE6FE"/>
<path d="M262.823 257.574H228.936C227.26 257.574 225.914 256.075 225.914 254.227V237.947C225.914 236.098 227.271 234.599 228.936 234.599H262.823C264.498 234.599 265.845 236.098 265.845 237.947V254.227C265.856 256.075 264.498 257.574 262.823 257.574Z" fill="#CAE6FE"/>
<path d="M159.978 293.667H126.09C124.415 293.667 123.068 292.168 123.068 290.32V274.04C123.068 272.191 124.426 270.692 126.09 270.692H159.978C161.653 270.692 163 272.191 163 274.04V290.32C163 292.168 161.642 293.667 159.978 293.667Z" fill="#CAE6FE"/>
<path d="M211.406 293.667H177.519C175.843 293.667 174.497 292.168 174.497 290.32V274.04C174.497 272.191 175.854 270.692 177.519 270.692H211.406C213.081 270.692 214.428 272.191 214.428 274.04V290.32C214.428 292.168 213.07 293.667 211.406 293.667Z" fill="#CAE6FE"/>
<path d="M262.823 293.667H228.936C227.26 293.667 225.914 292.168 225.914 290.32V274.04C225.914 272.191 227.271 270.692 228.936 270.692H262.823C264.498 270.692 265.845 272.191 265.845 274.04V290.32C265.856 292.168 264.498 293.667 262.823 293.667Z" fill="#CAE6FE"/>
<path d="M159.978 329.76H126.09C124.415 329.76 123.068 328.262 123.068 326.413V310.133C123.068 308.284 124.426 306.785 126.09 306.785H159.978C161.653 306.785 163 308.284 163 310.133V326.413C163 328.272 161.642 329.76 159.978 329.76Z" fill="#CAE6FE"/>
<path d="M211.406 329.76H177.519C175.843 329.76 174.497 328.262 174.497 326.413V310.133C174.497 308.284 175.854 306.785 177.519 306.785H211.406C213.081 306.785 214.428 308.284 214.428 310.133V326.413C214.428 328.272 213.07 329.76 211.406 329.76Z" fill="#CAE6FE"/>
<path d="M262.823 329.76H228.936C227.26 329.76 225.914 328.262 225.914 326.413V310.133C225.914 308.284 227.271 306.785 228.936 306.785H262.823C264.498 306.785 265.845 308.284 265.845 310.133V326.413C265.856 328.272 264.498 329.76 262.823 329.76Z" fill="#CAE6FE"/>
<path d="M159.978 365.153H126.09C124.415 365.153 123.068 363.654 123.068 361.805V345.526C123.068 343.677 124.426 342.178 126.09 342.178H159.978C161.653 342.178 163 343.677 163 345.526V361.805C163 363.654 161.642 365.153 159.978 365.153Z" fill="#007CE6"/>
<path d="M211.406 365.153H177.519C175.843 365.153 174.497 363.654 174.497 361.805V345.526C174.497 343.677 175.854 342.178 177.519 342.178H211.406C213.081 342.178 214.428 343.677 214.428 345.526V361.805C214.428 363.654 213.07 365.153 211.406 365.153Z" fill="#61B3FF"/>
<path d="M262.823 365.153H228.936C227.26 365.153 225.914 363.654 225.914 361.805V345.526C225.914 343.677 227.271 342.178 228.936 342.178H262.823C264.498 342.178 265.845 343.677 265.845 345.526V361.805C265.856 363.654 264.498 365.153 262.823 365.153Z" fill="#0067B0"/>
<path d="M437.769 371.575L445.006 381.323C445.006 381.323 443.55 385.579 437.944 388.752L429.283 377.527L437.769 371.575Z" fill="#FDA893"/>
<path d="M439.258 385.809C439.258 385.809 435.787 385.01 434.561 386.137C433.345 387.264 429.984 402.964 427.104 406.344C424.225 409.725 427.006 411.629 428.714 412.362C430.422 413.095 455.681 389.944 455.681 389.944C455.681 389.944 449.758 381.695 446.845 380.054C443.933 378.413 442.422 384.211 439.258 385.809Z" fill="#007CE6"/>
<path d="M438.48 394.528C438.634 394.474 438.765 394.353 438.82 394.189C438.94 393.883 438.787 393.533 438.469 393.412C438.36 393.369 435.82 392.428 433.816 392.844C431.155 393.391 430.542 395.568 430.52 395.655C430.433 395.973 430.63 396.301 430.969 396.388C431.298 396.476 431.637 396.279 431.725 395.962C431.747 395.907 432.185 394.408 434.079 394.014C435.71 393.675 437.988 394.517 438.009 394.528C438.163 394.583 438.338 394.583 438.48 394.528Z" fill="white"/>
<path d="M438.82 392.089C438.973 392.034 439.094 391.914 439.159 391.75C439.28 391.443 439.127 391.093 438.809 390.973C438.699 390.929 436.159 389.988 434.156 390.404C431.484 390.951 430.882 393.128 430.86 393.216C430.772 393.533 430.98 393.861 431.309 393.949C431.637 394.036 431.977 393.839 432.064 393.522C432.086 393.467 432.524 391.968 434.418 391.575C436.061 391.235 438.327 392.078 438.349 392.089C438.513 392.154 438.678 392.143 438.82 392.089Z" fill="white"/>
<path d="M437.418 397.11C437.572 397.056 437.703 396.935 437.758 396.771C437.878 396.465 437.725 396.115 437.407 395.995C437.298 395.951 434.758 395.01 432.754 395.426C430.082 395.973 429.48 398.15 429.458 398.237C429.371 398.555 429.579 398.883 429.907 398.97C430.236 399.058 430.575 398.861 430.663 398.544C430.685 398.489 431.123 396.99 433.017 396.596C434.659 396.257 436.926 397.1 436.948 397.11C437.112 397.165 437.276 397.165 437.418 397.11Z" fill="white"/>
<path d="M393.633 240.386L398.899 304.422C398.899 304.422 407.483 315.132 413.659 327.003C418.838 336.97 441.043 372.669 441.043 372.669L429.831 381.411L373.87 315.69L362.92 239.03L393.633 240.386Z" fill="#16162F"/>
<path d="M379.125 387.855L378.249 400.272C378.249 400.272 374.308 402.756 367.88 401.749L368.636 387.242L379.125 387.855Z" fill="#FDA893"/>
<path d="M370.103 399.955C370.103 399.955 367.858 396.979 366.096 397.121C364.333 397.264 350.767 408.171 346.103 409.09C341.438 410.009 342.369 413.445 343.234 415.195C344.099 416.946 380.319 415.195 380.319 415.195C380.319 415.195 381.414 403.478 380.209 400.174C378.994 396.87 373.76 400.721 370.103 399.955Z" fill="#007CE6"/>
<path d="M363.183 406.464C363.336 406.519 363.512 406.508 363.676 406.432C363.982 406.278 364.103 405.896 363.95 405.589C363.895 405.491 362.636 403.073 360.851 402.077C358.475 400.743 356.515 402.044 356.438 402.099C356.154 402.296 356.077 402.679 356.274 402.963C356.471 403.248 356.855 403.325 357.139 403.128C357.194 403.095 358.552 402.22 360.249 403.171C361.705 403.981 362.833 406.147 362.844 406.169C362.909 406.311 363.041 406.421 363.183 406.464Z" fill="white"/>
<path d="M365.121 404.791C365.274 404.845 365.45 404.834 365.614 404.758C365.92 404.605 366.041 404.222 365.888 403.915C365.833 403.817 364.574 401.399 362.789 400.403C360.413 399.069 358.453 400.371 358.376 400.425C358.092 400.622 358.015 401.005 358.212 401.29C358.409 401.574 358.793 401.651 359.077 401.454C359.132 401.421 360.49 400.546 362.187 401.487C363.654 402.307 364.771 404.462 364.782 404.484C364.847 404.637 364.968 404.747 365.121 404.791Z" fill="white"/>
<path d="M360.61 407.788C360.763 407.843 360.939 407.832 361.103 407.756C361.409 407.602 361.53 407.22 361.377 406.913C361.322 406.815 360.063 404.397 358.278 403.401C355.902 402.067 353.942 403.368 353.865 403.423C353.581 403.62 353.504 404.003 353.701 404.287C353.898 404.572 354.282 404.648 354.566 404.452C354.621 404.419 355.979 403.543 357.676 404.484C359.143 405.305 360.26 407.46 360.271 407.482C360.336 407.624 360.468 407.734 360.61 407.788Z" fill="white"/>
<path d="M428.561 243.034C428.561 243.034 414.031 290.451 395.976 315.8C395.976 315.8 392.79 340.788 388.038 354.026C385.947 359.814 380.198 394.474 380.198 394.474L378.052 394.113L376.782 393.894L367.278 392.297L373.465 309.64L395.954 244.774L423.108 243.308L424.553 243.242L428.561 243.034Z" fill="#2A3554"/>
<path d="M424.553 243.253L393.162 315.767C393.151 315.855 388.268 335.624 385.454 349.541C382.936 361.914 379.18 383.489 378.063 394.113L376.793 393.894C377.932 383.172 381.611 361.958 384.184 349.289C387.009 335.362 391.903 315.57 391.947 315.362L423.108 243.33L424.553 243.253Z" fill="#16162F"/>
<path d="M356.811 134.657L342.281 163.332L357.654 161.997C357.654 161.997 359.11 144.645 356.811 134.657Z" fill="#0067B0"/>
<path d="M429.94 244.675C422.287 247.476 414.568 249.533 406.783 250.846C406.421 250.9 406.071 250.966 405.721 251.021C405.535 251.053 405.337 251.075 405.151 251.108C404.735 251.174 404.308 251.239 403.903 251.294C403.432 251.36 402.972 251.425 402.502 251.491C397.191 252.202 391.848 252.563 386.472 252.596C385.377 252.596 384.304 252.585 383.209 252.563H383.001C382.727 252.552 382.454 252.552 382.169 252.541C382.005 252.53 381.841 252.53 381.676 252.52C375.402 252.323 369.085 251.644 362.734 250.517C362.592 249.117 362.406 247.038 362.176 244.424C362.132 243.931 362.088 243.428 362.056 242.903C361.727 239.161 361.344 234.489 360.928 229.216C360.895 228.768 360.862 228.308 360.818 227.849C360.545 224.337 360.249 220.584 359.964 216.656C359.931 216.197 359.888 215.748 359.855 215.289C359.559 211.263 359.253 207.083 358.957 202.838C358.771 200.245 358.596 197.631 358.42 195.016C358.245 192.357 358.07 189.699 357.906 187.062C357.873 186.482 357.829 185.913 357.796 185.333C356.241 160.356 355.3 137.359 356.811 134.657C357.862 132.786 360.446 130.466 363.512 128.092C363.895 127.797 364.267 127.512 364.661 127.217C365.975 126.232 376.935 121.419 378.304 120.445L390.173 118.574C390.25 118.618 401.998 121.473 402.086 121.506C402.6 121.747 403.115 121.977 403.629 122.228C408.075 124.296 412.465 126.495 415.071 128.508C415.444 128.792 415.783 129.077 416.079 129.361C416.319 129.591 416.527 129.81 416.703 130.029C416.856 130.226 417.031 130.565 417.206 131.046C419.111 136.166 421.663 156.713 423.995 179.119C424.05 179.655 424.093 180.191 424.159 180.727C424.214 181.264 424.269 181.8 424.323 182.336C424.378 182.883 424.433 183.419 424.487 183.955C424.553 184.666 424.63 185.377 424.706 186.099C424.75 186.581 424.805 187.084 424.849 187.565C424.871 187.817 424.893 188.058 424.925 188.298C424.947 188.473 424.958 188.659 424.98 188.834C425.079 189.874 425.177 190.913 425.276 191.952C425.374 192.85 425.462 193.736 425.55 194.633C426.393 203.44 427.181 212.05 427.849 219.654C428.046 221.809 428.232 223.877 428.396 225.846C428.429 226.295 428.473 226.754 428.506 227.192C429.196 235.299 429.71 241.59 429.94 244.675Z" fill="#61B3FF"/>
<path d="M427.849 219.654C417.918 233.986 405.447 244.27 405.447 244.27L402.567 223.68C406.586 215.573 415.903 197.992 424.159 180.727C424.214 181.263 424.269 181.799 424.323 182.336C424.378 182.883 424.433 183.419 424.488 183.955C424.553 184.666 424.63 185.377 424.707 186.099C424.75 186.581 424.805 187.084 424.849 187.565C424.871 187.817 424.893 188.057 424.926 188.298C424.947 188.473 424.958 188.659 424.98 188.834C425.079 189.874 425.177 190.913 425.276 191.952C425.374 192.849 425.462 193.736 425.55 194.633C426.393 203.44 427.181 212.05 427.849 219.654Z" fill="#0067B0"/>
<path d="M376.574 155.663L362.822 156.056C362.822 156.056 363.752 172.697 370.99 171.548C378.238 170.411 376.574 155.663 376.574 155.663Z" fill="#0067B0"/>
<path d="M413.943 226.361C401.034 227.422 389.516 222.52 382.125 218.21C374.132 213.549 369.096 208.571 369.052 208.516C368.811 208.276 368.811 207.882 369.052 207.641C369.293 207.401 369.687 207.401 369.928 207.641C369.972 207.685 374.921 212.575 382.782 217.16C390.009 221.372 401.275 226.164 413.834 225.124C414.173 225.091 414.48 225.354 414.502 225.693C414.535 226.032 414.283 226.339 413.943 226.361Z" fill="#0067B0"/>
<path d="M400.881 231.907C389.691 232.881 377.976 227.476 377.439 227.225C377.132 227.083 376.99 226.711 377.143 226.393C377.286 226.087 377.658 225.945 377.976 226.098C378.118 226.164 391.903 232.52 403.443 230.299C403.783 230.234 404.111 230.452 404.177 230.791C404.243 231.131 404.024 231.459 403.684 231.524C402.743 231.7 401.812 231.831 400.881 231.907Z" fill="#0067B0"/>
<path d="M380.921 213.21L388.377 230.824L395.166 213.888L387.052 143.201L386.735 140.543L383.516 140.368L383.384 144L380.921 213.21Z" fill="white"/>
<path d="M383.384 144L385.081 145.783L387.052 143.201L386.735 140.543L383.516 140.368L383.384 144Z" fill="#EDEDED"/>
<path d="M390.501 136.418L384.786 143.081L380.078 135.882L383.527 128.639L390.501 136.418Z" fill="white"/>
<path d="M391.892 117.753L393.797 118.88C394.322 119.187 394.837 119.515 395.33 119.876C396.808 120.97 397.366 121.758 397.191 123.924C397.169 124.252 397.115 124.548 397.06 124.777L395.067 141.516L383.527 128.628C383.527 128.639 390.797 125.313 391.892 117.753Z" fill="#0067B0"/>
<path d="M378.304 119.602C378.304 119.602 373.946 124.504 375.807 129.733L378.764 138.639L383.527 128.628C383.527 128.639 379.311 126.55 378.304 119.602Z" fill="#0067B0"/>
<path d="M399.918 86.9558C400.815 97.3165 395.056 105.019 384.687 105.916C374.319 106.813 366.424 99.7672 365.515 89.4064C364.618 79.0457 370.07 70.6652 380.439 69.7572C392.888 68.674 399.02 76.595 399.918 86.9558Z" fill="#1D3062"/>
<path d="M399.283 93.2466C399.283 93.2466 401.319 90.3255 400.421 83.3563C399.523 76.3872 396.983 74.6039 396.983 74.6039C396.983 74.6039 399.491 69.3414 396.644 68.1052C393.786 66.8689 391.563 68.5428 391.563 68.5428C391.563 68.5428 393.282 65.2825 391.257 65.009C389.231 64.7355 386.527 66.8251 386.527 66.8251C386.527 66.8251 371.91 62.7552 367.76 66.2343C363.61 69.7134 367.355 78.6628 368.614 79.5928L399.283 93.2466Z" fill="#1D3062"/>
<path d="M397.98 91.6166C397.98 91.6166 400.531 87.5248 402.95 90.5116C405.37 93.4984 403.158 103.137 397.706 101.31L397.98 91.6166Z" fill="#FB876B"/>
<path d="M398.593 98.3122C398.79 98.2903 398.954 98.1481 398.987 97.9511C399.545 94.9862 402.447 93.553 402.48 93.5421C402.699 93.4327 402.797 93.1701 402.688 92.9513C402.578 92.7325 402.315 92.634 402.097 92.7434C401.965 92.8091 398.768 94.3736 398.122 97.787C398.078 98.0277 398.231 98.2575 398.472 98.3012C398.516 98.3122 398.56 98.3231 398.593 98.3122Z" fill="#D45C48"/>
<path d="M401.505 96.5944C401.582 96.5835 401.669 96.5616 401.735 96.5069C401.932 96.3537 401.965 96.0802 401.812 95.8833C401.79 95.8504 401.188 95.0846 400.027 94.6908C399.797 94.6142 399.545 94.7345 399.458 94.9643C399.381 95.194 399.501 95.4456 399.731 95.5332C400.629 95.8395 401.1 96.4303 401.1 96.4303C401.209 96.5506 401.352 96.6054 401.505 96.5944Z" fill="#D45C48"/>
<path d="M368.285 94.1984C368.285 94.1984 365.066 90.6099 363.205 93.9687C361.344 97.3274 365.187 106.441 370.234 103.695L368.285 94.1984Z" fill="#FB876B"/>
<path d="M368.833 100.894C368.636 100.916 368.45 100.796 368.373 100.61C367.311 97.787 364.201 96.868 364.179 96.868C363.939 96.8024 363.807 96.5507 363.873 96.321C363.939 96.0803 364.19 95.949 364.42 96.0146C364.563 96.0584 367.979 97.054 369.205 100.303C369.293 100.533 369.172 100.785 368.942 100.872C368.909 100.883 368.866 100.894 368.833 100.894Z" fill="#D45C48"/>
<path d="M365.679 99.7014C365.592 99.7124 365.515 99.6905 365.439 99.6467C365.22 99.5373 365.143 99.2638 365.252 99.045C365.274 99.0122 365.734 98.1588 366.796 97.5571C367.004 97.4367 367.278 97.5133 367.398 97.7321C367.519 97.9509 367.442 98.2135 367.223 98.3339C366.402 98.7934 366.03 99.4498 366.03 99.4607C365.953 99.603 365.822 99.6905 365.679 99.7014Z" fill="#D45C48"/>
<path d="M377.57 111.069L378.381 120.39C378.381 120.39 377.888 129.23 384.983 128.552C388.749 128.191 392.111 120.182 392.111 120.182L391.268 110.533L377.57 111.069Z" fill="#FBA691"/>
<path d="M377.57 111.069L377.932 115.204C380.702 117.786 385.246 118.093 391.793 116.539L391.268 110.533L377.57 111.069Z" fill="#FB876B"/>
<path d="M365.647 87.9841C366.139 91.5945 366.873 96.091 367.88 99.6577C368.132 100.544 368.406 101.375 368.68 102.119C371.242 108.815 377.176 120.171 390.501 114.077C396.381 111.386 398.615 104.384 399.271 97.393C399.72 92.6557 399.436 87.9184 399.074 84.5597C398.713 81.1243 396.556 78.1376 393.414 76.7043C384.895 72.8095 376.486 75.2711 371.034 77.9297C367.256 79.7677 365.077 83.8266 365.647 87.9841Z" fill="#FBA691"/>
<path d="M388.246 93.0168C388.333 94.0124 388.914 94.7782 389.549 94.7235C390.184 94.6688 390.622 93.8154 390.534 92.8198C390.447 91.8242 389.866 91.0584 389.231 91.1131C388.596 91.1678 388.158 92.0212 388.246 93.0168Z" fill="#1D3062"/>
<path d="M374.943 94.1657C375.03 95.1613 375.61 95.9271 376.245 95.8724C376.881 95.8177 377.319 94.9644 377.231 93.9688C377.143 92.9732 376.563 92.2073 375.928 92.262C375.293 92.3277 374.855 93.1701 374.943 94.1657Z" fill="#1D3062"/>
<path d="M372.435 88.1592C372.435 88.1592 375.928 86.4197 378.818 87.3824L378.676 88.9579C378.676 88.9579 374.559 88.9688 372.566 89.9754C372.326 89.3955 372.249 88.7938 372.435 88.1592Z" fill="#1D3062"/>
<path d="M393.512 86.3323C393.512 86.3323 389.768 85.2163 387.085 86.6605L387.501 88.1812C387.501 88.1812 391.563 87.481 393.687 88.1375C393.819 87.5248 393.797 86.9231 393.512 86.3323Z" fill="#1D3062"/>
<path d="M383.406 101.31C384.151 101.332 384.906 101.069 385.027 101.025C385.257 100.938 385.377 100.686 385.289 100.456C385.202 100.227 384.95 100.106 384.72 100.194C384.315 100.347 383.34 100.566 382.935 100.303C382.859 100.249 382.749 100.15 382.727 99.8766C382.618 98.323 383.231 93.1372 383.231 93.0825C383.264 92.8418 383.089 92.623 382.837 92.5901C382.596 92.5573 382.377 92.7324 382.344 92.984C382.322 93.2028 381.72 98.3011 381.829 99.9422C381.873 100.555 382.18 100.883 382.443 101.047C382.727 101.222 383.067 101.299 383.406 101.31Z" fill="#FB876B"/>
<path d="M389.702 103.432C389.494 105.281 388.585 108.739 384.534 109.089C380.472 109.439 379.059 106.474 378.49 104.406L389.702 103.432Z" fill="white"/>
<path d="M385.103 111.813C383.954 111.911 382.935 111.419 382.891 111.397C382.672 111.288 382.585 111.025 382.694 110.806C382.804 110.588 383.067 110.5 383.286 110.609C383.297 110.609 384.14 111.014 385.027 110.938C385.848 110.861 386.592 110.325 386.603 110.325C386.8 110.183 387.074 110.216 387.227 110.412C387.37 110.609 387.337 110.883 387.14 111.036C387.096 111.058 386.187 111.714 385.103 111.813Z" fill="#FB876B"/>
<path d="M366.676 94.4171L368.679 94.2421C368.285 92.2509 368.8 89.7455 369.271 88.0716C370.322 84.2752 367.256 82.9076 369.468 80.8508C371.669 78.794 377.614 79.0784 381.698 78.597C385.804 78.1047 392.417 77.5905 394.06 77.8203C395.702 78.05 395.056 80.7961 394.64 82.9186C394.224 85.0301 396.994 87.0979 397.607 89.1985C397.782 89.8002 397.837 90.7192 397.826 91.7148L399.501 91.5726C399.468 88.9468 399.293 86.529 399.085 84.5597C398.724 81.1243 396.567 78.1375 393.425 76.7043C384.906 72.8095 376.497 75.2711 371.044 77.9297C367.256 79.7677 365.088 83.8266 365.657 87.9841C365.909 89.9534 366.26 92.2071 366.676 94.4171Z" fill="#1D3062"/>
<path d="M376.519 100.413C373.672 100.664 371.165 98.5527 370.913 95.7081C370.661 92.8636 372.775 90.3582 375.621 90.1065C378.468 89.8549 380.975 91.9664 381.227 94.811C381.468 97.6555 379.366 100.172 376.519 100.413ZM375.687 90.9161C373.289 91.124 371.504 93.2465 371.712 95.6425C371.92 98.0385 374.045 99.8218 376.442 99.6139C378.84 99.406 380.625 97.2836 380.417 94.8876C380.209 92.4916 378.096 90.7083 375.687 90.9161Z" fill="white"/>
<path d="M390.611 99.1982C387.764 99.4498 385.257 97.3383 385.005 94.4938C384.753 91.6492 386.866 89.1438 389.713 88.8922C392.56 88.6405 395.067 90.7521 395.319 93.5966C395.56 96.4412 393.447 98.9466 390.611 99.1982ZM389.779 89.6908C387.381 89.8987 385.596 92.0212 385.804 94.4172C386.012 96.8132 388.136 98.5965 390.534 98.3886C392.932 98.1807 394.717 96.0583 394.509 93.6623C394.301 91.2663 392.187 89.483 389.779 89.6908Z" fill="white"/>
<path d="M371.647 93.9796C371.548 93.9905 371.439 93.9577 371.351 93.892C371.329 93.8702 368.789 91.8024 365.778 92.787C365.57 92.8527 365.34 92.7433 365.274 92.5245C365.209 92.3166 365.318 92.0868 365.537 92.0212C368.975 90.8943 371.756 93.1809 371.877 93.2684C372.052 93.4106 372.074 93.6623 371.931 93.8373C371.844 93.9249 371.745 93.9686 371.647 93.9796Z" fill="white"/>
<path d="M394.399 91.9993C394.268 92.0102 394.136 91.9555 394.049 91.8461C393.906 91.671 393.939 91.4194 394.114 91.2772C394.257 91.1678 397.706 88.4983 400.848 88.739C401.067 88.7609 401.231 88.9468 401.22 89.1766C401.199 89.3954 401.012 89.5595 400.783 89.5486C397.947 89.3298 394.64 91.8899 394.607 91.9227C394.541 91.9664 394.476 91.9993 394.399 91.9993Z" fill="white"/>
<path d="M385.191 93.3121C385.18 93.3011 384.118 92.0976 382.859 92.2071C381.611 92.3165 380.866 93.6731 380.855 93.695L380.143 93.3121C380.187 93.2355 381.107 91.5506 382.782 91.4084C384.457 91.2662 385.738 92.7322 385.793 92.7978L385.191 93.3121Z" fill="white"/>
<path d="M416.626 159.831L410.812 239.227C410.549 242.793 407.44 245.485 403.87 245.222L268.922 235.354C267.312 235.233 265.878 234.533 264.816 233.483C263.524 232.192 262.78 230.376 262.922 228.417L268.736 149.022C268.999 145.455 272.108 142.764 275.678 143.026L410.626 152.895C414.206 153.157 416.889 156.264 416.626 159.831Z" fill="#007CE6"/>
<path d="M268.039 158.9L266.75 176.499L414.634 187.315L415.923 169.716L268.039 158.9Z" fill="#1D3062"/>
<path d="M400.531 232.991L365.745 230.442L366.643 218.265L401.428 220.814L400.531 232.991Z" fill="#61B3FF"/>
<path d="M284.317 198.758L274.572 198.047C274.145 198.014 273.816 197.642 273.849 197.215L274.221 192.128C274.254 191.701 274.627 191.373 275.054 191.406L284.798 192.117C285.225 192.15 285.554 192.522 285.521 192.948L285.149 198.036C285.116 198.462 284.744 198.79 284.317 198.758Z" fill="#61B3FF"/>
<path d="M304.211 200.213L294.466 199.502C294.039 199.469 293.722 199.097 293.744 198.67L294.116 193.583C294.149 193.156 294.521 192.828 294.948 192.861L304.693 193.572C305.12 193.605 305.448 193.977 305.416 194.403L305.043 199.491C305.021 199.917 304.649 200.246 304.211 200.213Z" fill="#61B3FF"/>
<path d="M324.117 201.668L314.372 200.957C313.945 200.924 313.616 200.552 313.649 200.125L314.022 195.038C314.054 194.611 314.427 194.283 314.854 194.316L324.598 195.027C325.025 195.06 325.343 195.432 325.321 195.858L324.949 200.946C324.916 201.372 324.544 201.701 324.117 201.668Z" fill="#61B3FF"/>
<path d="M344.022 203.123L334.277 202.412C333.85 202.379 333.522 202.007 333.555 201.58L333.927 196.493C333.96 196.066 334.332 195.738 334.759 195.771L344.504 196.482C344.931 196.515 345.248 196.887 345.227 197.313L344.854 202.401C344.821 202.827 344.449 203.156 344.022 203.123Z" fill="#61B3FF"/>
<path d="M363.928 204.578L354.183 203.867C353.756 203.834 353.428 203.462 353.461 203.035L353.833 197.948C353.866 197.521 354.238 197.193 354.665 197.226L364.41 197.937C364.837 197.97 365.154 198.342 365.132 198.769L364.76 203.856C364.727 204.283 364.355 204.611 363.928 204.578Z" fill="#61B3FF"/>
<path d="M383.833 206.033L374.089 205.322C373.662 205.289 373.333 204.917 373.366 204.49L373.738 199.403C373.771 198.976 374.143 198.648 374.57 198.681L384.315 199.392C384.742 199.425 385.071 199.797 385.038 200.224L384.666 205.311C384.633 205.738 384.26 206.066 383.833 206.033Z" fill="#61B3FF"/>
<path d="M403.739 207.488L393.994 206.777C393.567 206.744 393.239 206.372 393.272 205.946L393.644 200.858C393.677 200.431 394.049 200.103 394.476 200.136L404.221 200.847C404.648 200.88 404.976 201.252 404.943 201.679L404.571 206.766C404.538 207.193 404.166 207.521 403.739 207.488Z" fill="#61B3FF"/>
<path d="M268.702 149.577L268.455 152.949L416.339 163.75L416.586 160.379L268.702 149.577Z" fill="#61B3FF"/>
<path d="M289.167 226.59L274.309 225.507C272.918 225.409 271.867 224.194 271.966 222.805L273.05 207.959C273.148 206.569 274.364 205.519 275.754 205.617L290.612 206.7C292.003 206.799 293.054 208.013 292.955 209.403L291.871 224.249C291.773 225.649 290.558 226.689 289.167 226.59Z" fill="#61B3FF"/>
<path d="M359.449 226.623L298.605 222.17C297.62 222.094 296.875 221.24 296.941 220.245L297.083 218.352C297.16 217.367 298.014 216.623 299.01 216.689L359.855 221.142C360.84 221.218 361.585 222.072 361.519 223.067L361.376 224.96C361.3 225.945 360.446 226.689 359.449 226.623Z" fill="#61B3FF"/>
<path opacity="0.2" d="M362.307 149.361L264.827 233.494C263.535 232.203 262.791 230.387 262.933 228.429L264.969 200.574L327.27 146.812L362.307 149.361Z" fill="white"/>
<path opacity="0.2" d="M410.352 152.873L311.197 238.45L294.05 237.203L393.217 151.625L410.352 152.873Z" fill="white"/>
<path d="M319.003 235.846L317.251 237.881C317.251 237.881 312.237 237.52 311.755 235.419C311.58 234.653 311.766 233.811 312.39 233.461L319.003 235.846Z" fill="#FB876B"/>
<path d="M320.788 247.126C318.324 247.443 315.861 246.24 314.744 244.019C314.153 242.837 313.89 241.327 314.459 239.456C316.157 233.833 319.31 229.873 321.478 231.043C322.299 231.481 322.135 234.807 321.018 237.214C321.018 237.214 322.616 234.61 323.394 231.601C324.171 228.593 327.894 230.048 326.952 233.844C326 237.64 325.595 238.187 325.595 238.187C325.595 238.187 327.325 235.31 327.566 233.439C327.806 231.568 330.752 232.083 330.106 235.737C329.81 237.432 329.449 239.369 329.449 239.369C329.449 239.369 330.303 236.962 330.752 235.704C331.201 234.457 332.931 233.68 333.182 236.415C333.379 238.57 333.511 244.434 330.609 245.397C328.628 246.065 323.722 246.754 320.788 247.126Z" fill="#FBA691"/>
<path d="M371.045 243.373C370.913 241.415 375.173 241.535 377.264 240.375C379.355 239.216 384.217 235.354 383.297 234.358C382.377 233.363 380.976 232.63 380.034 232.006C379.103 231.382 378.403 229.566 379.421 229.358C380.45 229.15 383.735 230.616 385.071 231.645C385.541 232.017 386.428 233.231 387.009 233.866C387.917 234.872 389.023 235.518 390.25 235.649C391.377 234.489 392.593 233.166 393.381 232.542C395.122 232.651 401.056 236.787 399.688 240.222C398.166 242.312 395.866 244.697 395.866 244.697C387.644 252.169 382.815 251.797 380.822 251.754C378.83 251.71 378.446 249.587 378.446 249.587C376.618 249.15 376.607 247.399 376.607 247.399C373.782 246.688 374.176 244.785 374.176 244.785C374.176 244.785 371.176 245.332 371.045 243.373Z" fill="#FBA691"/>
<path d="M431.769 205.738C431.769 205.738 424.564 227.597 400.925 240.496L392.746 233.275C392.746 233.275 409.323 220.212 416.922 200.771C416.976 200.628 417.042 200.475 417.097 200.322L416.998 199.655L408.611 145.181C408.611 145.181 409.367 138.923 416.79 130.083C416.79 130.083 435.064 159.229 431.769 205.738Z" fill="#61B3FF"/>
<path d="M423.743 202.98C423.644 203.156 423.458 203.243 423.272 203.243C423.174 203.243 423.086 203.221 422.998 203.177C421.367 202.237 418.706 201.328 416.922 200.77C416.976 200.628 417.042 200.475 417.097 200.322L416.998 199.655C418.827 200.202 421.739 201.175 423.546 202.226C423.809 202.379 423.896 202.718 423.743 202.98Z" fill="#0067B0"/>
</svg>
