<svg width="24" height="24" viewBox="0 0 24 24" fill="none" xmlns="http://www.w3.org/2000/svg">
<g clip-path="url(#clip0_1_35)">
<path d="M12 24C18.6274 24 24 18.6274 24 12C24 5.37258 18.6274 0 12 0C5.37258 0 0 5.37258 0 12C0 18.6274 5.37258 24 12 24Z" fill="#2099FF"/>
<path fill-rule="evenodd" clip-rule="evenodd" d="M11.3105 0.0194065C17.617 0.376688 22.621 5.604 22.621 12C22.621 18.396 17.617 23.6232 11.3105 23.9805C11.5387 23.9934 11.7686 24 12 24C18.6274 24 24 18.6274 24 12C24 5.37262 18.6274 2.49348e-07 12 2.49348e-07C11.7685 -4.66257e-05 11.5387 0.00651587 11.3105 0.0194065Z" fill="#008AFF"/>
<path fill-rule="evenodd" clip-rule="evenodd" d="M11.4389 19.892C11.7042 17.7468 13.814 17.3211 14.0077 14.7687C14.122 13.2625 9.79684 12.0305 9.31623 12.0687C7.33824 12.2261 7.63581 12.5648 6.53171 10.7944C5.14726 8.5745 8.66748 9.89567 8.94695 8.46435C9.17757 7.28338 10.0877 7.09447 10.725 6.69641C11.2349 6.37794 12.1647 6.28133 12.865 6.09285C13.4378 5.93867 13.4292 5.28383 13.5031 4.76778C13.665 3.63702 13.421 3.46705 12.4278 3.32558C10.7739 3.08999 11.3284 1.94183 9.10309 2.4103C6.90029 2.87403 7.52799 2.70796 5.30987 2.03638C3.48502 3.26408 2.01587 4.97989 1.08948 6.99674C2.32257 10.6838 4.85532 11.3883 5.28826 11.8347C5.66284 12.221 6.19679 12.5169 6.21043 13.7368C6.25431 17.6569 8.03565 14.951 8.83482 19.4316C9.59129 23.6724 11.1298 22.3907 11.4389 19.892ZM16.3795 12.993C13.6984 11.2351 16.6651 9.9553 16.1488 8.84385C16.0677 8.66919 16.6686 7.86266 17.0613 7.99016C17.9621 8.28256 20.2629 8.32072 20.601 8.22805C21.0238 8.11213 21.6939 6.50202 20.2417 6.44511C19.9314 6.43297 17.4129 6.78575 17.268 6.50202C17.1244 6.1423 16.8376 4.80936 17.484 4.21831C18.2285 3.53764 19.7244 3.29506 19.9957 3.05174C22.4532 5.2491 24 8.44391 24 11.9999C24 14.5858 23.1821 16.9805 21.791 18.9397C20.9455 19.7467 19.3053 19.6599 19.5339 18.7399C19.9164 17.2009 19.6654 16.772 19.6857 15.8121C19.7626 12.1664 18.1623 13.647 16.3795 12.993Z" fill="#A4DE46"/>
<path fill-rule="evenodd" clip-rule="evenodd" d="M19.0245 3.43384C21.2441 5.61151 22.6209 8.64498 22.6209 12C22.6209 14.8155 21.6513 17.4045 20.0278 19.4514C20.5331 19.5774 21.2974 19.4109 21.791 18.9397C23.1821 16.9805 24 14.5858 24 12C24 8.44393 22.4532 5.24912 19.9957 3.05176C19.8698 3.16468 19.4803 3.27741 19.0245 3.43384Z" fill="#76BB00"/>
</g>
<defs>
<clipPath id="clip0_1_35">
<rect width="24" height="24" fill="white"/>
</clipPath>
</defs>
</svg>
