<svg width="72" height="72" viewBox="0 0 72 72" fill="none" xmlns="http://www.w3.org/2000/svg">
<path d="M64.8734 32.0203H46.853C46.5344 32.0203 46.2288 32.1468 46.0035 32.3721C45.7782 32.5974 45.6516 32.903 45.6516 33.2216V48.8393C45.6516 49.1579 45.7782 49.4635 46.0035 49.6888C46.2288 49.9141 46.5344 50.0406 46.853 50.0406H67.2761C67.5947 50.0406 67.9003 49.9141 68.1256 49.6888C68.3509 49.4635 68.4774 49.1579 68.4774 48.8393V35.6243C68.4764 34.6688 68.0963 33.7527 67.4207 33.077C66.745 32.4014 65.8289 32.0213 64.8734 32.0203Z" fill="#26A6FE"/>
<path d="M66.0131 32.8416L61.7556 20.0684C61.5169 19.3504 61.0581 18.7259 60.4443 18.2835C59.8305 17.8411 59.0929 17.6034 58.3363 17.604H46.853C46.5344 17.604 46.2288 17.7306 46.0035 17.9559C45.7782 18.1812 45.6516 18.4867 45.6516 18.8054V33.2217C45.6516 33.5403 45.7782 33.8459 46.0035 34.0712C46.2288 34.2965 46.5344 34.423 46.853 34.423H64.8734C65.0631 34.4212 65.2498 34.3748 65.4183 34.2875C65.5868 34.2003 65.7324 34.0746 65.8433 33.9206C65.9543 33.7667 66.0274 33.5888 66.0569 33.4013C66.0864 33.2139 66.0714 33.0221 66.0131 32.8416Z" fill="#26A6FE"/>
<path d="M61.2077 29.2377L58.8049 22.0295C58.7252 21.7903 58.5722 21.5823 58.3676 21.4349C58.1631 21.2875 57.9173 21.2082 57.6652 21.2083H50.4571C50.1384 21.2083 49.8329 21.3348 49.6076 21.5601C49.3823 21.7854 49.2557 22.091 49.2557 22.4096V29.6178C49.2557 29.9364 49.3823 30.242 49.6076 30.4673C49.8329 30.6926 50.1384 30.8191 50.4571 30.8191H60.0679C60.2577 30.8173 60.4443 30.7709 60.6128 30.6836C60.7813 30.5963 60.9269 30.4706 61.0378 30.3167C61.1488 30.1627 61.2219 29.9849 61.2514 29.7974C61.2809 29.61 61.2659 29.4182 61.2077 29.2377Z" fill="#EEEEEE"/>
<path d="M64.2728 38.0272C60.3778 37.9728 60.376 44.088 64.2728 44.034H68.4775V38.0272H64.2728Z" fill="#FFD54F"/>
<path d="M44.4503 14H7.20816C6.25262 14.001 5.33652 14.3811 4.66085 15.0568C3.98518 15.7324 3.60513 16.6485 3.60408 17.6041V42.8326H48.0544V17.6041C48.0533 16.6485 47.6733 15.7324 46.9976 15.0568C46.3219 14.3811 45.4058 14.001 44.4503 14Z" fill="#FFD54F"/>
<path d="M34.8401 20.0073C23.6641 19.9297 23.5892 36.9644 34.8393 36.8258C46.0895 36.9658 46.0143 19.9312 34.8401 20.0073Z" fill="#FFA000"/>
<path d="M45.6516 40.4299H3.60408V48.8394C3.60408 49.1581 3.73065 49.4636 3.95595 49.6889C4.18125 49.9142 4.48682 50.0408 4.80544 50.0408H46.853C47.1716 50.0408 47.4772 49.9142 47.7025 49.6889C47.9278 49.4636 48.0544 49.1581 48.0544 48.8394V40.4299H45.6516Z" fill="#26A6FE"/>
<path d="M69.0782 47.6381H3.00347C-0.891452 47.5836 -0.893254 53.6988 3.00347 53.6448H69.0782C72.9731 53.6993 72.9749 47.5841 69.0782 47.6381Z" fill="#67676B"/>
<path d="M58.2666 44.0347C49.4561 43.9146 49.4561 57.3668 58.2666 57.248C67.076 57.3679 67.0759 43.9159 58.2666 44.0347Z" fill="#46464E"/>
<path d="M13.8163 44.0347C5.00579 43.9146 5.00579 57.3668 13.8163 57.248C22.6258 57.3679 22.6256 43.9159 13.8163 44.0347Z" fill="#46464E"/>
<path d="M13.8155 47.6381C9.80202 47.5818 9.81944 53.704 13.8155 53.644C17.8288 53.7008 17.8112 47.5781 13.8155 47.6381Z" fill="#EEEEEE"/>
<path d="M58.2658 47.6381C54.2523 47.5818 54.2697 53.704 58.2658 53.644C62.279 53.7008 62.2615 47.5781 58.2658 47.6381Z" fill="#EEEEEE"/>
<path d="M36.0407 30.819C35.8829 30.8192 35.7267 30.7882 35.5809 30.7278C35.4351 30.6674 35.3028 30.5787 35.1914 30.467L33.99 29.2656C33.7647 29.0404 33.6381 28.7349 33.638 28.4163V24.8122C33.638 24.4936 33.7646 24.188 33.9899 23.9627C34.2152 23.7374 34.5207 23.6108 34.8394 23.6108C35.158 23.6108 35.4636 23.7374 35.6888 23.9627C35.9141 24.188 36.0407 24.4936 36.0407 24.8122V27.9188L36.8901 28.7683C37.0543 28.9377 37.1653 29.1515 37.2095 29.3832C37.2538 29.615 37.2292 29.8546 37.1389 30.0726C37.0486 30.2906 36.8966 30.4774 36.7014 30.61C36.5063 30.7426 36.2766 30.8153 36.0407 30.819Z" fill="#EEEEEE"/>
<path d="M14.4163 36.8258H1.20136C0.882739 36.8258 0.577168 36.6992 0.35187 36.4739C0.126571 36.2486 0 35.9431 0 35.6245C0 35.3058 0.126571 35.0003 0.35187 34.775C0.577168 34.5497 0.882739 34.4231 1.20136 34.4231H14.4163C14.7349 34.4231 15.0405 34.5497 15.2658 34.775C15.4911 35.0003 15.6177 35.3058 15.6177 35.6245C15.6177 35.9431 15.4911 36.2486 15.2658 36.4739C15.0405 36.6992 14.7349 36.8258 14.4163 36.8258Z" fill="#FFA000"/>
<path d="M19.2217 32.0204H3.60407C3.28545 32.0204 2.97988 31.8938 2.75458 31.6685C2.52928 31.4432 2.40271 31.1377 2.40271 30.819C2.40271 30.5004 2.52928 30.1948 2.75458 29.9695C2.97988 29.7442 3.28545 29.6177 3.60407 29.6177H19.2217C19.5404 29.6177 19.8459 29.7442 20.0712 29.9695C20.2965 30.1948 20.4231 30.5004 20.4231 30.819C20.4231 31.1377 20.2965 31.4432 20.0712 31.6685C19.8459 31.8938 19.5404 32.0204 19.2217 32.0204Z" fill="#FFA000"/>
<path d="M14.4163 22.4096H1.20136C0.882739 22.4096 0.577168 22.283 0.35187 22.0577C0.126571 21.8324 0 21.5268 0 21.2082C0 20.8896 0.126571 20.584 0.35187 20.3587C0.577168 20.1334 0.882739 20.0068 1.20136 20.0068H14.4163C14.7349 20.0068 15.0405 20.1334 15.2658 20.3587C15.4911 20.584 15.6177 20.8896 15.6177 21.2082C15.6177 21.5268 15.4911 21.8324 15.2658 22.0577C15.0405 22.283 14.7349 22.4096 14.4163 22.4096Z" fill="#FFA000"/>
<path d="M19.2217 27.215H3.60407C3.28545 27.215 2.97988 27.0884 2.75458 26.8631C2.52928 26.6378 2.40271 26.3322 2.40271 26.0136C2.40271 25.695 2.52928 25.3894 2.75458 25.1641C2.97988 24.9388 3.28545 24.8123 3.60407 24.8123H19.2217C19.5404 24.8123 19.8459 24.9388 20.0712 25.1641C20.2965 25.3894 20.4231 25.695 20.4231 26.0136C20.4231 26.3322 20.2965 26.6378 20.0712 26.8631C19.8459 27.0884 19.5404 27.215 19.2217 27.215Z" fill="#FFA000"/>
</svg>
