<svg width="54" height="60" viewBox="0 0 54 60" fill="none" xmlns="http://www.w3.org/2000/svg">
<path d="M28.7082 0C30.8658 0.675753 33.1449 1.10617 35.1592 2.07461C45.3871 6.97705 49.1466 19.6786 43.2816 29.2984C41.1892 32.7331 38.9708 36.0947 36.7481 39.5854C38.2806 39.9168 39.7783 40.0847 41.1631 40.5753C43.9285 41.5524 46.7286 42.5122 49.3203 43.8465C51.7644 45.1033 53.4357 47.1392 53.0624 50.1822C52.8497 51.9211 51.8382 53.2037 50.5184 54.2496C47.1193 56.9354 43.0472 58.0029 38.9014 58.8034C30.2146 60.4821 21.5191 60.4003 12.8758 58.5452C9.41148 57.8006 6.03402 56.7418 3.10804 54.6198C-0.990064 51.637 -1.05952 47.307 3.03858 44.3329C6.34659 41.9311 10.2276 40.8852 14.1695 40.0545C14.8901 39.9039 15.6107 39.7661 16.4486 39.594C14.4256 36.4519 12.5198 33.4046 10.5315 30.4089C2.44818 18.2626 9.43753 2.4792 23.9242 0.2066C24.1065 0.176471 24.2758 0.0688666 24.4538 0C25.869 0 27.2886 0 28.7082 0ZM26.5028 48.6844C26.7025 48.4993 26.8024 48.4347 26.8632 48.3486C31.4866 41.1435 36.1664 33.977 40.6682 26.703C41.5842 25.2267 42.1095 23.3759 42.3353 21.637C43.7331 10.9067 34.864 2.25968 24.0935 3.74032C14.304 5.07891 7.91377 15.8694 11.7297 24.9211C12.8975 27.6973 14.6861 30.2281 16.3097 32.7977C19.6437 38.0875 23.0559 43.3257 26.5028 48.6844ZM27.6055 56.4921C29.2204 56.3716 31.8208 56.2726 34.3952 55.967C38.7798 55.4505 43.1123 54.6327 46.989 52.373C50.4533 50.3501 50.4273 48.4562 46.9413 46.4548C43.4032 44.4232 39.4787 43.6442 35.4978 43.033C34.7859 42.9254 34.4473 43.0803 34.0783 43.6614C32.2419 46.571 30.3709 49.4548 28.4998 52.3472C27.2322 54.3099 25.9211 54.3185 24.6622 52.3687C22.7954 49.4806 20.9244 46.5925 19.0837 43.6872C18.7277 43.1277 18.4152 42.8651 17.6772 43.033C15.919 43.4376 14.113 43.6528 12.3635 44.0832C9.79785 44.7116 7.28429 45.5294 5.16578 47.1693C2.96044 48.8737 3.01254 50.5136 5.44361 51.9211C7.12366 52.8938 8.93395 53.7202 10.7833 54.3271C15.919 55.9971 21.2587 56.3759 27.6055 56.4921Z" fill="#E7E7E7"/>
<path d="M26.4553 28.2051C21.5193 28.0846 17.6122 24.086 17.7512 19.2955C17.8944 14.3931 21.9404 10.5365 26.7635 10.7001C31.6734 10.8679 35.5024 14.7804 35.4112 19.5451C35.32 24.4261 31.2871 28.3213 26.4553 28.2051ZM31.8644 19.4634C31.8731 16.5753 29.5679 14.251 26.6506 14.208C23.6943 14.1649 21.3023 16.4978 21.2936 19.4332C21.2849 22.3213 23.5901 24.6456 26.5074 24.6886C29.4637 24.736 31.8558 22.3988 31.8644 19.4634Z" fill="#E7E7E7"/>
</svg>
