<svg width="25" height="25" viewBox="0 0 25 25" fill="none" xmlns="http://www.w3.org/2000/svg">
<circle cx="12.5" cy="12.9355" r="12" fill="#0059B3"/>
<path d="M18.7039 19.1423L18.707 19.1418V14.5891C18.707 12.3618 18.2275 10.6461 15.6237 10.6461C14.372 10.6461 13.532 11.333 13.1891 11.9842H13.1529V10.8541H10.6841V19.1418H13.2548V15.038C13.2548 13.9575 13.4596 12.9127 14.7977 12.9127C16.1162 12.9127 16.1358 14.1458 16.1358 15.1073V19.1423H18.7039Z" fill="white"/>
<path d="M6.49804 10.8545H9.07183V19.1423H6.49804V10.8545Z" fill="white"/>
<path d="M7.7839 6.72852C6.96097 6.72852 6.29321 7.39627 6.29321 8.21921C6.29321 9.04214 6.96097 9.72386 7.7839 9.72386C8.60683 9.72386 9.27459 9.04214 9.27459 8.21921C9.27408 7.39627 8.60632 6.72852 7.7839 6.72852Z" fill="white"/>
</svg>
