<svg width="25" height="25" viewBox="0 0 25 25" fill="none" xmlns="http://www.w3.org/2000/svg">
<circle cx="12.7415" cy="12.9355" r="12" fill="url(#paint0_linear_12_763)"/>
<path d="M15.5881 6.72852H9.89496C8.04207 6.72852 6.53467 8.23591 6.53467 10.0888V15.7821C6.53467 17.6349 8.04207 19.1423 9.89496 19.1423H15.5882C17.441 19.1423 18.9484 17.6349 18.9484 15.7821V10.0888C18.9484 8.23591 17.441 6.72852 15.5881 6.72852ZM12.7416 16.3297C10.8699 16.3297 9.34726 14.807 9.34726 12.9354C9.34726 11.0638 10.8699 9.5411 12.7416 9.5411C14.6132 9.5411 16.1358 11.0638 16.1358 12.9354C16.1358 14.807 14.6132 16.3297 12.7416 16.3297ZM16.217 10.3416C15.6639 10.3416 15.214 9.89172 15.214 9.33862C15.214 8.78551 15.6639 8.33555 16.217 8.33555C16.7701 8.33555 17.2201 8.78551 17.2201 9.33862C17.2201 9.89172 16.7701 10.3416 16.217 10.3416Z" fill="white"/>
<path d="M12.7416 10.2689C11.2713 10.2689 10.075 11.465 10.075 12.9354C10.075 14.4057 11.2713 15.6019 12.7416 15.6019C14.2119 15.6019 15.4081 14.4057 15.4081 12.9354C15.4081 11.465 14.2119 10.2689 12.7416 10.2689Z" fill="white"/>
<path d="M16.217 9.06339C16.0653 9.06339 15.9418 9.18689 15.9418 9.33862C15.9418 9.49034 16.0653 9.61384 16.217 9.61384C16.3688 9.61384 16.4923 9.49044 16.4923 9.33862C16.4923 9.1868 16.3688 9.06339 16.217 9.06339Z" fill="white"/>
<defs>
<linearGradient id="paint0_linear_12_763" x1="3.22421" y1="7.57725" x2="22.2587" y2="22.8876" gradientUnits="userSpaceOnUse">
<stop stop-color="#7A0BE8"/>
<stop offset="0.438938" stop-color="#FC00C9"/>
<stop offset="1" stop-color="#FE0B11"/>
</linearGradient>
</defs>
</svg>
