<svg width="25" height="25" viewBox="0 0 25 25" fill="none" xmlns="http://www.w3.org/2000/svg">
<circle cx="12.9827" cy="12.9355" r="12" fill="#FF0000"/>
<path d="M18.9339 9.74382C18.7909 9.21201 18.3716 8.79278 17.8398 8.64958C16.8684 8.38379 12.9826 8.38379 12.9826 8.38379C12.9826 8.38379 9.09703 8.38379 8.12561 8.63951C7.6041 8.78256 7.17457 9.21208 7.03152 9.74382C6.77588 10.7152 6.77588 12.7296 6.77588 12.7296C6.77588 12.7296 6.77588 14.7542 7.03152 15.7154C7.17472 16.2471 7.59387 16.6664 8.12568 16.8096C9.10726 17.0754 12.9828 17.0754 12.9828 17.0754C12.9828 17.0754 16.8684 17.0754 17.8398 16.8197C18.3716 16.6766 18.7909 16.2574 18.9341 15.7256C19.1896 14.7542 19.1896 12.7398 19.1896 12.7398C19.1896 12.7398 19.1998 10.7152 18.9339 9.74382ZM11.7455 14.5906V10.8686L14.9767 12.7296L11.7455 14.5906Z" fill="white"/>
</svg>
