<svg width="72" height="72" viewBox="0 0 72 72" fill="none" xmlns="http://www.w3.org/2000/svg">
<path d="M36.0001 69C53.4424 69 67.5822 54.8603 67.5822 37.418C67.5822 19.9757 53.4424 5.83594 36.0001 5.83594C18.5579 5.83594 4.41809 19.9757 4.41809 37.418C4.41809 54.8603 18.5579 69 36.0001 69Z" fill="#FFCA45"/>
<path d="M62.939 53.9089C52.5175 70.9022 28.2662 73.9742 13.9662 60.0435C10.3364 45.7022 6.70662 31.361 3.07623 17.0198C2.70885 15.5657 3.70271 14.0614 5.29599 13.6579C19.2001 10.1382 33.1046 6.61962 47.0088 3.10048C48.6033 2.69701 50.1928 3.54779 50.5614 5.00185C54.6866 21.3044 58.8131 37.6065 62.939 53.9089Z" fill="#EAF2FF"/>
<path d="M43.5244 15.3714L14.1991 22.7935C13.6816 22.9245 13.1556 22.6111 13.0247 22.0934C12.8937 21.5758 13.2071 21.0499 13.7248 20.919L43.05 13.4968C43.5676 13.3658 44.0935 13.6792 44.2245 14.1969C44.3555 14.7146 44.042 15.2404 43.5244 15.3714Z" fill="#76BEFF"/>
<path d="M45.327 22.4947L16.0017 29.9168C15.4842 30.0478 14.9582 29.7344 14.8273 29.2167C14.6963 28.699 15.0097 28.1732 15.5273 28.0423L44.8526 20.6201C45.3702 20.4891 45.8961 20.8025 46.0271 21.3202C46.1581 21.8379 45.8446 22.3637 45.327 22.4947Z" fill="#76BEFF"/>
<path d="M47.2168 29.9615L17.8915 37.3836C17.3739 37.5146 16.848 37.2012 16.717 36.6835C16.5861 36.1658 16.8994 35.64 17.4171 35.5091L46.7424 28.0869C47.2601 27.9559 47.7859 28.2693 47.9169 28.787C48.0478 29.3047 47.7343 29.8304 47.2168 29.9615Z" fill="#76BEFF"/>
<path d="M48.7906 36.1782L19.4653 43.6004C18.9478 43.7314 18.4218 43.418 18.2908 42.9003C18.1599 42.3826 18.4733 41.8568 18.9909 41.7259L48.3162 34.3037C48.8338 34.1727 49.3597 34.4861 49.4907 35.0038C49.6216 35.5215 49.3083 36.0473 48.7906 36.1782Z" fill="#76BEFF"/>
<path d="M34.3391 54.8616C35.5336 59.5815 32.6655 64.3937 27.9454 65.5882C23.2255 66.7828 18.4133 63.9146 17.2188 59.1946C16.0242 54.4746 18.8925 49.6625 23.6124 48.4679C28.3323 47.2734 33.1445 50.1415 34.3391 54.8616Z" fill="#36B990"/>
<path d="M25.2455 61.7507C25.0056 61.8114 24.7426 61.7806 24.5133 61.644L20.1287 59.0306C19.67 58.7571 19.5198 58.1638 19.7931 57.705C20.0665 57.2465 20.66 57.0963 21.1185 57.3696L24.6727 59.4882L29.218 51.8625C29.4914 51.4039 30.0849 51.2538 30.5434 51.527C31.002 51.8005 31.1522 52.3938 30.8789 52.8526L25.8387 61.3087C25.7021 61.5378 25.4854 61.69 25.2455 61.7507Z" fill="white"/>
<path d="M51.3364 46.2381L37.9651 49.6224C37.4474 49.7533 36.9216 49.44 36.7907 48.9223C36.6597 48.4046 36.9731 47.8788 37.4908 47.7478L50.8621 44.3635C51.3796 44.2325 51.9056 44.5459 52.0365 45.0636C52.1675 45.5813 51.854 46.1071 51.3364 46.2381Z" fill="#76BEFF"/>
<path d="M52.8335 52.1532L39.4621 55.5374C38.9446 55.6684 38.4186 55.355 38.2877 54.8373C38.1567 54.3196 38.4701 53.7938 38.9878 53.6629L52.3591 50.2785C52.8766 50.1476 53.4026 50.461 53.5335 50.9786C53.6645 51.4965 53.351 52.0221 52.8335 52.1532Z" fill="#76BEFF"/>
<path d="M67.1503 13.7582C66.2297 14.6789 65.0957 15.255 63.9081 15.4892C61.7478 15.9121 59.7424 16.8838 58.0234 18.2438L53.7256 13.9461C53.9143 13.7063 54.0939 13.4611 54.2661 13.2105C55.3435 11.6555 56.1173 9.90266 56.493 8.03584C56.7327 6.84823 57.316 5.71604 58.2439 4.79913C60.7397 2.33264 64.8897 2.41372 67.2906 4.97135C67.7043 5.41247 68.0426 5.89832 68.3068 6.4124C69.5239 8.78698 69.1383 11.7703 67.1503 13.7582Z" fill="#A54B0E"/>
<path d="M66.5351 11.8668C64.937 13.4649 62.8475 13.5168 60.8628 14.3256C59.2244 14.9932 57.4923 16.4365 55.8787 14.8229L54.2662 13.2104C55.3432 11.6558 56.1196 9.89196 56.493 8.03571C56.8723 6.15664 58.1242 4.50973 59.8432 3.65805C62.8989 2.14417 66.7429 3.37046 68.307 6.41226C68.6105 8.34018 68.0198 10.3819 66.5351 11.8668Z" fill="#BF6015"/>
<path d="M58.6349 21.909L58.6257 21.9182L50.0576 13.35L50.0667 13.3409C50.3001 13.1075 50.5745 12.9389 50.8652 12.8359C51.0994 12.7511 51.3474 12.7092 51.5935 12.7092C52.1459 12.7092 52.6982 12.9188 53.1203 13.3409L58.6349 18.8555C59.2446 19.4652 59.4143 20.3494 59.1407 21.1115C59.0368 21.4013 58.8682 21.6757 58.6349 21.909Z" fill="#6D2929"/>
<path d="M59.1408 21.1115L50.8653 12.8359C51.0995 12.7511 51.3475 12.7092 51.5936 12.7092C52.1459 12.7092 52.6983 12.9188 53.1203 13.3409L58.635 18.8555C59.2447 19.4652 59.4142 20.3494 59.1408 21.1115Z" fill="#844242"/>
<path d="M56.6067 28.2211L55.9003 28.9275C55.7481 29.0798 55.5759 29.1991 55.3916 29.2848C54.7235 29.5994 53.9014 29.4808 53.3481 28.9275L43.0481 18.6275C42.4948 18.0743 42.3764 17.2521 42.6908 16.584C42.7765 16.3999 42.8959 16.2275 43.0481 16.0753L43.7545 15.3689L56.6067 28.2211Z" fill="#4D5961"/>
<path d="M56.6067 28.2211L55.9003 28.9275C55.7481 29.0798 55.5759 29.1991 55.3917 29.2848L42.6908 16.584C42.7765 16.3999 42.8959 16.2275 43.0481 16.0753L43.7545 15.3689L56.6067 28.2211Z" fill="#454545"/>
<path d="M59.2 29.7298C58.686 30.1564 58.1701 30.1564 57.656 29.7298L42.246 14.3199C41.6982 13.772 41.8522 13.2224 42.2734 12.7521C42.8148 12.1505 43.7974 11.6801 44.3124 11.5171C46.1181 10.9437 48.1435 11.436 49.4834 12.7758L59.2 22.4925C59.6075 22.9 59.932 23.3594 60.1726 23.8498C61.1142 25.7611 60.7906 28.1393 59.2 29.7298Z" fill="#D88521"/>
<path d="M58.6762 27.6106C58.1621 28.0372 57.6462 28.0372 57.1321 27.6106L42.2736 12.7521C42.815 12.1505 43.7977 11.6801 44.3127 11.5171C46.1184 10.9437 48.1438 11.436 49.4836 12.7758L59.2003 22.4925C59.6078 22.9 59.9322 23.3594 60.1729 23.8498C60.2103 25.2069 59.7117 26.5751 58.6762 27.6106Z" fill="#FEA832"/>
</svg>
