<svg width="408" height="457" viewBox="0 0 408 457" fill="none" xmlns="http://www.w3.org/2000/svg">
<g clip-path="url(#clip0_32_1428)">
<path fill-rule="evenodd" clip-rule="evenodd" d="M223.591 374.477C243.375 322.861 353.449 336.626 331.944 388.242C398.545 357.268 393.238 421.798 342.261 432.98C278.629 446.745 81.6953 445.884 55.0374 432.98C27.5188 410.617 64.4935 368.461 137.593 389.964C117.82 289.305 201.237 324.572 223.591 374.477Z" fill="#E8F2FF"/>
<path fill-rule="evenodd" clip-rule="evenodd" d="M94.3843 117.713H162.772C163.269 87.7442 176.256 73.2618 200.707 73.2618C222.676 73.2618 235.651 82.7548 235.651 103.728C235.651 151.667 174.248 156.171 174.248 233.075H240.639C240.639 174.649 317.512 164.66 317.512 89.2454C317.512 33.3139 276.08 1.84351 209.181 1.84351C137.814 1.84351 94.8808 44.2971 94.3843 117.713ZM206.202 271.025C181.243 271.025 163.765 288.51 163.765 313.976C163.765 339.441 181.232 357.423 206.202 357.423C231.161 357.423 249.135 339.441 249.135 313.976C249.135 288.51 231.161 271.025 206.202 271.025Z" fill="#C5DCFA"/>
<path fill-rule="evenodd" clip-rule="evenodd" d="M314.124 416.908C318.152 406.863 314.19 373.395 304.138 374.819C290.655 376.729 299.173 411.389 314.124 416.908Z" fill="#C9DAF0"/>
<path fill-rule="evenodd" clip-rule="evenodd" d="M316.386 417.582C321.991 408.32 351.143 404.457 356.042 413.354C362.618 425.298 329.781 426.225 316.386 417.582Z" fill="#C9DAF0"/>
<path fill-rule="evenodd" clip-rule="evenodd" d="M332.33 386.763C339.833 382.513 348.429 358.471 340.727 355.977C331.525 352.996 325.765 375.879 332.33 386.763Z" fill="#C9DAF0"/>
<path fill-rule="evenodd" clip-rule="evenodd" d="M333.731 388.032C339.414 381.542 365.697 378.749 365.531 386.851C365.366 394.71 340.716 394.434 333.731 388.032Z" fill="#C9DAF0"/>
<path fill-rule="evenodd" clip-rule="evenodd" d="M320.48 400.77C327.321 394.28 331.216 367.081 323.768 365.127C313.716 362.5 310.638 390.968 320.48 400.77Z" fill="#C9DAF0"/>
<path fill-rule="evenodd" clip-rule="evenodd" d="M322.389 401.576C329.616 393.628 358.79 390.394 358.425 397.845C357.852 409.424 331.359 407.614 322.389 401.576Z" fill="#C9DAF0"/>
<path fill-rule="evenodd" clip-rule="evenodd" d="M394.97 330.092C396.548 325.798 392.553 312.784 388.559 314.384C383.208 316.526 388.581 327.939 394.97 330.092Z" fill="#C9DAF0"/>
<path fill-rule="evenodd" clip-rule="evenodd" d="M395.963 330.191C396.305 325.621 403.334 317.265 406.412 320.312C410.517 324.352 402.672 330.887 395.963 330.191Z" fill="#C9DAF0"/>
<path fill-rule="evenodd" clip-rule="evenodd" d="M388.272 343.691C391.185 339.231 388.658 323.568 383.803 324.749C377.304 326.317 381.586 339.585 388.272 343.691Z" fill="#C9DAF0"/>
<path fill-rule="evenodd" clip-rule="evenodd" d="M389.375 344.055C390.953 338.966 403.389 329.496 406.092 334.308C409.38 340.148 396.801 346.583 389.375 344.055Z" fill="#C9DAF0"/>
<path fill-rule="evenodd" clip-rule="evenodd" d="M378.695 354.619C382.843 350.557 381.332 331.725 375.958 332.542C368.841 333.635 372.538 348.68 378.695 354.619Z" fill="#C9DAF0"/>
<path fill-rule="evenodd" clip-rule="evenodd" d="M379.787 355.27C382.656 350.226 396.945 343.779 399.041 349.022C401.756 355.8 387.081 359.708 379.787 355.27Z" fill="#C9DAF0"/>
<path fill-rule="evenodd" clip-rule="evenodd" d="M364.318 365.172C370.177 361.364 374.59 341.506 368.268 339.75C360.279 337.532 358.47 356.694 364.318 365.172Z" fill="#C9DAF0"/>
<path fill-rule="evenodd" clip-rule="evenodd" d="M365.454 366.198C370.055 360.922 387.787 355.325 389.398 361.308C391.682 369.808 373.023 373.186 365.454 366.198Z" fill="#C9DAF0"/>
<path fill-rule="evenodd" clip-rule="evenodd" d="M348.341 374.632C355.237 370.879 362.243 351.418 355.998 347.51C348.098 342.565 342.537 364.631 348.341 374.632Z" fill="#C9DAF0"/>
<path fill-rule="evenodd" clip-rule="evenodd" d="M349.521 375.879C355.126 370.382 377.867 369.642 376.642 376C375.208 383.529 357.388 384.379 349.521 375.879Z" fill="#C9DAF0"/>
<path fill-rule="evenodd" clip-rule="evenodd" d="M313.043 438.621C313.087 443.18 319.376 442.628 318.372 437.859C310.086 364.874 390.766 385.747 398.82 317.276C399.151 314.494 396.669 314.251 396.338 317.044C388.581 382.899 304.348 362.081 313.043 438.621Z" fill="#C9DAF0"/>
<path fill-rule="evenodd" clip-rule="evenodd" d="M397.232 320.29C404.47 315.819 404.018 304.339 399.781 303.644C394.683 302.805 392.675 315.62 397.232 320.29Z" fill="#C9DAF0"/>
<path fill-rule="evenodd" clip-rule="evenodd" d="M280.03 425.187C279.953 426.236 281.332 426.004 283.108 424.657C284.885 423.311 286.385 421.368 286.463 420.319C287.268 409.524 299.472 376.111 319.244 340.876C332.651 317 349.444 292.44 368.323 273.95C370 272.306 370.883 270.595 370.287 270.12C369.692 269.645 367.849 270.595 366.172 272.239C345.616 292.362 327.707 318.435 313.628 343.514C293.37 379.599 280.857 413.994 280.03 425.187Z" fill="#B8CCE6"/>
<path fill-rule="evenodd" clip-rule="evenodd" d="M308.95 366.552C317.766 368.671 349.554 364.476 350.426 353.195C351.496 339.287 313.882 360.249 308.95 362.545C303.289 365.172 304.006 365.359 308.95 366.552Z" fill="#B8CCE6"/>
<path fill-rule="evenodd" clip-rule="evenodd" d="M319.123 345.148C326.538 346.925 353.295 343.404 354.023 333.9C354.928 322.199 323.261 339.838 319.112 341.77C314.356 343.978 314.963 344.143 319.123 345.148Z" fill="#B8CCE6"/>
<path fill-rule="evenodd" clip-rule="evenodd" d="M329.66 326.637C336.203 328.204 359.816 325.091 360.467 316.713C361.261 306.381 333.323 321.945 329.66 323.656C325.445 325.61 325.986 325.754 329.66 326.637Z" fill="#B8CCE6"/>
<path fill-rule="evenodd" clip-rule="evenodd" d="M341.411 310.995C346.509 312.22 364.88 309.792 365.377 303.279C365.995 295.243 344.258 307.353 341.4 308.677C338.134 310.2 338.553 310.311 341.411 310.995Z" fill="#B8CCE6"/>
<path fill-rule="evenodd" clip-rule="evenodd" d="M352.776 296.049C357.002 297.065 372.229 295.056 372.637 289.647C373.156 282.98 355.127 293.025 352.765 294.128C350.073 295.387 350.415 295.475 352.776 296.049Z" fill="#B8CCE6"/>
<path fill-rule="evenodd" clip-rule="evenodd" d="M362.078 282.792C365.134 283.532 376.168 282.075 376.477 278.156C376.852 273.332 363.788 280.607 362.078 281.401C360.114 282.306 360.357 282.384 362.078 282.792Z" fill="#B8CCE6"/>
<path fill-rule="evenodd" clip-rule="evenodd" d="M368.18 272.88C371.677 271.456 381.95 262.824 380.03 259.28C377.669 254.92 368.654 269.866 367.385 271.687C365.929 273.785 366.227 273.674 368.18 272.88Z" fill="#B8CCE6"/>
<path fill-rule="evenodd" clip-rule="evenodd" d="M300.74 361.573C294.881 354.542 284.068 323.778 293.524 317.839C305.176 310.532 304.006 354.221 304.249 359.752C304.525 366.088 304.029 365.525 300.74 361.573Z" fill="#B8CCE6"/>
<path fill-rule="evenodd" clip-rule="evenodd" d="M312.171 340.777C307.427 334.673 299.107 308.39 307.173 303.644C317.115 297.804 315.084 334.662 315.15 339.342C315.239 344.695 314.831 344.21 312.171 340.777Z" fill="#B8CCE6"/>
<path fill-rule="evenodd" clip-rule="evenodd" d="M323.812 321.382C320.105 315.576 314.654 291.546 321.992 287.98C331.04 283.587 326.758 316.194 326.505 320.345C326.207 325.102 325.887 324.639 323.812 321.382Z" fill="#B8CCE6"/>
<path fill-rule="evenodd" clip-rule="evenodd" d="M335.453 306.801C332.65 302.209 328.744 283.388 334.493 280.728C341.577 277.449 337.814 302.805 337.56 306.039C337.262 309.748 337.02 309.384 335.453 306.801Z" fill="#B8CCE6"/>
<path fill-rule="evenodd" clip-rule="evenodd" d="M347.734 291.744C345.34 288.002 341.809 272.504 346.542 270.208C352.379 267.371 349.632 288.4 349.466 291.082C349.279 294.14 349.08 293.842 347.734 291.744Z" fill="#B8CCE6"/>
<path fill-rule="evenodd" clip-rule="evenodd" d="M358.371 278.829C356.76 276.015 354.663 264.612 358.15 263.111C362.431 261.245 359.838 276.456 359.651 278.41C359.408 280.64 359.275 280.408 358.371 278.829Z" fill="#B8CCE6"/>
<path fill-rule="evenodd" clip-rule="evenodd" d="M298.854 392.392C308.122 393.938 340.86 387.414 341.091 375.835C341.378 361.551 303.587 385.604 298.6 388.297C292.895 391.377 293.657 391.531 298.854 392.392Z" fill="#B8CCE6"/>
<path fill-rule="evenodd" clip-rule="evenodd" d="M288.603 387.756C282.667 381.564 270.739 353.559 279.39 347.422C290.038 339.861 291.307 380.692 291.836 385.824C292.432 391.719 291.935 391.233 288.603 387.756Z" fill="#B8CCE6"/>
<path fill-rule="evenodd" clip-rule="evenodd" d="M289.309 412.703C297.519 415.374 327.851 413.608 329.362 402.812C331.216 389.5 294.352 406.985 289.541 408.839C284.035 410.97 284.708 411.202 289.309 412.703Z" fill="#B8CCE6"/>
<path fill-rule="evenodd" clip-rule="evenodd" d="M282.258 409.943C274.833 404.822 257.2 378.594 265.399 370.536C275.495 360.613 283.925 402.161 285.381 407.316C287.047 413.222 286.429 412.813 282.258 409.943Z" fill="#B8CCE6"/>
<path fill-rule="evenodd" clip-rule="evenodd" d="M133.83 393.883C129.648 383.904 133.102 350.369 143.176 351.65C156.692 353.35 148.704 388.132 133.83 393.883Z" fill="#B8CCE6"/>
<path fill-rule="evenodd" clip-rule="evenodd" d="M131.579 394.6C125.842 385.427 96.6348 382.005 91.8682 390.979C85.4685 403 118.316 403.442 131.579 394.6Z" fill="#B8CCE6"/>
<path fill-rule="evenodd" clip-rule="evenodd" d="M115.172 364.024C107.603 359.884 98.6433 335.986 106.301 333.37C115.459 330.246 121.572 353.04 115.172 364.024Z" fill="#B8CCE6"/>
<path fill-rule="evenodd" clip-rule="evenodd" d="M113.792 365.304C108.011 358.902 81.6836 356.507 81.9815 364.598C82.2574 372.468 106.907 371.817 113.792 365.304Z" fill="#B8CCE6"/>
<path fill-rule="evenodd" clip-rule="evenodd" d="M127.221 377.855C120.28 371.464 115.977 344.331 123.392 342.267C133.411 339.485 136.92 367.898 127.221 377.855Z" fill="#B8CCE6"/>
<path fill-rule="evenodd" clip-rule="evenodd" d="M125.334 378.683C117.985 370.845 88.7676 368.053 89.242 375.504C89.9923 387.061 116.452 384.853 125.334 378.683Z" fill="#B8CCE6"/>
<path fill-rule="evenodd" clip-rule="evenodd" d="M51.6825 308.302C50.0385 304.03 53.8341 290.961 57.8505 292.495C63.235 294.559 58.0381 306.061 51.6825 308.302Z" fill="#B8CCE6"/>
<path fill-rule="evenodd" clip-rule="evenodd" d="M50.6898 308.412C50.2705 303.853 43.1205 295.597 40.0862 298.687C36.0478 302.805 43.9922 309.218 50.6898 308.412Z" fill="#B8CCE6"/>
<path fill-rule="evenodd" clip-rule="evenodd" d="M58.5788 321.802C55.5996 317.387 57.8947 301.69 62.7607 302.794C69.2927 304.262 65.2102 317.596 58.5788 321.802Z" fill="#B8CCE6"/>
<path fill-rule="evenodd" clip-rule="evenodd" d="M57.4861 322.177C55.831 317.111 43.2524 307.838 40.6263 312.684C37.4154 318.579 50.0934 324.826 57.4861 322.177Z" fill="#B8CCE6"/>
<path fill-rule="evenodd" clip-rule="evenodd" d="M68.3219 332.586C64.1179 328.59 65.3317 309.737 70.7273 310.476C77.8552 311.448 74.3905 326.559 68.3219 332.586Z" fill="#B8CCE6"/>
<path fill-rule="evenodd" clip-rule="evenodd" d="M67.2516 333.249C64.3055 328.248 49.9284 322.012 47.8981 327.299C45.2831 334.11 60.0134 337.797 67.2516 333.249Z" fill="#B8CCE6"/>
<path fill-rule="evenodd" clip-rule="evenodd" d="M82.8643 342.907C76.9391 339.187 72.2387 319.396 78.528 317.552C86.4834 315.223 88.5799 334.341 82.8643 342.907Z" fill="#B8CCE6"/>
<path fill-rule="evenodd" clip-rule="evenodd" d="M81.7388 343.956C77.0604 338.757 59.2406 333.414 57.718 339.43C55.5664 347.963 74.2799 351.065 81.7388 343.956Z" fill="#B8CCE6"/>
<path fill-rule="evenodd" clip-rule="evenodd" d="M98.9739 352.136C92.0225 348.493 84.7181 329.132 90.9081 325.136C98.7422 320.069 104.634 342.046 98.9739 352.136Z" fill="#B8CCE6"/>
<path fill-rule="evenodd" clip-rule="evenodd" d="M97.8156 353.405C92.1221 347.996 69.3812 347.599 70.6943 353.946C72.2501 361.43 90.0809 362.015 97.8156 353.405Z" fill="#B8CCE6"/>
<path fill-rule="evenodd" clip-rule="evenodd" d="M135.243 415.584C135.265 420.143 128.964 419.679 129.902 414.9C137.074 341.792 56.7253 363.891 47.6334 295.553C47.2582 292.771 49.7298 292.495 50.105 295.277C58.8659 361.01 142.768 338.911 135.243 415.584Z" fill="#B8CCE6"/>
<path fill-rule="evenodd" clip-rule="evenodd" d="M49.2772 298.544C41.9727 294.184 42.2596 282.704 46.4856 281.942C51.5612 281.015 53.7569 293.797 49.2772 298.544Z" fill="#B8CCE6"/>
<path fill-rule="evenodd" clip-rule="evenodd" d="M135.519 432.473C136.479 432.76 136.534 431.424 135.64 429.503C134.746 427.583 133.235 425.795 132.275 425.508C122.377 422.593 93.7002 404.535 64.8355 379.036C45.2834 361.761 25.7644 341.185 12.3251 319.881C11.1334 317.994 9.71007 316.824 9.14734 317.287C8.58461 317.751 9.1032 319.649 10.2949 321.548C24.9258 344.74 45.6144 366.651 66.1706 384.798C95.7304 410.904 125.257 429.448 135.519 432.473Z" fill="#C9DAF0"/>
<path fill-rule="evenodd" clip-rule="evenodd" d="M86.6931 393.761C90.4226 385.968 92.8942 355.491 82.5554 352.422C69.8112 348.636 81.8051 387.911 82.9526 392.966C84.2767 398.762 84.5967 398.132 86.6931 393.761Z" fill="#C9DAF0"/>
<path fill-rule="evenodd" clip-rule="evenodd" d="M68.7961 379.996C71.9408 373.44 74.0151 347.797 65.3094 345.203C54.5844 342.013 64.6804 375.062 65.6514 379.323C66.7548 384.202 67.0307 383.683 68.7961 379.996Z" fill="#C9DAF0"/>
<path fill-rule="evenodd" clip-rule="evenodd" d="M53.6582 366.474C56.4277 360.69 58.2593 338.05 50.5797 335.776C41.1127 332.962 50.0281 362.125 50.8777 365.889C51.8597 370.183 52.1024 369.719 53.6582 366.474Z" fill="#C9DAF0"/>
<path fill-rule="evenodd" clip-rule="evenodd" d="M41.4432 352.389C43.6059 347.886 45.0292 330.279 39.0488 328.502C31.6892 326.317 38.6185 349.012 39.2806 351.926C40.0419 355.27 40.2405 354.917 41.4432 352.389Z" fill="#C9DAF0"/>
<path fill-rule="evenodd" clip-rule="evenodd" d="M29.8025 338.79C31.59 335.059 32.7706 320.455 27.8164 318.987C21.7146 317.177 27.4523 335.986 28.004 338.404C28.6439 341.185 28.7984 340.887 29.8025 338.79Z" fill="#C9DAF0"/>
<path fill-rule="evenodd" clip-rule="evenodd" d="M19.3093 327.476C20.6003 324.771 21.4609 314.197 17.8749 313.126C13.4503 311.812 17.6101 325.445 18.0184 327.2C18.4707 329.209 18.5811 328.988 19.3093 327.476Z" fill="#C9DAF0"/>
<path fill-rule="evenodd" clip-rule="evenodd" d="M11.2988 319.793C10.6698 316.25 4.68945 304.935 1.00413 306.017C-3.53081 307.342 8.58442 318.744 10.0299 320.29C11.696 322.067 11.6518 321.78 11.2988 319.793Z" fill="#C9DAF0"/>
<path fill-rule="evenodd" clip-rule="evenodd" d="M80.4152 400.417C72.6915 404.468 41.8628 408.398 38.2326 398.386C33.7639 386.056 74.2252 395.903 79.4112 396.775C85.3805 397.801 84.7516 398.143 80.4152 400.417Z" fill="#C9DAF0"/>
<path fill-rule="evenodd" clip-rule="evenodd" d="M63.3346 385.604C56.6922 388.805 30.5418 391.299 27.7502 382.833C24.2966 372.391 58.2259 381.663 62.5953 382.535C67.5937 383.528 67.0641 383.804 63.3346 385.604Z" fill="#C9DAF0"/>
<path fill-rule="evenodd" clip-rule="evenodd" d="M47.5893 370.868C41.4324 373.164 17.9633 373.44 16.1096 365.878C13.8366 356.562 43.3413 367.081 47.159 368.152C51.5505 369.377 51.0429 369.576 47.5893 370.868Z" fill="#C9DAF0"/>
<path fill-rule="evenodd" clip-rule="evenodd" d="M36.3567 357.092C31.5238 358.781 13.2075 358.659 11.8724 352.765C10.2394 345.501 33.1017 354.089 36.0588 354.972C39.4572 355.999 39.06 356.142 36.3567 357.092Z" fill="#C9DAF0"/>
<path fill-rule="evenodd" clip-rule="evenodd" d="M24.7825 342.631C20.8103 344.11 5.67181 344.309 4.48015 339.43C3.00161 333.425 22.0461 340.192 24.5067 340.876C27.3314 341.671 27.0114 341.803 24.7825 342.631Z" fill="#C9DAF0"/>
<path fill-rule="evenodd" clip-rule="evenodd" d="M14.8848 330.136C11.9498 331.074 0.904841 330.743 0.19867 327.2C-0.684042 322.828 12.9759 328.292 14.7414 328.866C16.7716 329.529 16.5289 329.606 14.8848 330.136Z" fill="#C9DAF0"/>
<path fill-rule="evenodd" clip-rule="evenodd" d="M108.75 408.354C112.038 400.02 112.524 368.196 101.777 365.657C88.536 362.533 103.366 402.581 104.877 407.758C106.61 413.696 106.896 413.023 108.75 408.354Z" fill="#C9DAF0"/>
<path fill-rule="evenodd" clip-rule="evenodd" d="M102.373 416.975C95.4215 421.269 66.954 426.777 62.9597 417.494C58.0496 406.047 96.3373 413.045 101.225 413.586C106.831 414.204 106.279 414.568 102.373 416.975Z" fill="#C9DAF0"/>
<path fill-rule="evenodd" clip-rule="evenodd" d="M125.753 421.313C129.88 414.193 134.316 385.559 124.562 381.994C112.535 377.601 121.439 415.473 122.211 420.319C123.083 425.883 123.436 425.309 125.753 421.313Z" fill="#C9DAF0"/>
<path fill-rule="evenodd" clip-rule="evenodd" d="M121.77 427.329C115.514 433.234 87.5538 444.405 81.6838 435.155C74.4566 423.752 114.852 424.216 119.938 423.885C125.786 423.521 125.279 424.017 121.77 427.329Z" fill="#C9DAF0"/>
<path d="M205.959 456.989C296.434 456.989 369.779 447.579 369.779 435.972C369.779 424.364 296.434 414.955 205.959 414.955C115.483 414.955 42.1382 424.364 42.1382 435.972C42.1382 447.579 115.483 456.989 205.959 456.989Z" fill="#C9DAF0"/>
<path fill-rule="evenodd" clip-rule="evenodd" d="M262.751 116.3C262.022 120.605 256.704 126.621 256.34 130.518C255.126 143.322 265.663 155.222 282.876 153.919C307.184 152.065 316.927 152.208 319.63 137.516C321.815 125.639 315.835 122.979 315.537 114.954C315.36 110.329 316.221 107.006 313.429 100.946C305.375 83.4501 280.129 83.0969 273.586 91.0776C271.865 93.1749 266.921 93.0645 263.832 99.511C261.195 104.997 263.865 109.699 262.751 116.3Z" fill="#082B56"/>
<path fill-rule="evenodd" clip-rule="evenodd" d="M285.955 234.389C279.588 240.769 265.399 242.557 258.127 241.222C259.805 221.993 262.188 213.957 285.955 234.389Z" fill="white"/>
<path fill-rule="evenodd" clip-rule="evenodd" d="M281.078 431.899C273.961 436.524 255.6 438.897 246.729 437.175C241.764 436.215 241.433 429.04 247.943 426.28C259.197 421.523 269.691 418.189 281.651 415.595C282.7 421.346 284.233 429.846 281.078 431.899Z" fill="#184F96"/>
<path fill-rule="evenodd" clip-rule="evenodd" d="M269.404 418.575C250.999 423.653 281.21 430.055 282.048 419.061C280.945 365.128 284.807 367.556 282.655 327.917C281.74 311.04 259.23 312.11 259.87 330.401C261.128 366.618 272.791 399.137 269.404 418.575Z" fill="#BA8B80"/>
<path fill-rule="evenodd" clip-rule="evenodd" d="M315.128 439.482C310.306 443.875 290.125 447.485 281.177 446.171C276.167 445.432 275.881 438.411 282.269 435.354C293.292 430.077 303.245 426.159 315.073 423.013C316.386 428.72 317.909 436.943 315.128 439.482Z" fill="#184F96"/>
<path fill-rule="evenodd" clip-rule="evenodd" d="M315.592 425.099C313.584 387.16 316.409 364.962 314.599 335.456C313.562 318.546 289.629 319.274 291.108 337.543C293.668 369.245 303.002 406.731 303.289 426.446C285.922 432.451 312.856 436.822 315.592 425.099Z" fill="#BA8B80"/>
<path fill-rule="evenodd" clip-rule="evenodd" d="M325.191 341.55C322.168 305.068 328.799 257.581 310.307 229.256C292.994 221.86 271.28 224.167 261.448 224.046C248.782 259.601 254.563 310.278 252.114 343.106C262.144 345.016 313.231 353.747 325.191 341.55Z" fill="#E12126"/>
<mask id="mask0_32_1428" style="mask-type:alpha" maskUnits="userSpaceOnUse" x="251" y="223" width="74" height="125">
<path d="M324.718 340.779C321.695 304.297 328.326 256.81 309.833 228.485C292.521 221.089 270.807 223.396 260.975 223.275C248.308 258.83 254.09 309.507 251.641 342.335C261.67 344.245 312.757 352.976 324.718 340.779Z" fill="white"/>
</mask>
<g mask="url(#mask0_32_1428)">
<g opacity="0.5">
<path opacity="0.4" fill-rule="evenodd" clip-rule="evenodd" d="M261.497 339.045C262.777 339.045 263.814 340.083 263.814 341.363C263.814 342.644 262.777 343.682 261.497 343.682C260.217 343.682 259.18 342.644 259.18 341.363C259.18 340.083 260.217 339.045 261.497 339.045Z" fill="white"/>
<path opacity="0.4" fill-rule="evenodd" clip-rule="evenodd" d="M275.113 339.045C276.393 339.045 277.43 340.083 277.43 341.363C277.43 342.644 276.393 343.682 275.113 343.682C273.833 343.682 272.796 342.644 272.796 341.363C272.796 340.083 273.833 339.045 275.113 339.045Z" fill="white"/>
<path opacity="0.4" fill-rule="evenodd" clip-rule="evenodd" d="M288.718 339.045C289.998 339.045 291.035 340.083 291.035 341.363C291.035 342.644 289.998 343.682 288.718 343.682C287.438 343.682 286.401 342.644 286.401 341.363C286.401 340.083 287.438 339.045 288.718 339.045Z" fill="white"/>
<path opacity="0.4" fill-rule="evenodd" clip-rule="evenodd" d="M302.322 339.045C303.602 339.045 304.64 340.083 304.64 341.363C304.64 342.644 303.602 343.682 302.322 343.682C301.043 343.682 300.005 342.644 300.005 341.363C300.005 340.083 301.043 339.045 302.322 339.045Z" fill="white"/>
<path opacity="0.4" fill-rule="evenodd" clip-rule="evenodd" d="M315.939 339.045C317.219 339.045 318.256 340.083 318.256 341.363C318.256 342.644 317.219 343.682 315.939 343.682C314.659 343.682 313.622 342.644 313.622 341.363C313.622 340.083 314.659 339.045 315.939 339.045Z" fill="white"/>
<path opacity="0.4" fill-rule="evenodd" clip-rule="evenodd" d="M268.305 329.144C269.585 329.144 270.623 330.182 270.623 331.462C270.623 332.743 269.585 333.78 268.305 333.78C267.025 333.78 265.988 332.743 265.988 331.462C265.988 330.182 267.025 329.144 268.305 329.144Z" fill="white"/>
<path opacity="0.4" fill-rule="evenodd" clip-rule="evenodd" d="M281.91 329.144C283.19 329.144 284.227 330.182 284.227 331.462C284.227 332.743 283.19 333.78 281.91 333.78C280.63 333.78 279.593 332.743 279.593 331.462C279.593 330.182 280.63 329.144 281.91 329.144Z" fill="white"/>
<path opacity="0.4" fill-rule="evenodd" clip-rule="evenodd" d="M295.526 329.144C296.806 329.144 297.843 330.182 297.843 331.462C297.843 332.743 296.806 333.78 295.526 333.78C294.246 333.78 293.209 332.743 293.209 331.462C293.209 330.182 294.246 329.144 295.526 329.144Z" fill="white"/>
<path opacity="0.4" fill-rule="evenodd" clip-rule="evenodd" d="M309.131 329.144C310.411 329.144 311.448 330.182 311.448 331.462C311.448 332.743 310.411 333.78 309.131 333.78C307.851 333.78 306.813 332.743 306.813 331.462C306.813 330.182 307.851 329.144 309.131 329.144Z" fill="white"/>
<path opacity="0.4" fill-rule="evenodd" clip-rule="evenodd" d="M322.736 329.144C324.016 329.144 325.053 330.182 325.053 331.462C325.053 332.743 324.016 333.78 322.736 333.78C321.456 333.78 320.418 332.743 320.418 331.462C320.418 330.182 321.456 329.144 322.736 329.144Z" fill="white"/>
<path opacity="0.4" fill-rule="evenodd" clip-rule="evenodd" d="M261.497 318.934C262.777 318.934 263.814 319.971 263.814 321.252C263.814 322.532 262.777 323.57 261.497 323.57C260.217 323.57 259.18 322.532 259.18 321.252C259.18 319.971 260.217 318.934 261.497 318.934Z" fill="white"/>
<path opacity="0.4" fill-rule="evenodd" clip-rule="evenodd" d="M275.113 318.934C276.393 318.934 277.43 319.971 277.43 321.252C277.43 322.532 276.393 323.57 275.113 323.57C273.833 323.57 272.796 322.532 272.796 321.252C272.796 319.971 273.833 318.934 275.113 318.934Z" fill="white"/>
<path opacity="0.4" fill-rule="evenodd" clip-rule="evenodd" d="M288.718 318.934C289.998 318.934 291.035 319.971 291.035 321.252C291.035 322.532 289.998 323.57 288.718 323.57C287.438 323.57 286.401 322.532 286.401 321.252C286.401 319.971 287.438 318.934 288.718 318.934Z" fill="white"/>
<path opacity="0.4" fill-rule="evenodd" clip-rule="evenodd" d="M302.322 318.934C303.602 318.934 304.64 319.971 304.64 321.252C304.64 322.532 303.602 323.57 302.322 323.57C301.043 323.57 300.005 322.532 300.005 321.252C300.005 319.971 301.043 318.934 302.322 318.934Z" fill="white"/>
<path opacity="0.4" fill-rule="evenodd" clip-rule="evenodd" d="M315.939 318.934C317.219 318.934 318.256 319.971 318.256 321.252C318.256 322.532 317.219 323.57 315.939 323.57C314.659 323.57 313.622 322.532 313.622 321.252C313.622 319.971 314.659 318.934 315.939 318.934Z" fill="white"/>
<path opacity="0.4" fill-rule="evenodd" clip-rule="evenodd" d="M268.305 309.043C269.585 309.043 270.623 310.081 270.623 311.361C270.623 312.642 269.585 313.679 268.305 313.679C267.025 313.679 265.988 312.642 265.988 311.361C265.988 310.081 267.025 309.043 268.305 309.043Z" fill="white"/>
<path opacity="0.4" fill-rule="evenodd" clip-rule="evenodd" d="M281.91 309.043C283.19 309.043 284.227 310.081 284.227 311.361C284.227 312.642 283.19 313.679 281.91 313.679C280.63 313.679 279.593 312.642 279.593 311.361C279.593 310.081 280.63 309.043 281.91 309.043Z" fill="white"/>
<path opacity="0.4" fill-rule="evenodd" clip-rule="evenodd" d="M295.526 309.043C296.806 309.043 297.843 310.081 297.843 311.361C297.843 312.642 296.806 313.679 295.526 313.679C294.246 313.679 293.209 312.642 293.209 311.361C293.209 310.081 294.246 309.043 295.526 309.043Z" fill="white"/>
<path opacity="0.4" fill-rule="evenodd" clip-rule="evenodd" d="M309.131 309.043C310.411 309.043 311.448 310.081 311.448 311.361C311.448 312.642 310.411 313.679 309.131 313.679C307.851 313.679 306.813 312.642 306.813 311.361C306.813 310.081 307.851 309.043 309.131 309.043Z" fill="white"/>
<path opacity="0.4" fill-rule="evenodd" clip-rule="evenodd" d="M322.736 309.043C324.016 309.043 325.053 310.081 325.053 311.361C325.053 312.642 324.016 313.679 322.736 313.679C321.456 313.679 320.418 312.642 320.418 311.361C320.418 310.081 321.456 309.043 322.736 309.043Z" fill="white"/>
<path opacity="0.4" fill-rule="evenodd" clip-rule="evenodd" d="M261.497 298.833C262.777 298.833 263.814 299.87 263.814 301.151C263.814 302.431 262.777 303.469 261.497 303.469C260.217 303.469 259.18 302.431 259.18 301.151C259.18 299.87 260.217 298.833 261.497 298.833Z" fill="white"/>
<path opacity="0.4" fill-rule="evenodd" clip-rule="evenodd" d="M275.113 298.833C276.393 298.833 277.43 299.87 277.43 301.151C277.43 302.431 276.393 303.469 275.113 303.469C273.833 303.469 272.796 302.431 272.796 301.151C272.796 299.87 273.833 298.833 275.113 298.833Z" fill="white"/>
<path opacity="0.4" fill-rule="evenodd" clip-rule="evenodd" d="M288.718 298.833C289.998 298.833 291.035 299.87 291.035 301.151C291.035 302.431 289.998 303.469 288.718 303.469C287.438 303.469 286.401 302.431 286.401 301.151C286.401 299.87 287.438 298.833 288.718 298.833Z" fill="white"/>
<path opacity="0.4" fill-rule="evenodd" clip-rule="evenodd" d="M302.322 298.833C303.602 298.833 304.64 299.87 304.64 301.151C304.64 302.431 303.602 303.469 302.322 303.469C301.043 303.469 300.005 302.431 300.005 301.151C300.005 299.87 301.043 298.833 302.322 298.833Z" fill="white"/>
<path opacity="0.4" fill-rule="evenodd" clip-rule="evenodd" d="M315.939 298.833C317.219 298.833 318.256 299.87 318.256 301.151C318.256 302.431 317.219 303.469 315.939 303.469C314.659 303.469 313.622 302.431 313.622 301.151C313.622 299.87 314.659 298.833 315.939 298.833Z" fill="white"/>
<path opacity="0.4" fill-rule="evenodd" clip-rule="evenodd" d="M268.305 288.931C269.585 288.931 270.623 289.969 270.623 291.249C270.623 292.53 269.585 293.567 268.305 293.567C267.025 293.567 265.988 292.53 265.988 291.249C265.988 289.969 267.025 288.931 268.305 288.931Z" fill="white"/>
<path opacity="0.4" fill-rule="evenodd" clip-rule="evenodd" d="M281.91 288.931C283.19 288.931 284.227 289.969 284.227 291.249C284.227 292.53 283.19 293.567 281.91 293.567C280.63 293.567 279.593 292.53 279.593 291.249C279.593 289.969 280.63 288.931 281.91 288.931Z" fill="white"/>
<path opacity="0.4" fill-rule="evenodd" clip-rule="evenodd" d="M295.526 288.931C296.806 288.931 297.843 289.969 297.843 291.249C297.843 292.53 296.806 293.567 295.526 293.567C294.246 293.567 293.209 292.53 293.209 291.249C293.209 289.969 294.246 288.931 295.526 288.931Z" fill="white"/>
<path opacity="0.4" fill-rule="evenodd" clip-rule="evenodd" d="M309.131 288.931C310.411 288.931 311.448 289.969 311.448 291.249C311.448 292.53 310.411 293.567 309.131 293.567C307.851 293.567 306.813 292.53 306.813 291.249C306.813 289.969 307.851 288.931 309.131 288.931Z" fill="white"/>
<path opacity="0.4" fill-rule="evenodd" clip-rule="evenodd" d="M322.736 288.931C324.016 288.931 325.053 289.969 325.053 291.249C325.053 292.53 324.016 293.567 322.736 293.567C321.456 293.567 320.418 292.53 320.418 291.249C320.418 289.969 321.456 288.931 322.736 288.931Z" fill="white"/>
<path opacity="0.4" fill-rule="evenodd" clip-rule="evenodd" d="M261.497 278.721C262.777 278.721 263.814 279.758 263.814 281.039C263.814 282.319 262.777 283.357 261.497 283.357C260.217 283.357 259.18 282.319 259.18 281.039C259.18 279.758 260.217 278.721 261.497 278.721Z" fill="white"/>
<path opacity="0.4" fill-rule="evenodd" clip-rule="evenodd" d="M275.113 278.721C276.393 278.721 277.43 279.758 277.43 281.039C277.43 282.319 276.393 283.357 275.113 283.357C273.833 283.357 272.796 282.319 272.796 281.039C272.796 279.758 273.833 278.721 275.113 278.721Z" fill="white"/>
<path opacity="0.4" fill-rule="evenodd" clip-rule="evenodd" d="M288.718 278.721C289.998 278.721 291.035 279.758 291.035 281.039C291.035 282.319 289.998 283.357 288.718 283.357C287.438 283.357 286.401 282.319 286.401 281.039C286.401 279.758 287.438 278.721 288.718 278.721Z" fill="white"/>
<path opacity="0.4" fill-rule="evenodd" clip-rule="evenodd" d="M302.322 278.721C303.602 278.721 304.64 279.758 304.64 281.039C304.64 282.319 303.602 283.357 302.322 283.357C301.043 283.357 300.005 282.319 300.005 281.039C300.005 279.758 301.043 278.721 302.322 278.721Z" fill="white"/>
<path opacity="0.4" fill-rule="evenodd" clip-rule="evenodd" d="M315.938 278.721C317.218 278.721 318.255 279.758 318.255 281.039C318.255 282.319 317.218 283.357 315.938 283.357C314.658 283.357 313.621 282.319 313.621 281.039C313.61 279.758 314.658 278.721 315.938 278.721Z" fill="white"/>
<path opacity="0.4" fill-rule="evenodd" clip-rule="evenodd" d="M268.305 268.83C269.585 268.83 270.623 269.868 270.623 271.148C270.623 272.429 269.585 273.466 268.305 273.466C267.025 273.466 265.988 272.429 265.988 271.148C265.988 269.868 267.025 268.83 268.305 268.83Z" fill="white"/>
<path opacity="0.4" fill-rule="evenodd" clip-rule="evenodd" d="M281.91 268.83C283.19 268.83 284.227 269.868 284.227 271.148C284.227 272.429 283.19 273.466 281.91 273.466C280.63 273.466 279.593 272.429 279.593 271.148C279.593 269.868 280.63 268.83 281.91 268.83Z" fill="white"/>
<path opacity="0.4" fill-rule="evenodd" clip-rule="evenodd" d="M295.526 268.83C296.806 268.83 297.843 269.868 297.843 271.148C297.843 272.429 296.806 273.466 295.526 273.466C294.246 273.466 293.209 272.429 293.209 271.148C293.209 269.868 294.246 268.83 295.526 268.83Z" fill="white"/>
<path opacity="0.4" fill-rule="evenodd" clip-rule="evenodd" d="M309.131 268.83C310.411 268.83 311.448 269.868 311.448 271.148C311.448 272.429 310.411 273.466 309.131 273.466C307.851 273.466 306.813 272.429 306.813 271.148C306.813 269.868 307.851 268.83 309.131 268.83Z" fill="white"/>
<path opacity="0.4" d="M322.736 273.466C324.015 273.466 325.053 272.429 325.053 271.148C325.053 269.868 324.015 268.83 322.736 268.83C321.456 268.83 320.418 269.868 320.418 271.148C320.418 272.429 321.456 273.466 322.736 273.466Z" fill="white"/>
<path opacity="0.4" fill-rule="evenodd" clip-rule="evenodd" d="M261.497 258.62C262.777 258.62 263.814 259.657 263.814 260.938C263.814 262.218 262.777 263.256 261.497 263.256C260.217 263.256 259.18 262.218 259.18 260.938C259.18 259.657 260.217 258.62 261.497 258.62Z" fill="white"/>
<path opacity="0.4" fill-rule="evenodd" clip-rule="evenodd" d="M275.113 258.62C276.393 258.62 277.43 259.657 277.43 260.938C277.43 262.218 276.393 263.256 275.113 263.256C273.833 263.256 272.796 262.218 272.796 260.938C272.796 259.657 273.833 258.62 275.113 258.62Z" fill="white"/>
<path opacity="0.4" fill-rule="evenodd" clip-rule="evenodd" d="M288.718 258.62C289.998 258.62 291.035 259.657 291.035 260.938C291.035 262.218 289.998 263.256 288.718 263.256C287.438 263.256 286.401 262.218 286.401 260.938C286.401 259.657 287.438 258.62 288.718 258.62Z" fill="white"/>
<path opacity="0.4" fill-rule="evenodd" clip-rule="evenodd" d="M302.322 258.62C303.602 258.62 304.64 259.657 304.64 260.938C304.64 262.218 303.602 263.256 302.322 263.256C301.043 263.256 300.005 262.218 300.005 260.938C300.005 259.657 301.043 258.62 302.322 258.62Z" fill="white"/>
<path opacity="0.4" fill-rule="evenodd" clip-rule="evenodd" d="M315.938 258.62C317.218 258.62 318.255 259.657 318.255 260.938C318.255 262.218 317.218 263.256 315.938 263.256C314.658 263.256 313.621 262.218 313.621 260.938C313.61 259.657 314.658 258.62 315.938 258.62Z" fill="white"/>
<path opacity="0.4" fill-rule="evenodd" clip-rule="evenodd" d="M268.305 248.718C269.585 248.718 270.623 249.756 270.623 251.036C270.623 252.317 269.585 253.354 268.305 253.354C267.025 253.354 265.988 252.317 265.988 251.036C265.988 249.756 267.025 248.718 268.305 248.718Z" fill="white"/>
<path opacity="0.4" fill-rule="evenodd" clip-rule="evenodd" d="M281.91 248.718C283.19 248.718 284.227 249.756 284.227 251.036C284.227 252.317 283.19 253.354 281.91 253.354C280.63 253.354 279.593 252.317 279.593 251.036C279.593 249.756 280.63 248.718 281.91 248.718Z" fill="white"/>
<path opacity="0.4" fill-rule="evenodd" clip-rule="evenodd" d="M295.526 248.718C296.806 248.718 297.843 249.756 297.843 251.036C297.843 252.317 296.806 253.354 295.526 253.354C294.246 253.354 293.209 252.317 293.209 251.036C293.209 249.756 294.246 248.718 295.526 248.718Z" fill="white"/>
<path opacity="0.4" fill-rule="evenodd" clip-rule="evenodd" d="M309.131 248.718C310.411 248.718 311.448 249.756 311.448 251.036C311.448 252.317 310.411 253.354 309.131 253.354C307.851 253.354 306.813 252.317 306.813 251.036C306.813 249.756 307.851 248.718 309.131 248.718Z" fill="white"/>
<path opacity="0.4" d="M322.736 253.354C324.015 253.354 325.053 252.317 325.053 251.036C325.053 249.756 324.015 248.718 322.736 248.718C321.456 248.718 320.418 249.756 320.418 251.036C320.418 252.317 321.456 253.354 322.736 253.354Z" fill="white"/>
<path opacity="0.4" fill-rule="evenodd" clip-rule="evenodd" d="M261.497 238.508C262.777 238.508 263.814 239.545 263.814 240.826C263.814 242.106 262.777 243.144 261.497 243.144C260.217 243.144 259.18 242.106 259.18 240.826C259.18 239.545 260.217 238.508 261.497 238.508Z" fill="white"/>
<path opacity="0.4" fill-rule="evenodd" clip-rule="evenodd" d="M275.113 238.508C276.393 238.508 277.43 239.545 277.43 240.826C277.43 242.106 276.393 243.144 275.113 243.144C273.833 243.144 272.796 242.106 272.796 240.826C272.796 239.545 273.833 238.508 275.113 238.508Z" fill="white"/>
<path opacity="0.4" fill-rule="evenodd" clip-rule="evenodd" d="M288.718 238.508C289.998 238.508 291.035 239.545 291.035 240.826C291.035 242.106 289.998 243.144 288.718 243.144C287.438 243.144 286.401 242.106 286.401 240.826C286.401 239.545 287.438 238.508 288.718 238.508Z" fill="white"/>
<path opacity="0.4" fill-rule="evenodd" clip-rule="evenodd" d="M302.322 238.508C303.602 238.508 304.64 239.545 304.64 240.826C304.64 242.106 303.602 243.144 302.322 243.144C301.043 243.144 300.005 242.106 300.005 240.826C300.005 239.545 301.043 238.508 302.322 238.508Z" fill="white"/>
<path opacity="0.4" fill-rule="evenodd" clip-rule="evenodd" d="M315.938 238.508C317.218 238.508 318.255 239.545 318.255 240.826C318.255 242.106 317.218 243.144 315.938 243.144C314.658 243.144 313.621 242.106 313.621 240.826C313.61 239.545 314.658 238.508 315.938 238.508Z" fill="white"/>
</g>
</g>
<path fill-rule="evenodd" clip-rule="evenodd" d="M163.456 144.404C170.088 160.697 172.57 172.563 174.667 187.476C176.19 198.36 165.762 200.214 160.102 192.432C150.679 179.484 145.868 167.077 141.212 152.815C135.662 135.86 157.101 128.796 163.456 144.404Z" fill="#E12126"/>
<path fill-rule="evenodd" clip-rule="evenodd" d="M156.759 154.813C161.294 164.196 161.448 172.817 161.139 180.378C160.841 187.939 147.38 183.403 147.38 183.403C147.38 183.403 148.439 162.529 156.759 154.813Z" fill="#E12126"/>
<path fill-rule="evenodd" clip-rule="evenodd" d="M259.848 152.517C250.47 160.73 234.327 175.521 226.537 185.257C220.303 193.05 229.825 199.806 238.145 194.287C252.323 184.871 265.001 178.402 277.514 164.185C288.217 152.01 271.235 142.55 259.848 152.517Z" fill="#0067B0"/>
<path fill-rule="evenodd" clip-rule="evenodd" d="M253.725 184.241C260.323 179.539 265.421 175.896 271.026 170.753C269.514 164.803 267.782 160.895 264.747 156.336C258.05 168.225 255.28 173.777 253.725 184.241Z" fill="#0067B0"/>
<path fill-rule="evenodd" clip-rule="evenodd" d="M255.28 243.385C247.148 240.957 265.034 210.071 262.629 202.356C261.228 197.852 255.104 189.871 255.92 182.464C256.516 177.144 259.231 166.635 265.244 149.228C279.059 145.795 293.072 143.94 315.239 151.976C319.972 177.53 310.285 191.328 310.792 211.44C311.013 219.984 322.808 235.404 317.225 240.085C304.161 251.013 272.118 248.43 255.28 243.385Z" fill="#0067B0"/>
<path fill-rule="evenodd" clip-rule="evenodd" d="M275.925 147.064C281.155 145.839 285.811 145.199 294.561 146.612C292.365 152.605 283.483 161.138 278.098 164.152C276.719 159.78 275.671 152.252 275.925 147.064Z" fill="#BA8B80"/>
<path fill-rule="evenodd" clip-rule="evenodd" d="M277.657 130.142L292.531 130.198L292.465 148.058C292.442 155.475 277.569 154.979 277.591 148.002L277.657 130.142Z" fill="#BA8B80"/>
<path fill-rule="evenodd" clip-rule="evenodd" d="M313.87 183.921C316.496 193.37 322.907 200.943 328.402 207.93C334.581 215.767 343.243 216.143 341.146 206.374C337.417 189.01 327.597 160.862 317.512 153.224C309.038 146.81 309.589 168.545 313.87 183.921Z" fill="#0067B0"/>
<path fill-rule="evenodd" clip-rule="evenodd" d="M277.624 138.024L292.498 138.079L292.465 147.153C288.669 149.526 280.626 148.908 277.613 142.086L277.624 138.024Z" fill="#947169"/>
<path fill-rule="evenodd" clip-rule="evenodd" d="M288.713 92.866C260.19 88.7266 259.969 140.883 281.133 142.495C303.763 144.217 319.707 97.3696 288.713 92.866Z" fill="#BA8B80"/>
<path fill-rule="evenodd" clip-rule="evenodd" d="M272.968 114.148C273.784 114.236 274.369 114.976 274.281 115.814C274.192 116.653 273.464 117.261 272.659 117.183C271.842 117.095 271.257 116.355 271.346 115.516C271.423 114.666 272.151 114.059 272.968 114.148Z" fill="#00204A"/>
<path fill-rule="evenodd" clip-rule="evenodd" d="M287.246 115.737C288.062 115.826 288.647 116.565 288.559 117.404C288.47 118.243 287.742 118.85 286.937 118.773C286.12 118.685 285.535 117.945 285.624 117.106C285.701 116.267 286.429 115.66 287.246 115.737Z" fill="#00204A"/>
<path fill-rule="evenodd" clip-rule="evenodd" d="M279.313 125.893C275.969 124.579 277.128 122.415 278.496 119.534C275.903 121.621 274.226 125.098 279.313 125.893Z" fill="#947169"/>
<path fill-rule="evenodd" clip-rule="evenodd" d="M273.31 128.177C276.234 128.277 280.681 128.674 286.573 129.281C283.561 136.821 274.866 135.22 273.31 128.177Z" fill="#947169"/>
<path fill-rule="evenodd" clip-rule="evenodd" d="M299.935 110.505C299.714 117.382 302.726 122.339 304.878 122.769C307.019 123.2 309.391 111.146 299.935 110.505Z" fill="#082B56"/>
<path fill-rule="evenodd" clip-rule="evenodd" d="M307.338 118.221C306.125 117.768 304.359 119.524 303.399 122.129C302.439 124.734 302.649 127.217 303.863 127.659C305.076 128.111 306.842 126.356 307.802 123.751C308.762 121.146 308.563 118.663 307.338 118.221Z" fill="#BA8B80"/>
<path fill-rule="evenodd" clip-rule="evenodd" d="M286.076 112.106C285.028 112.139 284.509 110.803 285.833 110.538C287.742 110.163 291.428 111.179 292.476 112.349C293.138 113.088 292.641 113.75 291.737 113.331C290.192 112.625 286.804 112.084 286.076 112.106Z" fill="#082B56"/>
<path fill-rule="evenodd" clip-rule="evenodd" d="M276.311 111.101C277.238 111.41 278.033 110.24 276.918 109.644C275.307 108.794 272.218 108.805 270.552 109.743C269.724 110.207 270.066 111.079 270.971 110.847C272.229 110.538 275.418 110.792 276.311 111.101Z" fill="#082B56"/>
<path fill-rule="evenodd" clip-rule="evenodd" d="M129.858 431.468C137.427 436.391 156.979 438.919 166.424 437.087C171.71 436.06 172.063 428.422 165.122 425.485C153.15 420.419 141.973 416.875 129.24 414.105C128.137 420.242 126.493 429.283 129.858 431.468Z" fill="#082B56"/>
<path fill-rule="evenodd" clip-rule="evenodd" d="M153.106 421.081C148.439 423.366 133.543 424.095 127.364 419.668C124.815 367.468 127.199 352.202 128.766 324.275C129.715 307.264 154.221 309.538 153.548 327.818C152.202 364.278 154.419 407.846 153.106 421.081Z" fill="#4F91E8"/>
<path fill-rule="evenodd" clip-rule="evenodd" d="M126.426 220.955C128.445 233.881 129.251 248.341 126.503 262.184C124.606 285.21 118.724 312.022 116.827 335.048C115.878 346.528 91.217 346.727 91.2059 332.741C91.1728 296.281 85.2586 260.528 92.4417 219.465C102.394 219.487 116.474 220.955 126.426 220.955Z" fill="#4F91E8"/>
<path d="M116.639 234.61C113.991 238.672 105.727 245.527 102.45 247.712" stroke="#66A1ED" stroke-width="1.63693" stroke-miterlimit="22.9256" stroke-linecap="round" stroke-linejoin="round"/>
<path fill-rule="evenodd" clip-rule="evenodd" d="M122.829 220.955C120.81 233.881 120.468 252.569 123.215 266.411C124.738 289.559 127.673 307.54 129.185 330.688C129.935 342.179 153.261 343.481 153.305 329.495C153.437 293.036 156.56 261.72 153.978 220.602C143.595 220.723 133.212 220.845 122.829 220.955Z" fill="#4F91E8"/>
<mask id="mask1_32_1428" style="mask-type:alpha" maskUnits="userSpaceOnUse" x="121" y="220" width="34" height="120">
<path d="M122.829 220.955C120.81 233.881 120.468 252.569 123.215 266.411C124.738 289.559 127.673 307.54 129.185 330.688C129.935 342.179 153.261 343.481 153.305 329.495C153.437 293.036 156.56 261.72 153.978 220.602C143.595 220.723 133.212 220.845 122.829 220.955Z" fill="white"/>
</mask>
<g mask="url(#mask1_32_1428)">
<path d="M144.875 231.331C147.523 235.393 155.787 242.248 159.064 244.434" stroke="#66A1ED" stroke-width="1.63693" stroke-miterlimit="22.9256" stroke-linecap="round" stroke-linejoin="round"/>
</g>
<path d="M133.543 233.804C133.311 238.826 133.996 250.119 131.723 250.461C129.439 250.803 126.702 250.913 126.702 250.913" stroke="#66A1ED" stroke-width="1.63693" stroke-miterlimit="22.9256" stroke-linecap="round" stroke-linejoin="round"/>
<path d="M124.97 279.944C128.114 298.842 131.612 317.74 132.318 326.482C133.013 335.236 128.125 384.919 130.564 414.315" stroke="#66A1ED" stroke-width="1.63693" stroke-miterlimit="22.9256" stroke-linecap="round" stroke-linejoin="round"/>
<path opacity="0.5" fill-rule="evenodd" clip-rule="evenodd" d="M125.864 295.387C127.905 283.322 129.45 271.941 128.39 251.233C127.155 263.519 125.378 275.131 124.098 282.582C124.661 286.004 125.29 290.133 125.864 295.387Z" fill="#1F4C87"/>
<path fill-rule="evenodd" clip-rule="evenodd" d="M89.0435 437.627C96.2817 443.036 115.613 446.845 125.157 445.641C130.498 444.968 131.359 437.374 124.628 433.985C113.009 428.134 102.097 423.874 89.5731 420.275C88.0725 426.313 85.8436 435.232 89.0435 437.627Z" fill="#082B56"/>
<path fill-rule="evenodd" clip-rule="evenodd" d="M111.817 427.605C106.632 431.115 96.1714 431.49 86.296 427.053C84.674 385.493 89.7496 352.886 92.4419 324.959C94.086 307.938 119.221 307.916 117.82 326.35C115.039 363.096 113.66 414.381 111.817 427.605Z" fill="#4F91E8"/>
<path d="M100.839 229.554C96.293 255.803 95.5868 325.434 94.1965 336.638C92.7952 347.83 90.0036 411.169 90.3457 421.324" stroke="#66A1ED" stroke-width="1.63693" stroke-miterlimit="22.9256" stroke-linecap="round" stroke-linejoin="round"/>
<path fill-rule="evenodd" clip-rule="evenodd" d="M157.421 181.316C161.051 181.471 166.413 181.129 168.223 182.785C170.032 184.451 165.475 176.702 157.421 177.442C155.766 178.358 155.457 180.113 157.421 181.316Z" fill="#CC1A1F"/>
<path fill-rule="evenodd" clip-rule="evenodd" d="M159.683 138.256C161.117 160.388 158.458 177.906 156.372 193.161C154.684 205.502 160.389 215.304 157.101 233.109C135.077 241.641 110.78 242.127 89.2089 231.519C85.314 225.856 95.5534 211.54 95.3548 197.929C95.101 181.361 83.361 161.69 84.9388 139.36C107.967 124.59 150.922 129.867 159.683 138.256Z" fill="#FF5559"/>
<path fill-rule="evenodd" clip-rule="evenodd" d="M105.021 187.641C99.0956 185.544 94.0862 183.083 94.9689 181.813C96.326 179.848 104.955 184.76 109.567 184.76C108.022 183.933 105.473 182.387 105.881 181.372C107.305 177.85 123.823 189.915 122.024 194.706C119.023 202.698 93.0159 195.103 93.9979 191.836C94.351 190.677 96.6681 192.653 102.229 193.205C96.8115 191.825 90.7981 190.004 91.6697 187.818C92.1552 186.604 99.4266 189.959 103.796 190.589C99.1618 188.8 90.776 185.897 91.6587 184.484C92.8283 182.641 100.078 186.891 105.021 187.641Z" fill="#FBC9BE"/>
<path fill-rule="evenodd" clip-rule="evenodd" d="M123.756 94.9409C129.329 94.7533 134.04 99.0914 134.217 104.566L135.143 132.814C135.298 137.472 137.317 145.971 130.465 146.656C120.336 147.671 115.051 138.951 114.863 133.476L113.936 105.229C113.76 99.7537 118.184 95.1286 123.756 94.9409Z" fill="#FBC9BE"/>
<path fill-rule="evenodd" clip-rule="evenodd" d="M134.978 127.758L114.377 118.442L114.874 133.476C120.711 136.445 130.972 134.856 134.978 127.758Z" fill="#D9ABA1"/>
<path fill-rule="evenodd" clip-rule="evenodd" d="M116.132 71.5176C134.382 66.4069 142.503 82.8541 144.544 99.6324C146.188 113.11 145.658 125.617 136.842 129.182C126.062 133.542 109.677 126.434 105.671 116.786C98.731 100.074 96.425 77.0368 116.132 71.5176Z" fill="#FBC9BE"/>
<path fill-rule="evenodd" clip-rule="evenodd" d="M131.8 93.3737C130.343 93.7821 129.483 91.8835 130.873 91.2654C133.488 90.1063 136.997 89.7752 139.446 91.5193C140.671 92.3913 139.965 93.7269 138.542 93.2302C136.743 92.59 133.61 92.877 131.8 93.3737Z" fill="#233147"/>
<path fill-rule="evenodd" clip-rule="evenodd" d="M128.5 113.187C132.903 112.006 131.744 109.103 130.431 105.284C133.411 108.286 135.022 112.9 128.5 113.187Z" fill="#D9ABA1"/>
<path fill-rule="evenodd" clip-rule="evenodd" d="M139.038 112.558C135.794 114.645 128.953 116.819 122.145 116.632C126.25 119.292 137.493 116.543 139.038 112.558Z" fill="#D9ABA1"/>
<path fill-rule="evenodd" clip-rule="evenodd" d="M121.837 93.5282C123.348 93.5503 123.304 95.6475 121.804 95.8352C120.524 96.0008 117.655 96.8728 115.382 98.3851C114.124 99.2129 113.263 98.3851 114.047 97.1046C115.614 94.5437 118.979 93.484 121.837 93.5282Z" fill="#233147"/>
<path fill-rule="evenodd" clip-rule="evenodd" d="M136.203 117.537C133.875 118.376 130.476 119.435 127.872 119.877C129.483 121.356 135.64 119.877 136.203 117.537Z" fill="#D9ABA1"/>
<path fill-rule="evenodd" clip-rule="evenodd" d="M120.987 102.348C121.837 102.105 122.73 102.624 122.973 103.507C123.216 104.39 122.73 105.295 121.881 105.527C121.031 105.77 120.137 105.251 119.895 104.368C119.641 103.496 120.137 102.591 120.987 102.348Z" fill="#00204A"/>
<path fill-rule="evenodd" clip-rule="evenodd" d="M135.695 98.6057C136.545 98.3628 137.439 98.8816 137.682 99.7647C137.924 100.648 137.439 101.553 136.589 101.785C135.74 102.028 134.846 101.509 134.603 100.626C134.349 99.7537 134.846 98.8485 135.695 98.6057Z" fill="#00204A"/>
<path fill-rule="evenodd" clip-rule="evenodd" d="M125.389 190.224C129.163 200.534 119.001 205.623 111.586 199.486C97.683 187.962 89.4186 176.217 82.5003 162.606C70.4292 138.885 92.464 125.131 108.717 156.314C115.812 169.914 118.647 171.823 125.389 190.224Z" fill="#E12126"/>
<path fill-rule="evenodd" clip-rule="evenodd" d="M116.154 169.329C113.285 172.199 109.732 180.985 110.185 189.297C115.481 185.213 119.277 174.748 119.277 174.748L116.154 169.329Z" fill="#BF0E12"/>
<path opacity="0.08" fill-rule="evenodd" clip-rule="evenodd" d="M288.559 120.771C291.119 121.334 292.972 123.001 292.686 124.491C292.399 125.981 290.082 126.732 287.522 126.169C284.962 125.606 283.108 123.939 283.395 122.449C283.682 120.958 285.999 120.208 288.559 120.771Z" fill="#E12126"/>
<path opacity="0.08" fill-rule="evenodd" clip-rule="evenodd" d="M271.125 119.336C268.709 119.446 266.756 120.771 266.767 122.283C266.767 123.795 268.731 124.932 271.136 124.822C273.552 124.711 275.505 123.387 275.494 121.875C275.494 120.362 273.53 119.225 271.125 119.336Z" fill="#E12126"/>
<path opacity="0.08" fill-rule="evenodd" clip-rule="evenodd" d="M138.332 102.933C140.903 102.602 143.165 103.54 143.396 105.019C143.617 106.498 141.719 107.966 139.148 108.286C136.578 108.606 134.316 107.679 134.084 106.2C133.863 104.721 135.761 103.253 138.332 102.933Z" fill="#E12126"/>
<path opacity="0.08" fill-rule="evenodd" clip-rule="evenodd" d="M119.365 108.397C116.915 109.247 115.304 111.09 115.757 112.514C116.209 113.938 118.559 114.413 121.009 113.563C123.458 112.713 125.069 110.869 124.617 109.445C124.165 108.021 121.814 107.547 119.365 108.397Z" fill="#E12126"/>
<path fill-rule="evenodd" clip-rule="evenodd" d="M207.559 155.266C207.239 157.407 209.942 159.582 210.847 161.878C215.956 174.837 219.696 183.447 225.103 192.785C230.013 201.263 241.312 193.58 238.112 184.319C234.162 172.872 227.508 164.814 222.102 154.614C221.131 152.782 221.34 149.338 219.509 148.709C215.371 147.307 208.089 151.634 207.559 155.266Z" fill="#0067B0"/>
<path fill-rule="evenodd" clip-rule="evenodd" d="M353.449 168.633C356.153 171.956 352.203 179.396 351.276 184.241C349.554 193.138 348.186 201.119 343.916 209.575C339.403 218.516 327.365 212.864 329.859 203.194C332.022 194.816 334.703 187.785 337.274 180.466C338.951 175.698 337.914 166.613 343.629 165.035C346.785 164.163 350.724 165.266 353.449 168.633Z" fill="#0067B0"/>
<path fill-rule="evenodd" clip-rule="evenodd" d="M275.163 128.465C277.514 128.608 280.559 128.873 284.244 129.248C283.969 130.772 274.844 129.756 275.163 128.465Z" fill="white"/>
<path fill-rule="evenodd" clip-rule="evenodd" d="M114.973 182.95C126.338 182.619 160.367 179.893 167.528 182.189C177.988 185.555 176.068 198.393 165.178 199.784C158.888 200.59 126.493 200.523 113.704 198.47C112.722 193.006 113.274 187.222 114.973 182.95Z" fill="#E12126"/>
<path fill-rule="evenodd" clip-rule="evenodd" d="M136.247 181.78C134.614 187.752 130.211 195.534 124.915 199.474C122.024 185.941 123.26 181.581 136.247 181.78Z" fill="#BF0E12"/>
<path fill-rule="evenodd" clip-rule="evenodd" d="M153.923 420.916C149.256 423.2 133.091 424.448 126.912 420.021C126.725 416.213 126.57 412.604 126.427 409.171C133.268 412.593 148.903 411.555 154.332 409.645C154.298 414.414 154.188 418.277 153.923 420.916Z" fill="#66A1ED"/>
<path fill-rule="evenodd" clip-rule="evenodd" d="M112.645 428.389C107.978 430.673 91.8132 431.921 85.6342 427.494C85.4467 423.686 85.557 420.165 85.4136 416.721C92.2546 420.143 107.625 419.017 113.054 417.107C113.031 421.876 112.91 425.739 112.645 428.389Z" fill="#66A1ED"/>
<path fill-rule="evenodd" clip-rule="evenodd" d="M234.691 176.161C238.344 180.499 240.131 185.345 241.19 189.308C242.183 183.502 239.734 178.744 234.691 176.161Z" fill="#0067B0"/>
<path fill-rule="evenodd" clip-rule="evenodd" d="M335.1 186.615C331.647 191.118 330.753 199.187 329.87 203.194C327.652 197.432 330.179 189.418 335.1 186.615Z" fill="#0067B0"/>
<path fill-rule="evenodd" clip-rule="evenodd" d="M311.488 174.428C311.752 176.625 312.955 181.471 314.29 185.334C314.036 186.637 313.904 187.266 313.639 188.547C311.234 184.871 310.737 179.076 311.488 174.428Z" fill="#0067B0"/>
<path fill-rule="evenodd" clip-rule="evenodd" d="M273.696 92.6562C271.114 103.198 296.272 119.325 310.031 118.033C323.79 116.742 304.878 83.8365 273.696 92.6562Z" fill="#082B56"/>
<path fill-rule="evenodd" clip-rule="evenodd" d="M266.634 112.536C269.095 104.125 273.861 99.4116 280.493 97.226C280.074 94.6651 277.911 91.6958 277.911 91.6958C277.911 91.6958 266.513 96.917 266.634 112.536Z" fill="#082B56"/>
<path fill-rule="evenodd" clip-rule="evenodd" d="M103.034 79.8407C119.397 94.8418 129.24 81.3198 138.001 84.5651C143.407 86.5631 143.518 95.0074 144.632 99.9857C145.835 97.4579 147.898 86.6293 144.798 83.4944C141.388 80.0504 147.876 68.3939 133.135 69.9061C127.077 70.5243 109.511 59.6073 103.034 79.8407Z" fill="#184F96"/>
<path fill-rule="evenodd" clip-rule="evenodd" d="M109.964 75.3369C114.951 84.6091 111.067 88.9472 106.786 92.634C102.637 96.2105 111.332 109.125 103.112 110.516C100 105.946 91.1067 89.4219 97.1864 86.0331C100.364 84.2559 95.9175 73.2838 109.964 75.3369Z" fill="#184F96"/>
<path fill-rule="evenodd" clip-rule="evenodd" d="M140.219 83.5164C132.749 74.211 115.403 90.3381 107.128 76.6946C116.694 61.3292 132.351 76.7388 136.787 72.4007C132.771 78.2179 115.591 70.6677 109.975 76.4076C113.759 81.2645 137.405 71.2969 140.219 83.5164Z" fill="#2F69B5"/>
<path fill-rule="evenodd" clip-rule="evenodd" d="M107.437 76.3856C98.8529 77.1362 102.902 83.7593 99.5591 86.2539C102.88 85.6468 105.429 76.9927 109.412 78.0855C109.567 77.3239 109.479 76.209 107.437 76.3856Z" fill="#2F69B5"/>
<path fill-rule="evenodd" clip-rule="evenodd" d="M100.331 104.776C101.644 104.114 103.851 105.858 105.274 108.662C106.698 111.465 106.786 114.28 105.473 114.943C104.16 115.605 101.953 113.872 100.53 111.057C99.1063 108.253 99.018 105.438 100.331 104.776Z" fill="#FBC9BE"/>
<path fill-rule="evenodd" clip-rule="evenodd" d="M311.233 113.949C297.055 117.349 277.348 99.7648 275.649 93.6716C276.686 94.8859 295.808 108.099 311.233 113.949Z" fill="#043A80"/>
<path fill-rule="evenodd" clip-rule="evenodd" d="M263.876 107.845C262.607 101.178 267.263 95.2281 271.533 94.2346C268.852 96.4533 264.582 102.977 263.876 107.845Z" fill="#043A80"/>
<path fill-rule="evenodd" clip-rule="evenodd" d="M144.191 115.693C144.633 112.878 144.577 111.686 143.099 111.797C140.55 111.774 138.509 122.062 135.684 126.091C131.171 125.815 129.163 121.731 128.071 122.162C124.595 123.508 132.352 141.291 135.839 143.753C143.507 149.139 154.585 119.49 151.308 119.623C150.492 119.656 150.282 122.36 147.943 126.687C146.85 125.694 145.879 126.411 144.434 125.815C145.714 120.682 148.108 112.768 146.343 112.68C145.317 112.647 144.688 113.463 144.191 115.693Z" fill="#D9ABA1"/>
<path fill-rule="evenodd" clip-rule="evenodd" d="M141.587 124.745C143.385 118.298 145.04 112.437 143.385 112.426C140.837 112.404 138.939 124.391 136.114 128.409C131.601 128.133 129.516 122.57 128.434 123.001C125.246 124.281 133.841 141.424 137.328 143.885C144.996 149.272 154.794 119.822 151.352 118.696C150.138 118.298 151.032 120.55 148.108 125.727C150.215 120.164 151.584 113.452 149.145 112.867C147.799 112.547 147.004 121.301 144.875 125.495C146.155 120.362 148.748 111.278 146.982 111.189C144.687 111.079 143.959 119.987 141.587 124.745Z" fill="#FBC9BE"/>
<path fill-rule="evenodd" clip-rule="evenodd" d="M131.623 140.485C127.188 150.961 110.593 183.678 110.14 191.185C109.467 202.157 122.895 205.236 128.147 195.589C131.182 190.014 143.805 157.606 146.552 144.934C141.807 142.031 136.224 140.441 131.623 140.485Z" fill="#E12126"/>
<path fill-rule="evenodd" clip-rule="evenodd" d="M277.613 142.086C276.201 144.481 275.197 145.431 273.784 147.826C273.652 156.425 275.914 161.05 278.099 164.141C277.569 159.56 277.779 150.056 277.613 142.086Z" fill="#FFAF8F"/>
<path fill-rule="evenodd" clip-rule="evenodd" d="M292.63 140.839C293.535 143.146 294.638 145.497 295.069 147.451C292.255 154.305 285.833 162.264 278.109 164.141C284.487 159.681 290.28 149.956 292.63 140.839Z" fill="#FFAF8F"/>
<path fill-rule="evenodd" clip-rule="evenodd" d="M277.613 142.086C274.479 145.066 272.538 147.583 270.011 151.866C272.626 150.917 275.594 149.371 277.679 149.658C277.856 146.877 277.359 145.894 277.613 142.086Z" fill="#FFAF8F"/>
<path fill-rule="evenodd" clip-rule="evenodd" d="M292.631 140.839C295.709 145.673 298.28 149.68 299.141 154.957C294.904 152.219 292.476 151.413 289.133 149.978C290.589 147.064 291.682 144.249 292.631 140.839Z" fill="#FFAF8F"/>
<path fill-rule="evenodd" clip-rule="evenodd" d="M89.0436 437.628C96.2818 443.036 115.613 446.845 125.158 445.641C127.519 445.343 129.008 443.688 129.35 441.646C128.6 442.319 127.629 442.782 126.449 442.926C116.165 444.217 95.3439 440.122 87.554 434.294C87.5319 434.272 87.5099 434.261 87.4878 434.239C87.6643 435.751 88.1388 436.954 89.0436 437.628Z" fill="#001E45"/>
<path fill-rule="evenodd" clip-rule="evenodd" d="M129.858 431.468C137.438 436.38 156.979 438.908 166.424 437.087C168.764 436.634 170.143 434.879 170.341 432.815C169.646 433.532 168.697 434.062 167.528 434.283C157.355 436.259 136.302 433.532 128.148 428.234C128.126 428.223 128.104 428.201 128.082 428.19C128.357 429.68 128.909 430.85 129.858 431.468Z" fill="#001E45"/>
<path fill-rule="evenodd" clip-rule="evenodd" d="M315.129 439.482C310.307 443.875 290.126 447.485 281.177 446.171C278.993 445.851 277.702 444.328 277.481 442.474C278.121 443.036 278.948 443.434 279.964 443.577C289.431 444.968 310.814 441.138 315.912 436.491C316.177 436.248 316.409 435.95 316.607 435.608C316.464 437.297 316.011 438.676 315.129 439.482Z" fill="#0C3D7D"/>
<path fill-rule="evenodd" clip-rule="evenodd" d="M281.078 431.899C276.057 436.06 255.722 438.732 246.85 437.01C244.688 436.59 243.474 435.012 243.331 433.135C243.937 433.731 244.754 434.162 245.758 434.36C255.159 436.182 276.686 433.367 282.004 428.952C282.28 428.72 282.534 428.433 282.744 428.102C282.512 429.779 282.004 431.137 281.078 431.899Z" fill="#0C3D7D"/>
<path fill-rule="evenodd" clip-rule="evenodd" d="M358.79 159.262C364.825 157.164 369.934 154.692 369.04 153.389C367.672 151.38 355.502 157.142 350.801 157.12C350.305 153.963 353.758 151.866 353.251 150.464C352.092 147.296 342.967 157.043 343.398 166.039C343.508 168.324 346.344 170.477 350.989 170.157C359.562 169.572 370.596 165.741 369.956 163.578C369.603 162.408 367.242 164.395 361.581 164.924C367.098 163.545 373.222 161.734 372.351 159.505C371.865 158.268 364.45 161.646 360.004 162.264C364.726 160.465 373.266 157.562 372.373 156.116C371.214 154.239 363.821 158.522 358.79 159.262Z" fill="#BA8B80"/>
<path fill-rule="evenodd" clip-rule="evenodd" d="M201.854 144.448C195.554 143.344 190.125 141.722 190.798 140.287C191.835 138.09 204.767 141.622 209.401 140.85C209.39 137.66 204.988 136.07 205.926 134.878C207.779 132.505 217.07 140.033 218.559 147.583C219.486 152.263 216.606 152.981 211.266 153.787C202.77 155.067 191.239 152.749 191.526 150.508C191.681 149.294 194.34 150.884 200.011 150.497C194.351 150.023 188.018 149.206 188.514 146.866C188.79 145.563 196.657 147.716 201.148 147.616C196.205 146.601 187.3 145.088 187.951 143.532C188.79 141.49 196.767 144.537 201.854 144.448Z" fill="#BA8B80"/>
<path fill-rule="evenodd" clip-rule="evenodd" d="M253.681 18.1802L267.098 21.4145C268.61 15.5641 271.842 13.3344 276.642 14.4934C280.945 15.531 283.042 18.0146 282.049 22.1209C279.776 31.5256 267.528 29.4946 263.887 44.584L276.907 47.73C279.677 36.2721 295.223 37.95 298.787 23.1585C301.435 12.1864 294.793 4.05109 281.674 0.883078C267.683 -2.48363 257.256 3.80825 253.681 18.1802ZM268.356 53.5472C263.457 52.3661 259.209 54.9711 258.006 59.9605C256.803 64.9609 259.374 69.31 264.273 70.4911C269.172 71.6722 273.542 69.0009 274.744 64.0005C275.947 59.0112 273.255 54.7283 268.356 53.5472Z" fill="#9ABBE6"/>
<path fill-rule="evenodd" clip-rule="evenodd" d="M180.967 79.631L190.688 80.801C191.273 76.5512 193.358 74.7189 196.845 75.1383C199.968 75.5136 201.645 77.0811 201.292 80.0615C200.475 86.8721 191.67 86.4637 190.357 97.3917L199.791 98.5287C200.795 90.2278 211.884 90.1174 213.175 79.4102C214.135 71.4626 208.784 66.2856 199.273 65.1376C189.121 63.9013 182.291 69.1997 180.967 79.631ZM194.23 103.33C190.688 102.9 187.897 105.085 187.466 108.706C187.036 112.327 189.21 115.175 192.752 115.605C196.293 116.036 199.162 113.784 199.593 110.163C200.034 106.543 197.783 103.75 194.23 103.33Z" fill="#9ABBE6"/>
<path fill-rule="evenodd" clip-rule="evenodd" d="M86.9473 26.2382L96.5247 23.887C95.5648 19.6704 96.8888 17.1978 100.309 16.3588C103.388 15.6082 105.528 16.4803 106.257 19.4275C107.901 26.1388 99.4597 28.8874 102.108 39.6498L111.409 37.3649C109.401 29.1854 119.828 25.1343 117.224 14.5706C115.304 6.73337 108.419 3.75301 99.0515 6.06003C89.0548 8.52159 84.4978 15.9394 86.9473 26.2382ZM107.89 43.8665C104.392 44.7275 102.549 47.7741 103.421 51.3395C104.293 54.9049 107.36 56.8255 110.858 55.9645C114.356 55.1035 116.253 51.9686 115.371 48.4032C114.499 44.8379 111.376 43.0055 107.89 43.8665Z" fill="#9ABBE6"/>
</g>
<defs>
<clipPath id="clip0_32_1428">
<rect width="407.548" height="457" fill="white"/>
</clipPath>
</defs>
</svg>
