<svg width="56" height="56" viewBox="0 0 56 56" fill="none" xmlns="http://www.w3.org/2000/svg">
<path d="M36.75 29.75L48.125 49L42 48.125L38.5 53.375L27.125 34.125L36.75 29.75Z" fill="#EB2F2F"/>
<path d="M19.25 29.75L7.875 49L14 48.125L17.5 53.375L28.875 34.125L19.25 29.75Z" fill="#EB2F2F"/>
<path d="M31.3278 7.15401C32.4348 7.91072 33.7666 8.26758 35.1036 8.16572C36.2877 8.07548 37.4715 8.34489 38.5 8.93867C39.5285 9.53246 40.3537 10.4229 40.8676 11.4936C41.4479 12.7024 42.4228 13.6773 43.6316 14.2576C44.7023 14.7715 45.5927 15.5967 46.1865 16.6252C46.7803 17.6537 47.0497 18.8375 46.9595 20.0216C46.8576 21.3586 47.2145 22.6904 47.9712 23.7974C48.6414 24.7778 49 25.9377 49 27.1252C49 28.3128 48.6414 29.4727 47.9712 30.4531C47.2145 31.56 46.8576 32.8918 46.9595 34.2288C47.0497 35.4129 46.7803 36.5968 46.1865 37.6252C45.5927 38.6537 44.7023 39.4789 43.6316 39.9929C42.4228 40.5731 41.4479 41.5481 40.8676 42.7569C40.3537 43.8275 39.5285 44.718 38.5 45.3118C37.4715 45.9056 36.2877 46.175 35.1036 46.0847C33.7666 45.9829 32.4348 46.3397 31.3278 47.0964C30.3474 47.7666 29.1875 48.1252 28 48.1252C26.8124 48.1252 25.6525 47.7666 24.6721 47.0964C23.5652 46.3397 22.2334 45.9829 20.8964 46.0847C19.7123 46.175 18.5285 45.9056 17.5 45.3118C16.4715 44.718 15.6463 43.8275 15.1323 42.7569C14.5521 41.5481 13.5771 40.5731 12.3683 39.9929C11.2977 39.4789 10.4072 38.6537 9.81343 37.6252C9.21964 36.5968 8.95024 35.4129 9.04048 34.2288C9.14234 32.8918 8.78548 31.56 8.02876 30.4531C7.35857 29.4727 7 28.3128 7 27.1252C7 25.9377 7.35857 24.7778 8.02876 23.7974C8.78548 22.6904 9.14234 21.3586 9.04048 20.0216C8.95024 18.8375 9.21964 17.6537 9.81343 16.6252C10.4072 15.5967 11.2977 14.7715 12.3683 14.2576C13.5771 13.6773 14.5521 12.7024 15.1323 11.4936C15.6463 10.4229 16.4715 9.53246 17.5 8.93867C18.5285 8.34489 19.7123 8.07548 20.8964 8.16572C22.2334 8.26758 23.5652 7.91072 24.6721 7.15401C25.6525 6.48381 26.8124 6.12524 28 6.12524C29.1875 6.12524 30.3474 6.48381 31.3278 7.15401Z" fill="#FFD54F"/>
<path d="M28 42.875C36.6985 42.875 43.75 35.8235 43.75 27.125C43.75 18.4265 36.6985 11.375 28 11.375C19.3015 11.375 12.25 18.4265 12.25 27.125C12.25 35.8235 19.3015 42.875 28 42.875Z" fill="#FFA000"/>
<path d="M17.5 21.8398H25.4033V34.1252H17.5V21.8398Z" fill="#426887"/>
<path d="M31.5583 21.9016L32.6211 18.5867C32.7017 18.3353 32.7298 18.07 32.7038 17.8073C32.6777 17.5446 32.598 17.2901 32.4697 17.0594C32.3413 16.8287 32.167 16.6268 31.9575 16.4662C31.7479 16.3056 31.5077 16.1897 31.2516 16.1257C30.8257 16.0192 30.3762 16.0612 29.9773 16.2447C29.5785 16.4281 29.2541 16.7421 29.0578 17.1348L28 19.2501L25.4033 21.8751V34.1251H35C35.6962 34.1251 36.3639 33.8486 36.8561 33.3563C37.3484 32.864 37.625 32.1963 37.625 31.5001V26.2501L38.2764 24.9471C38.4234 24.6532 38.5 24.329 38.5 24.0004C38.5 23.7217 38.445 23.4457 38.3381 23.1883C38.2312 22.9309 38.0745 22.6972 37.8771 22.5005C37.6796 22.3038 37.4453 22.148 37.1875 22.042C36.9297 21.9361 36.6535 21.8822 36.3748 21.8832L31.5583 21.9016Z" fill="white"/>
<path d="M21.4375 28.875C21.1779 28.875 20.9242 28.952 20.7083 29.0962C20.4925 29.2404 20.3242 29.4454 20.2249 29.6852C20.1256 29.9251 20.0996 30.189 20.1502 30.4436C20.2009 30.6982 20.3259 30.932 20.5094 31.1156C20.693 31.2991 20.9268 31.4241 21.1814 31.4748C21.436 31.5254 21.6999 31.4994 21.9398 31.4001C22.1796 31.3008 22.3846 31.1325 22.5288 30.9167C22.673 30.7008 22.75 30.4471 22.75 30.1875C22.7496 29.8395 22.6112 29.5059 22.3652 29.2598C22.1191 29.0138 21.7855 28.8754 21.4375 28.875Z" fill="#2D475C"/>
<path d="M1.75 27.125H4.375V28.875H1.75V27.125Z" fill="#FADE8D"/>
<path d="M4.19263 5.43164L5.42988 4.19439L11.9914 10.7559L10.7542 11.9932L4.19263 5.43164Z" fill="#FADE8D"/>
<path d="M1.13086 2.3689L2.36811 1.13165L4.11781 2.88135L2.88056 4.1186L1.13086 2.3689Z" fill="#FADE8D"/>
<path d="M1.41003 17.4324L2.10653 15.8259L7.35909 18.1031L6.66259 19.7096L1.41003 17.4324Z" fill="#FADE8D"/>
<path d="M1.38501 38.5747L6.63391 36.1241L7.37416 37.7096L2.12526 40.1602L1.38501 38.5747Z" fill="#FADE8D"/>
<path d="M1.12427 53.6277L5.49864 49.2533L6.73589 50.4906L2.36152 54.8649L1.12427 53.6277Z" fill="#FADE8D"/>
<path d="M27.125 50.75H28.875V54.25H27.125V50.75Z" fill="#FADE8D"/>
<path d="M27.125 1.75H28.875V3.5H27.125V1.75Z" fill="#FADE8D"/>
<path d="M15.8301 2.09229L17.4367 1.39574L19.1884 5.43609L17.5818 6.13263L15.8301 2.09229Z" fill="#FADE8D"/>
<path d="M51.625 27.125H54.25V28.875H51.625V27.125Z" fill="#FADE8D"/>
<path d="M44.0009 10.7603L50.5624 4.19873L51.7996 5.43598L45.2381 11.9975L44.0009 10.7603Z" fill="#FADE8D"/>
<path d="M51.877 2.88843L53.6267 1.13873L54.8639 2.37598L53.1142 4.12568L51.877 2.88843Z" fill="#FADE8D"/>
<path d="M48.6804 18.0854L53.933 15.8082L54.6295 17.4147L49.3769 19.6919L48.6804 18.0854Z" fill="#FADE8D"/>
<path d="M48.6294 37.7314L49.3696 36.1459L54.6185 38.5966L53.8783 40.1821L48.6294 37.7314Z" fill="#FADE8D"/>
<path d="M49.2456 50.4941L50.4829 49.2569L54.8572 53.6313L53.62 54.8685L49.2456 50.4941Z" fill="#FADE8D"/>
<path d="M36.8391 5.42627L38.5908 1.38592L40.1974 2.08247L38.4457 6.12281L36.8391 5.42627Z" fill="#FADE8D"/>
</svg>
