<svg width="72" height="72" viewBox="0 0 72 72" fill="none" xmlns="http://www.w3.org/2000/svg">
<path d="M69.3194 55.0333C69.083 57.1888 67.3371 58.8729 65.1735 59.0244C64.9945 59.0371 64.8168 59.0497 64.6389 59.0612C63.3197 59.1507 62.2941 60.2462 62.2941 61.5688V66.5682C62.2941 68.25 60.3691 69.2044 59.0315 68.1857C56.5903 66.3262 53.3426 63.5604 51.35 60.6923C50.8785 60.0132 50.0997 59.6175 49.2725 59.622C43.1374 59.6531 37.0023 59.4557 30.8673 59.0244C29.1568 58.9051 27.7045 57.8302 27.0575 56.3182C26.8855 55.9213 26.7707 55.4923 26.7214 55.0438C25.8128 46.744 25.8128 38.4431 26.7214 30.142C26.9577 27.9887 28.7048 26.3127 30.8649 26.1613C40.0044 25.5199 49.1428 25.3916 58.2813 25.7758C60.5778 25.871 62.8757 25.9994 65.1723 26.1613C67.3336 26.3127 69.0819 27.9887 69.3182 30.142C70.2269 38.4394 70.2269 46.7358 69.3194 55.0333Z" fill="#78D0B1"/>
<path d="M29.0619 29.9138C28.1314 38.4121 28.1314 46.9113 29.0619 55.4079C29.1123 55.8678 29.2299 56.3065 29.4059 56.7134C29.8561 57.7659 30.6876 58.6116 31.7243 59.083C31.4386 59.0645 31.1529 59.045 30.8671 59.0247C29.1565 58.9053 27.7041 57.8306 27.0575 56.3181C26.8851 55.921 26.77 55.492 26.7214 55.0435C25.8122 46.7443 25.8122 38.4431 26.7214 30.1421C26.9576 27.9892 28.7044 26.313 30.8644 26.1618C31.2863 26.1327 31.7082 26.1035 32.131 26.0769C30.4859 26.6429 29.2591 28.1165 29.0619 29.9138Z" fill="#66B49D"/>
<path d="M42.9847 51.9343C42.9873 53.2869 44.7631 54.3821 46.1158 54.3821H56.5853C57.6738 54.3821 58.5563 53.4996 58.5563 52.4104C58.5563 51.8662 58.3363 51.3727 57.9796 51.0161C57.6229 50.6595 57.1295 50.4388 56.5853 50.4388H57.293C58.3815 50.4388 59.2646 49.5569 59.2646 48.4671C59.2646 47.9222 59.0447 47.4301 58.6866 47.0728C58.3306 46.7161 57.8377 46.4961 57.2928 46.4961H58.0012C59.0763 46.4961 59.9506 45.6345 59.9715 44.5639C59.9938 43.4576 59.063 42.5528 57.9566 42.5528H57.2927C58.3812 42.5528 59.2644 41.6703 59.2644 40.5805C59.2644 40.0356 59.0444 39.5434 58.6864 39.1862C58.3303 38.8295 57.8375 38.6095 57.2926 38.6095H51.7473C51.7394 38.5971 51.737 38.5933 51.7291 38.5808L53.8916 33.9743C54.5052 32.6683 53.9431 31.1124 52.6371 30.499C52.2786 30.3304 51.9009 30.251 51.5289 30.251C50.5472 30.251 49.6068 30.8067 49.1618 31.754L48.2372 33.7239C47.691 34.8868 46.8162 35.8698 45.7085 36.5195C44.9773 36.9481 44.3683 37.6017 43.9962 38.4385C43.7425 39.0094 43.6288 39.611 43.6395 40.2015L42.9847 51.9343Z" fill="#FFDDCE"/>
<path d="M53.4457 31.0895C53.3567 31.08 53.2677 31.0755 53.1786 31.0755C52.1969 31.0755 51.2565 31.6313 50.8115 32.5786L49.887 34.5484C49.3408 35.7113 48.466 36.6944 47.3582 37.3441C46.627 37.7726 43.9966 38.4383 43.8994 43.4213C43.8918 43.8105 43.7512 44.1697 43.6482 44.5283L43.64 40.2015C43.6291 39.6108 43.743 39.0094 43.9967 38.4385C44.3686 37.6017 44.9778 36.9481 45.709 36.5195C46.8166 35.8697 47.6915 34.8868 48.2377 33.7239L49.1623 31.754C49.6073 30.8066 50.5477 30.251 51.5294 30.251C51.9013 30.251 52.2791 30.3304 52.6376 30.499C52.9522 30.6464 53.2237 30.8493 53.4457 31.0895Z" fill="#FFCBBE"/>
<path d="M58.5564 52.4105C58.5564 53.4996 57.6739 54.3821 56.5854 54.3821H45.8425C44.7056 54.3821 43.6515 53.8328 42.9991 52.9298H56.5853C57.4176 52.9298 58.129 52.4143 58.4184 51.6843C58.419 51.685 58.419 51.6863 58.4203 51.6868C58.4203 51.6868 58.4197 51.6875 58.4203 51.6875C58.5081 51.9114 58.5564 52.1555 58.5564 52.4105Z" fill="#FFCBBE"/>
<path d="M59.1251 47.741C59.2141 47.9658 59.2635 48.2108 59.2635 48.467C59.2635 49.5566 58.3811 50.439 57.2923 50.439H56.5368C56.1357 50.439 55.8107 50.114 55.8107 49.7129C55.8107 49.3118 56.1357 48.9867 56.5368 48.9867H57.2923C58.1248 48.9869 58.836 48.4709 59.1251 47.741Z" fill="#FFCBBE"/>
<path d="M59.8336 43.7979C59.9226 44.0227 59.9721 44.2676 59.9721 44.5239C59.9721 45.6135 59.0897 46.4959 58.0008 46.4959H57.2454C56.8443 46.4959 56.5192 46.1709 56.5192 45.7698C56.5192 45.3687 56.8443 45.0436 57.2454 45.0436H58.0008C58.8332 45.0436 59.5446 44.5277 59.8336 43.7979Z" fill="#FFCBBE"/>
<path d="M59.1261 39.8545C59.215 40.0793 59.2645 40.3243 59.2645 40.5805C59.2645 41.6702 58.3821 42.5526 57.2932 42.5526H56.5378C56.1367 42.5526 55.8116 42.2275 55.8116 41.8264C55.8116 41.4253 56.1367 41.1003 56.5378 41.1003H57.2932C58.1256 41.1004 58.837 40.5843 59.1261 39.8545Z" fill="#FFCBBE"/>
<path d="M37.5074 40.2015V52.4968C37.5074 53.3494 38.1987 54.0408 39.0514 54.0408H42.0959C42.9485 54.0408 43.6399 53.3494 43.6399 52.4968V40.2015C43.6399 39.3488 42.9485 38.6575 42.0959 38.6575H39.0514C38.1987 38.6575 37.5074 39.3487 37.5074 40.2015Z" fill="#F1F4F6"/>
<path d="M37.5069 48.624V52.4972C37.5069 53.3499 38.1986 54.0408 39.0513 54.0408H42.0956C42.9483 54.0408 43.6392 53.3499 43.6392 52.4972V48.624C43.6392 49.4767 42.9483 50.1686 42.0956 50.1686H39.0513C38.1986 50.1684 37.5069 49.4767 37.5069 48.624Z" fill="#D0E2E7"/>
<path d="M3.65469 31.341C3.88187 33.4136 5.56079 35.033 7.64133 35.1787C7.81341 35.1908 7.98444 35.2029 8.15534 35.214C9.42389 35.3 10.41 36.3535 10.41 37.6254V42.4326C10.41 44.0498 12.2611 44.9675 13.5473 43.988C15.8946 42.1999 19.0175 39.5404 20.9336 36.7826C21.3871 36.1296 22.136 35.749 22.9313 35.7534C28.8307 35.7832 34.73 35.5935 40.6294 35.1787C42.274 35.0639 43.6706 34.0304 44.2928 32.5764C44.4582 32.1947 44.5685 31.7822 44.616 31.3509C45.4897 23.3701 45.4897 15.388 44.616 7.40599C44.3887 5.33554 42.7088 3.72387 40.6316 3.57822C31.8431 2.96175 23.0559 2.83821 14.2686 3.20763C12.0602 3.29923 9.85062 3.42276 7.64224 3.57822C5.56406 3.72387 3.88304 5.33554 3.65574 7.40612C2.78212 15.3848 2.78212 23.3623 3.65469 31.341Z" fill="#F9DA41"/>
<path d="M5.90625 7.18654C5.01157 15.3583 5.01157 23.5309 5.90625 31.701C5.9548 32.1433 6.06787 32.565 6.23707 32.9563C6.66995 33.9684 7.4695 34.7815 8.46626 35.2348C8.19158 35.217 7.91678 35.1982 7.6421 35.1787C5.9972 35.0639 4.60067 34.0305 3.97896 32.5761C3.81316 32.1943 3.70258 31.7817 3.65573 31.3505C2.78146 23.3702 2.78146 15.388 3.65573 7.40586C3.88278 5.33566 5.56262 3.724 7.63962 3.57848C8.04528 3.55048 8.45108 3.52234 8.85753 3.49683C7.27557 4.04133 6.09587 5.45828 5.90625 7.18654Z" fill="#EDC932"/>
<path d="M31.2252 18.7659C32.466 18.7659 33.4753 17.0887 33.4753 15.027C33.4753 12.9653 32.466 11.2881 31.2252 11.2881C29.9845 11.2881 28.9752 12.9653 28.9752 15.027C28.9752 17.0887 29.9845 18.7659 31.2252 18.7659Z" fill="#21386B"/>
<path d="M17.0462 18.7659C18.287 18.7659 19.2963 17.0887 19.2963 15.027C19.2963 12.9653 18.287 11.2881 17.0462 11.2881C15.8055 11.2881 14.7962 12.9653 14.7962 15.027C14.7962 17.0887 15.8055 18.7659 17.0462 18.7659Z" fill="#21386B"/>
<path d="M31.8858 21.5143C31.3707 21.2978 30.7782 21.5387 30.5612 22.0532C29.4687 24.6448 26.9465 26.3192 24.1357 26.3192C21.3249 26.3192 18.8027 24.6448 17.7102 22.0532C17.4933 21.5387 16.9 21.2978 16.3856 21.5143C15.8711 21.7313 15.6298 22.3242 15.8467 22.8388C17.2561 26.1814 20.5096 28.3414 24.1356 28.3414C27.7615 28.3414 31.015 26.1814 32.4244 22.8388C32.6416 22.3242 32.4003 21.7313 31.8858 21.5143Z" fill="#21386B"/>
</svg>
