<svg width="60" height="60" viewBox="0 0 60 60" fill="none" xmlns="http://www.w3.org/2000/svg">
<path d="M28.6 0C29.5362 0 30.4725 0 31.4132 0C32.5288 0.524973 33.7013 0.958075 34.7426 1.59679C36.1339 2.45425 37.3983 3.51294 38.7721 4.40102C39.2621 4.716 39.9052 4.93912 40.4827 4.95224C43.1734 5.00911 45.8685 4.96099 48.5591 4.98287C50.226 5.00036 50.9786 5.76158 51.0092 7.43711C51.0354 8.88079 51.0748 10.3288 50.9961 11.7681C50.9436 12.7306 51.2454 13.3299 52.0636 13.8768C54.7411 15.6836 57.3574 17.5822 60 19.4459C60 32.2552 60 45.0645 60 57.8739C59.2519 59.2169 58.2281 60 56.5743 60C38.8464 59.9738 21.1229 59.9869 3.39507 59.9781C1.16377 59.9781 0.0175004 58.8144 0.0175004 56.5658C0.00875018 44.5396 0.0175004 32.5177 0 20.4914C0 19.7521 0.214379 19.2927 0.844393 18.8596C3.32507 17.1666 5.7795 15.4298 8.18579 13.6362C8.59705 13.3299 8.92081 12.6562 8.95581 12.1312C9.06081 10.6569 8.98206 9.16515 8.99519 7.6821C9.00831 5.70033 9.70833 4.98724 11.6771 4.98287C14.254 4.96974 16.831 5.02224 19.4079 4.95224C20.0598 4.93474 20.7817 4.69413 21.3329 4.34415C23.7217 2.83923 25.7737 0.778709 28.6 0ZM11.0646 7.05651C11.0384 7.33649 11.0165 7.48961 11.0165 7.64273C11.0165 13.8505 11.0034 20.054 11.0515 26.2618C11.0559 26.708 11.3971 27.2767 11.7559 27.5786C16.5028 31.5727 21.2761 35.5363 26.0537 39.4954C28.4775 41.5078 31.54 41.5035 33.9857 39.4779C38.7371 35.545 43.4622 31.5859 48.2223 27.6704C48.791 27.2023 49.0141 26.7342 49.0098 25.9993C48.9791 20.0277 48.9923 14.0561 48.9923 8.0802C48.9923 7.74335 48.9485 7.40649 48.9266 7.05213C36.2739 7.05651 23.7174 7.05651 11.0646 7.05651ZM35.5914 40.8298C31.4175 43.739 28.67 43.739 24.4261 40.8341C17.6622 46.4557 10.8852 52.086 3.91571 57.8782C21.4379 57.8782 38.6277 57.8782 56.1105 57.8782C49.1191 52.0685 42.3465 46.4426 35.5914 40.8298ZM22.9124 39.4911C15.9735 33.7251 9.11769 28.0292 2.14379 22.2326C2.14379 33.817 2.14379 45.1914 2.14379 56.7495C9.13957 50.9311 15.9778 45.2526 22.9124 39.4911ZM57.9043 22.2107C50.8736 28.0554 44.0265 33.747 37.1095 39.4954C44.0834 45.2876 50.9086 50.9573 57.9043 56.767C57.9043 45.1783 57.9043 33.8214 57.9043 22.2107ZM57.3618 20.0583C55.2093 18.5315 53.2274 17.1272 51.1098 15.6267C51.1098 18.8859 51.1098 21.9526 51.1098 25.2512C53.2667 23.4575 55.2574 21.8082 57.3618 20.0583ZM8.94706 15.6092C6.76827 17.1491 4.77322 18.5622 2.66006 20.0583C4.75135 21.7907 6.76389 23.4619 8.94706 25.2687C8.94706 21.9395 8.94706 18.9034 8.94706 15.6092ZM35.8582 4.91724C30.9888 0.625592 27.8606 1.54429 24.3211 4.91724C28.1318 4.91724 31.8813 4.91724 35.8582 4.91724Z" fill="#E7E7E7"/>
<path d="M33.5834 17.6128C33.6621 17.3022 33.649 17.0397 33.7715 16.9478C34.1521 16.6503 34.5809 16.4097 34.9922 16.1516C35.224 16.5453 35.6922 16.9784 35.6397 17.3328C35.364 19.2227 34.9659 21.0907 34.5897 22.9631C34.419 23.8031 34.2003 24.6299 33.9946 25.4611C33.7628 26.4017 34.2221 26.931 35.0797 26.6948C35.9634 26.4498 36.9872 26.0692 37.5472 25.4042C39.4329 23.1906 39.6473 20.5745 38.6454 17.9234C37.6303 15.246 35.6484 13.5705 32.7871 13.1155C26.7276 12.1487 20.5062 16.7203 19.8587 22.5606C19.465 26.1261 21.5781 29.674 24.9776 30.9077C28.0008 32.0058 31.1333 32.2814 34.314 31.6733C36.5234 31.2489 38.4441 30.2909 39.9579 28.5935C40.4348 28.0597 40.9729 27.6091 41.6423 28.2216C42.2986 28.8253 41.9267 29.4072 41.4454 29.9453C38.991 32.6751 35.7972 33.8913 32.2577 33.8913C29.7552 33.8913 27.1782 33.5807 24.7676 32.9157C19.6093 31.4983 16.7174 25.8417 18.2093 20.6314C20.0994 14.0342 27.0382 9.79506 33.719 11.2606C37.241 12.0349 39.5948 14.2879 40.6929 17.6915C41.7998 21.1257 41.231 24.3456 38.7941 27.0929C36.8472 29.2847 33.9203 29.3065 32.0171 27.1585C31.7196 27.3685 31.4308 27.6048 31.1071 27.7929C29.1995 28.9216 27.222 29.2847 25.2576 28.0247C23.28 26.7561 22.86 24.7305 23.3282 22.6569C23.6519 21.2176 24.3213 19.7477 25.2051 18.5709C27.5414 15.4735 30.2933 15.211 33.5834 17.6128ZM27.8564 26.7604C30.3371 26.896 33.3384 23.5756 32.7959 20.7714C32.2577 17.9759 29.7683 17.1797 27.7951 18.759C26.2595 19.9883 25.3801 21.5982 25.192 23.545C25.0038 25.4874 26.0932 26.7561 27.8564 26.7604Z" fill="#E7E7E7"/>
</svg>
