<svg width="33" height="24" viewBox="0 0 33 24" fill="none" xmlns="http://www.w3.org/2000/svg">
<path fill-rule="evenodd" clip-rule="evenodd" d="M2.29034 0.0884106C0.685459 0.494307 -0.307392 2.10463 0.0949394 3.64923C0.240161 4.20679 0.540237 4.71263 0.951574 5.09351C1.5526 5.64994 2.1166 5.87515 2.91683 5.87828C3.5196 5.88059 3.84069 5.80442 4.33734 5.54112C5.87274 4.7272 6.3458 2.76407 5.36071 1.29447C4.70908 0.322254 3.39952 -0.192152 2.29034 0.0884106ZM10.413 0.0666461C9.69973 0.202674 8.9067 0.740596 8.51638 1.35332C8.17534 1.88849 8.05151 2.37857 8.07759 3.08898C8.09841 3.65586 8.12224 3.75993 8.33182 4.20097C8.78412 5.15273 9.61955 5.74432 10.6962 5.87515C11.0431 5.91731 14.3922 5.93313 20.4191 5.92106L29.6127 5.90273L29.983 5.76202C30.5295 5.55438 30.8277 5.36093 31.1864 4.98168C31.5513 4.59592 31.7916 4.16063 31.9273 3.63978C32.331 2.08975 31.3152 0.470041 29.7007 0.0894737C29.3521 0.00729378 28.092 -0.00421403 20.0126 0.00110202C14.4241 0.00472944 10.6008 0.0308722 10.413 0.0666461ZM2.20472 9.15816C1.6845 9.29825 1.25253 9.54917 0.8779 9.92892C-0.291319 11.1141 -0.29282 12.898 0.874523 14.0653C1.8134 15.0042 3.1391 15.2022 4.33108 14.5816C5.04156 14.2117 5.63514 13.4472 5.8142 12.6715C5.89319 12.3292 5.892 11.6682 5.81176 11.3202C5.63495 10.5532 4.953 9.69827 4.25203 9.36492C3.61292 9.06091 2.85122 8.98398 2.20472 9.15816ZM10.2443 9.15366C9.54976 9.34497 8.80282 9.90147 8.46347 10.4805C7.93599 11.3806 7.93599 12.6218 8.46347 13.5218C8.67061 13.8753 9.28965 14.4478 9.65708 14.6256C10.3313 14.952 9.90575 14.9391 20.0151 14.9399C30.3134 14.9407 29.7726 14.9593 30.4836 14.5792C30.9459 14.3321 31.4631 13.7918 31.7013 13.3069C32.5287 11.623 31.6102 9.6296 29.7883 9.15503C29.4779 9.07417 28.1678 9.06247 19.9838 9.06729C12.4739 9.07179 10.4774 9.08943 10.2443 9.15366ZM2.56052 18.1387C1.42376 18.2535 0.40302 19.1702 0.0949394 20.3531C-0.329782 21.9837 0.794407 23.6588 2.50724 23.9477C4.25372 24.2423 5.87812 22.8404 5.87812 21.0385C5.87812 19.2602 4.38424 17.9545 2.56052 18.1387ZM10.5758 18.1353C9.62893 18.2581 8.7596 18.9032 8.33069 19.8014C8.10429 20.2756 8.09835 20.3063 8.09835 21.0072C8.09835 21.6095 8.12212 21.789 8.24457 22.1116C8.52889 22.8606 9.26657 23.5653 10.0684 23.8541C10.4046 23.9751 10.6245 23.9783 19.7624 23.9956C26.5233 24.0085 29.2305 23.9937 29.5389 23.9424C31.2223 23.662 32.3463 21.9712 31.9248 20.3531C31.6148 19.1627 30.6332 18.2854 29.4374 18.1301C28.8791 18.0575 11.138 18.0625 10.5758 18.1353Z" fill="#505050"/>
</svg>
