<svg width="60" height="60" viewBox="0 0 60 60" fill="none" xmlns="http://www.w3.org/2000/svg">
<path d="M41.4696 60C38.1709 59.3537 34.9703 58.431 31.9124 56.9913C23.6434 53.0956 16.6494 47.5908 10.8767 40.5126C6.72666 35.4179 3.32102 29.8908 1.22592 23.6283C0.321017 20.9137 -0.25402 18.1324 0.111507 15.2262C0.392339 12.9975 1.36411 11.1433 2.91091 9.56095C4.22146 8.21929 5.53647 6.87764 6.87377 5.56719C9.78016 2.72341 13.0432 2.7145 15.9674 5.5761C18.1739 7.73344 20.3582 9.91753 22.5112 12.1328C25.4221 15.1192 25.4354 18.1769 22.5781 21.2079C21.3478 22.5139 20.0684 23.7709 18.7712 25.0903C20.0729 27.9831 22.0253 30.4524 24.1695 32.7836C27.0134 35.8725 30.1338 38.6271 33.847 40.6686C34.5602 41.0608 34.9837 41.0118 35.5409 40.4145C36.7489 39.1353 37.9882 37.8828 39.3076 36.7283C41.7103 34.6289 44.7103 34.6512 47.0238 36.8576C49.5959 39.3091 52.1189 41.823 54.5573 44.4083C56.8931 46.8866 56.9644 50.0423 54.6286 52.5206C52.5513 54.727 50.3091 56.7996 47.9599 58.7118C47.0595 59.4473 45.6732 59.5899 44.5097 60C43.5023 60 42.4859 60 41.4696 60ZM3.44583 16.3182C3.47258 20.8157 4.93023 24.4127 6.69546 27.8538C12.0001 38.1992 19.6539 46.3561 29.8173 52.0793C33.7489 54.2946 37.8232 56.1444 42.4102 56.5322C44.5498 56.7149 46.4265 56.1622 47.951 54.5843C49.1992 53.2917 50.4785 52.0258 51.7177 50.7243C53.327 49.0305 53.3359 47.9786 51.7044 46.3071C49.5469 44.0963 47.3626 41.9166 45.1561 39.7548C43.5781 38.2082 42.5617 38.2304 40.9525 39.7905C39.6643 41.043 38.4161 42.3401 37.1323 43.597C35.746 44.961 34.9035 45.0412 33.1516 44.1587C28.8366 41.979 25.2036 38.9213 21.9362 35.4134C19.4265 32.7212 17.1219 29.864 15.6152 26.4542C14.8574 24.7426 15.0001 23.8957 16.3374 22.563C17.5855 21.3238 18.8693 20.1203 20.0952 18.8589C21.7222 17.1874 21.7356 16.2202 20.1219 14.5665C17.9644 12.3557 15.7802 10.1761 13.5825 8.0098C12.0446 6.49877 10.8901 6.48985 9.33439 7.9786C8.06396 9.19545 6.86039 10.4792 5.59442 11.7005C4.12339 13.109 3.34331 14.776 3.44583 16.3182Z" fill="#E7E7E7"/>
<path d="M59.9999 27.1673C59.4828 27.9474 58.8855 28.6071 57.8201 28.3307C56.8172 28.0722 56.6344 27.2387 56.4338 26.3695C53.7592 14.7715 46.7161 7.26541 35.2956 3.89567C34.5512 3.67726 33.7666 3.57474 33.0178 3.36971C31.8543 3.05324 31.3238 2.21526 31.6002 1.20345C31.8543 0.276327 32.7013 -0.182777 33.838 0.0712901C47.5809 3.13347 56.1842 11.4999 59.6611 25.1393C59.7548 25.5092 59.8885 25.8658 60.0044 26.2313C59.9999 26.5433 59.9999 26.8553 59.9999 27.1673Z" fill="#E7E7E7"/>
<path d="M33.0758 10.907C36.0223 11.3483 38.7905 12.5875 41.2601 14.4105C45.1917 17.3211 47.737 21.2035 48.8693 25.9817C48.9406 26.2848 48.9941 26.5924 49.0253 26.9044C49.11 27.8805 48.7579 28.5937 47.7549 28.8478C46.8277 29.084 46.0387 28.5892 45.7088 27.573C45.3165 26.3517 45.058 25.0769 44.5454 23.909C42.3968 18.9882 38.688 15.8547 33.4815 14.5041C33.1026 14.406 32.7192 14.3347 32.3492 14.2144C31.4087 13.9113 30.9317 13.2739 31.0699 12.2665C31.1902 11.3884 31.9347 10.8625 33.0758 10.907Z" fill="#E7E7E7"/>
</svg>
