<svg width="150" height="150" viewBox="0 0 150 150" fill="none" xmlns="http://www.w3.org/2000/svg">
<path d="M145.385 147.692L147.692 147.692M147.692 147.692L150 147.692M147.692 147.692L147.692 145.385M147.692 147.692L147.692 150M145.385 131.538L147.692 131.538M147.692 131.538L150 131.538M147.692 131.538L147.692 129.231M147.692 131.538L147.692 133.846M145.385 115.385L147.692 115.385M147.692 115.385L150 115.385M147.692 115.385L147.692 113.077M147.692 115.385L147.692 117.692M145.385 99.2308L147.692 99.2308M147.692 99.2308L150 99.2308M147.692 99.2308L147.692 96.9231M147.692 99.2308L147.692 101.538M145.385 83.0769L147.692 83.0769M147.692 83.0769L150 83.0769M147.692 83.0769L147.692 80.7692M147.692 83.0769L147.692 85.3846M145.385 66.9231L147.692 66.9231M147.692 66.9231L150 66.9231M147.692 66.9231L147.692 64.6154M147.692 66.9231L147.692 69.2308M145.385 50.7692L147.692 50.7692M147.692 50.7692L150 50.7692M147.692 50.7692L147.692 48.4615M147.692 50.7692L147.692 53.0769M145.385 34.6154L147.692 34.6154M147.692 34.6154L150 34.6154M147.692 34.6154L147.692 32.3077M147.692 34.6154L147.692 36.9231M145.385 18.4615L147.692 18.4615M147.692 18.4615L150 18.4615M147.692 18.4615L147.692 16.1538M147.692 18.4615L147.692 20.7692M145.385 2.30769L147.692 2.30769M147.692 2.30769L150 2.30769M147.692 2.30769L147.692 -1.00872e-07M147.692 2.30769L147.692 4.61538M129.231 147.692L131.538 147.692M131.538 147.692L133.846 147.692M131.538 147.692L131.538 145.385M131.538 147.692L131.538 150M129.231 131.538L131.538 131.538M131.538 131.538L133.846 131.538M131.538 131.538L131.538 129.231M131.538 131.538L131.538 133.846M129.231 115.385L131.538 115.385M131.538 115.385L133.846 115.385M131.538 115.385L131.538 113.077M131.538 115.385L131.538 117.692M129.231 99.2308L131.538 99.2308M131.538 99.2308L133.846 99.2308M131.538 99.2308L131.538 96.9231M131.538 99.2308L131.538 101.538M129.231 83.0769L131.538 83.0769M131.538 83.0769L133.846 83.0769M131.538 83.0769L131.538 80.7692M131.538 83.0769L131.538 85.3846M129.231 66.9231L131.538 66.9231M131.538 66.9231L133.846 66.9231M131.538 66.9231L131.538 64.6154M131.538 66.9231L131.538 69.2308M129.231 50.7692L131.538 50.7692M131.538 50.7692L133.846 50.7692M131.538 50.7692L131.538 48.4615M131.538 50.7692L131.538 53.0769M129.231 34.6154L131.538 34.6154M131.538 34.6154L133.846 34.6154M131.538 34.6154L131.538 32.3077M131.538 34.6154L131.538 36.9231M129.231 18.4615L131.538 18.4615M131.538 18.4615L133.846 18.4615M131.538 18.4615L131.538 16.1538M131.538 18.4615L131.538 20.7692M129.231 2.30769L131.538 2.30769M131.538 2.30769L133.846 2.30769M131.538 2.30769L131.538 -8.06979e-07M131.538 2.30769L131.538 4.61538M113.077 147.692L115.385 147.692M115.385 147.692L117.692 147.692M115.385 147.692L115.385 145.385M115.385 147.692L115.385 150M113.077 131.538L115.385 131.538M115.385 131.538L117.692 131.538M115.385 131.538L115.385 129.231M115.385 131.538L115.385 133.846M113.077 115.385L115.385 115.385M115.385 115.385L117.692 115.385M115.385 115.385L115.385 113.077M115.385 115.385L115.385 117.692M113.077 99.2308L115.385 99.2308M115.385 99.2308L117.692 99.2308M115.385 99.2308L115.385 96.9231M115.385 99.2308L115.385 101.538M113.077 83.0769L115.385 83.0769M115.385 83.0769L117.692 83.0769M115.385 83.0769L115.385 80.7692M115.385 83.0769L115.385 85.3846M113.077 66.9231L115.385 66.9231M115.385 66.9231L117.692 66.9231M115.385 66.9231L115.385 64.6154M115.385 66.9231L115.385 69.2308M113.077 50.7692L115.385 50.7692M115.385 50.7692L117.692 50.7692M115.385 50.7692L115.385 48.4615M115.385 50.7692L115.385 53.0769M113.077 34.6154L115.385 34.6154M115.385 34.6154L117.692 34.6154M115.385 34.6154L115.385 32.3077M115.385 34.6154L115.385 36.9231M113.077 18.4615L115.385 18.4615M115.385 18.4615L117.692 18.4615M115.385 18.4615L115.385 16.1538M115.385 18.4615L115.385 20.7692M113.077 2.30769L115.385 2.30769M115.385 2.30769L117.692 2.30769M115.385 2.30769L115.385 -1.51309e-06M115.385 2.30769L115.385 4.61538M96.9231 147.692L99.2308 147.692M99.2308 147.692L101.538 147.692M99.2308 147.692L99.2308 145.385M99.2308 147.692L99.2308 150M96.9231 131.538L99.2308 131.538M99.2308 131.538L101.538 131.538M99.2308 131.538L99.2308 129.231M99.2308 131.538L99.2308 133.846M96.9231 115.385L99.2308 115.385M99.2308 115.385L101.538 115.385M99.2308 115.385L99.2308 113.077M99.2308 115.385L99.2308 117.692M96.9231 99.2308L99.2308 99.2308M99.2308 99.2308L101.538 99.2308M99.2308 99.2308L99.2308 96.9231M99.2308 99.2308L99.2308 101.538M96.9231 83.0769L99.2308 83.0769M99.2308 83.0769L101.538 83.0769M99.2308 83.0769L99.2308 80.7692M99.2308 83.0769L99.2308 85.3846M96.9231 66.9231L99.2308 66.9231M99.2308 66.9231L101.538 66.9231M99.2308 66.9231L99.2308 64.6154M99.2308 66.9231L99.2308 69.2308M96.9231 50.7692L99.2308 50.7692M99.2308 50.7692L101.538 50.7692M99.2308 50.7692L99.2308 48.4615M99.2308 50.7692L99.2308 53.0769M96.9231 34.6154L99.2308 34.6154M99.2308 34.6154L101.538 34.6154M99.2308 34.6154L99.2308 32.3077M99.2308 34.6154L99.2308 36.9231M96.9231 18.4615L99.2308 18.4615M99.2308 18.4615L101.538 18.4615M99.2308 18.4615L99.2308 16.1538M99.2308 18.4615L99.2308 20.7692M96.9231 2.30769L99.2308 2.30769M99.2308 2.30769L101.538 2.30769M99.2308 2.30769L99.2308 -2.21919e-06M99.2308 2.30769L99.2308 4.61538M80.7692 147.692L83.0769 147.692M83.0769 147.692L85.3846 147.692M83.0769 147.692L83.0769 145.385M83.0769 147.692L83.0769 150M80.7692 131.538L83.0769 131.538M83.0769 131.538L85.3846 131.538M83.0769 131.538L83.0769 129.231M83.0769 131.538L83.0769 133.846M80.7692 115.385L83.0769 115.385M83.0769 115.385L85.3846 115.385M83.0769 115.385L83.0769 113.077M83.0769 115.385L83.0769 117.692M80.7692 99.2308L83.0769 99.2308M83.0769 99.2308L85.3846 99.2308M83.0769 99.2308L83.0769 96.9231M83.0769 99.2308L83.0769 101.538M80.7692 83.0769L83.0769 83.0769M83.0769 83.0769L85.3846 83.0769M83.0769 83.0769L83.0769 80.7692M83.0769 83.0769L83.0769 85.3846M80.7692 66.9231L83.0769 66.9231M83.0769 66.9231L85.3846 66.9231M83.0769 66.9231L83.0769 64.6154M83.0769 66.9231L83.0769 69.2308M80.7692 50.7692L83.0769 50.7692M83.0769 50.7692L85.3846 50.7692M83.0769 50.7692L83.0769 48.4615M83.0769 50.7692L83.0769 53.0769M80.7692 34.6154L83.0769 34.6154M83.0769 34.6154L85.3846 34.6154M83.0769 34.6154L83.0769 32.3077M83.0769 34.6154L83.0769 36.9231M80.7692 18.4615L83.0769 18.4615M83.0769 18.4615L85.3846 18.4615M83.0769 18.4615L83.0769 16.1538M83.0769 18.4615L83.0769 20.7692M80.7692 2.30769L83.0769 2.30769M83.0769 2.30769L85.3846 2.30769M83.0769 2.30769L83.0769 -2.9253e-06M83.0769 2.30769L83.0769 4.61538M64.6154 147.692L66.9231 147.692M66.9231 147.692L69.2308 147.692M66.9231 147.692L66.9231 145.385M66.9231 147.692L66.9231 150M64.6154 131.538L66.9231 131.538M66.9231 131.538L69.2308 131.538M66.9231 131.538L66.9231 129.231M66.9231 131.538L66.9231 133.846M64.6154 115.385L66.9231 115.385M66.9231 115.385L69.2308 115.385M66.9231 115.385L66.9231 113.077M66.9231 115.385L66.9231 117.692M64.6154 99.2308L66.9231 99.2308M66.9231 99.2308L69.2308 99.2308M66.9231 99.2308L66.9231 96.9231M66.9231 99.2308L66.9231 101.538M64.6154 83.0769L66.9231 83.0769M66.9231 83.0769L69.2308 83.0769M66.9231 83.0769L66.9231 80.7692M66.9231 83.0769L66.9231 85.3846M64.6154 66.9231L66.9231 66.9231M66.9231 66.9231L69.2308 66.9231M66.9231 66.9231L66.9231 64.6154M66.9231 66.9231L66.9231 69.2308M64.6154 50.7692L66.9231 50.7692M66.9231 50.7692L69.2308 50.7692M66.9231 50.7692L66.9231 48.4615M66.9231 50.7692L66.9231 53.0769M64.6154 34.6154L66.9231 34.6154M66.9231 34.6154L69.2308 34.6154M66.9231 34.6154L66.9231 32.3077M66.9231 34.6154L66.9231 36.9231M64.6154 18.4615L66.9231 18.4615M66.9231 18.4615L69.2308 18.4615M66.9231 18.4615L66.9231 16.1538M66.9231 18.4615L66.9231 20.7692M64.6154 2.30769L66.9231 2.30769M66.9231 2.30769L69.2308 2.30769M66.9231 2.30769L66.9231 -3.63141e-06M66.9231 2.30769L66.9231 4.61538M48.4615 147.692L50.7692 147.692M50.7692 147.692L53.0769 147.692M50.7692 147.692L50.7692 145.385M50.7692 147.692L50.7692 150M48.4615 131.538L50.7692 131.538M50.7692 131.538L53.0769 131.538M50.7692 131.538L50.7692 129.231M50.7692 131.538L50.7692 133.846M48.4615 115.385L50.7692 115.385M50.7692 115.385L53.0769 115.385M50.7692 115.385L50.7692 113.077M50.7692 115.385L50.7692 117.692M48.4615 99.2308L50.7692 99.2308M50.7692 99.2308L53.0769 99.2308M50.7692 99.2308L50.7692 96.9231M50.7692 99.2308L50.7692 101.538M48.4615 83.0769L50.7692 83.0769M50.7692 83.0769L53.0769 83.0769M50.7692 83.0769L50.7692 80.7692M50.7692 83.0769L50.7692 85.3846M48.4615 66.9231L50.7692 66.9231M50.7692 66.9231L53.0769 66.9231M50.7692 66.9231L50.7692 64.6154M50.7692 66.9231L50.7692 69.2308M48.4615 50.7692L50.7692 50.7692M50.7692 50.7692L53.0769 50.7692M50.7692 50.7692L50.7692 48.4615M50.7692 50.7692L50.7692 53.0769M48.4615 34.6154L50.7692 34.6154M50.7692 34.6154L53.0769 34.6154M50.7692 34.6154L50.7692 32.3077M50.7692 34.6154L50.7692 36.9231M48.4615 18.4615L50.7692 18.4615M50.7692 18.4615L53.0769 18.4615M50.7692 18.4615L50.7692 16.1538M50.7692 18.4615L50.7692 20.7692M48.4615 2.30769L50.7692 2.30769M50.7692 2.30769L53.0769 2.30769M50.7692 2.30769L50.7692 -4.33752e-06M50.7692 2.30769L50.7692 4.61538M32.3077 147.692L34.6154 147.692M34.6154 147.692L36.9231 147.692M34.6154 147.692L34.6154 145.385M34.6154 147.692L34.6154 150M32.3077 131.538L34.6154 131.538M34.6154 131.538L36.9231 131.538M34.6154 131.538L34.6154 129.231M34.6154 131.538L34.6154 133.846M32.3077 115.385L34.6154 115.385M34.6154 115.385L36.9231 115.385M34.6154 115.385L34.6154 113.077M34.6154 115.385L34.6154 117.692M32.3077 99.2308L34.6154 99.2308M34.6154 99.2308L36.9231 99.2308M34.6154 99.2308L34.6154 96.9231M34.6154 99.2308L34.6154 101.538M32.3077 83.0769L34.6154 83.0769M34.6154 83.0769L36.9231 83.0769M34.6154 83.0769L34.6154 80.7692M34.6154 83.0769L34.6154 85.3846M32.3077 66.9231L34.6154 66.9231M34.6154 66.9231L36.9231 66.9231M34.6154 66.9231L34.6154 64.6154M34.6154 66.9231L34.6154 69.2308M32.3077 50.7692L34.6154 50.7692M34.6154 50.7692L36.9231 50.7692M34.6154 50.7692L34.6154 48.4615M34.6154 50.7692L34.6154 53.0769M32.3077 34.6154L34.6154 34.6154M34.6154 34.6154L36.9231 34.6154M34.6154 34.6154L34.6154 32.3077M34.6154 34.6154L34.6154 36.9231M32.3077 18.4615L34.6154 18.4615M34.6154 18.4615L36.9231 18.4615M34.6154 18.4615L34.6154 16.1538M34.6154 18.4615L34.6154 20.7692M32.3077 2.30769L34.6154 2.30769M34.6154 2.30769L36.9231 2.30769M34.6154 2.30769L34.6154 -5.04362e-06M34.6154 2.30769L34.6154 4.61538M16.1538 147.692L18.4615 147.692M18.4615 147.692L20.7692 147.692M18.4615 147.692L18.4615 145.385M18.4615 147.692L18.4615 150M16.1538 131.538L18.4615 131.538M18.4615 131.538L20.7692 131.538M18.4615 131.538L18.4615 129.231M18.4615 131.538L18.4615 133.846M16.1538 115.385L18.4615 115.385M18.4615 115.385L20.7692 115.385M18.4615 115.385L18.4615 113.077M18.4615 115.385L18.4615 117.692M16.1538 99.2308L18.4615 99.2308M18.4615 99.2308L20.7692 99.2308M18.4615 99.2308L18.4615 96.9231M18.4615 99.2308L18.4615 101.538M16.1538 83.0769L18.4615 83.0769M18.4615 83.0769L20.7692 83.0769M18.4615 83.0769L18.4615 80.7692M18.4615 83.0769L18.4615 85.3846M16.1538 66.9231L18.4615 66.9231M18.4615 66.9231L20.7692 66.9231M18.4615 66.9231L18.4615 64.6154M18.4615 66.9231L18.4615 69.2308M16.1538 50.7692L18.4615 50.7692M18.4615 50.7692L20.7692 50.7692M18.4615 50.7692L18.4615 48.4615M18.4615 50.7692L18.4615 53.0769M16.1538 34.6154L18.4615 34.6154M18.4615 34.6154L20.7692 34.6154M18.4615 34.6154L18.4615 32.3077M18.4615 34.6154L18.4615 36.9231M16.1538 18.4615L18.4615 18.4615M18.4615 18.4615L20.7692 18.4615M18.4615 18.4615L18.4615 16.1538M18.4615 18.4615L18.4615 20.7692M16.1538 2.30769L18.4615 2.30769M18.4615 2.30769L20.7692 2.30769M18.4615 2.30769L18.4615 -5.74973e-06M18.4615 2.30769L18.4615 4.61538M-1.08827e-05 147.692L2.30768 147.692M2.30768 147.692L4.61537 147.692M2.30768 147.692L2.30768 145.385M2.30768 147.692L2.30768 150M-1.01765e-05 131.538L2.30768 131.538M2.30768 131.538L4.61537 131.538M2.30768 131.538L2.30768 129.231M2.30768 131.538L2.30768 133.846M-9.47044e-06 115.385L2.30769 115.385M2.30769 115.385L4.61537 115.385M2.30769 115.385L2.30769 113.077M2.30769 115.385L2.30769 117.692M-8.76433e-06 99.2308L2.30769 99.2308M2.30769 99.2308L4.61537 99.2308M2.30769 99.2308L2.30769 96.9231M2.30769 99.2308L2.30769 101.538M-8.05822e-06 83.0769L2.30769 83.0769M2.30769 83.0769L4.61537 83.0769M2.30769 83.0769L2.30769 80.7692M2.30769 83.0769L2.30769 85.3846M-7.35212e-06 66.9231L2.30769 66.9231M2.30769 66.9231L4.61537 66.9231M2.30769 66.9231L2.30769 64.6154M2.30769 66.9231L2.30769 69.2308M-6.64601e-06 50.7692L2.30769 50.7692M2.30769 50.7692L4.61537 50.7692M2.30769 50.7692L2.30769 48.4615M2.30769 50.7692L2.30769 53.0769M-5.9399e-06 34.6154L2.30769 34.6154M2.30769 34.6154L4.61537 34.6154M2.30769 34.6154L2.30769 32.3077M2.30769 34.6154L2.30769 36.9231M-5.23379e-06 18.4615L2.30769 18.4615M2.30769 18.4615L4.61537 18.4615M2.30769 18.4615L2.30769 16.1538M2.30769 18.4615L2.30769 20.7692M-4.52769e-06 2.30769L2.30769 2.30769M2.30769 2.30769L4.61537 2.30769M2.30769 2.30769L2.30769 -6.45584e-06M2.30769 2.30769L2.30769 4.61538" stroke="#0067B0" stroke-width="1.5"/>
</svg>
