<svg width="60" height="60" viewBox="0 0 60 60" fill="none" xmlns="http://www.w3.org/2000/svg">
<path d="M28.6 0C29.5362 0 30.4725 0 31.4132 0C32.5288 0.524973 33.7013 0.958075 34.7426 1.59679C36.1339 2.45425 37.3983 3.51294 38.7721 4.40102C39.2621 4.716 39.9052 4.93912 40.4827 4.95224C43.1734 5.00911 45.8685 4.96099 48.5591 4.98287C50.226 5.00036 50.9786 5.76158 51.0092 7.43711C51.0354 8.88079 51.0748 10.3288 50.9961 11.7681C50.9436 12.7306 51.2454 13.3299 52.0636 13.8768C54.7411 15.6836 57.3574 17.5822 60 19.4459C60 32.2552 60 45.0645 60 57.8739C59.2519 59.2169 58.2281 60 56.5743 60C38.8464 59.9738 21.1229 59.9869 3.39507 59.9781C1.16377 59.9781 0.0175004 58.8144 0.0175004 56.5658C0.00875018 44.5396 0.0175004 32.5177 0 20.4914C0 19.7521 0.214379 19.2927 0.844393 18.8596C3.32507 17.1666 5.7795 15.4298 8.18579 13.6362C8.59705 13.3299 8.92081 12.6562 8.95581 12.1312C9.06081 10.6569 8.98206 9.16515 8.99519 7.6821C9.00831 5.70033 9.70833 4.98724 11.6771 4.98287C14.254 4.96974 16.831 5.02224 19.4079 4.95224C20.0598 4.93474 20.7817 4.69413 21.3329 4.34415C23.7217 2.83923 25.7737 0.778709 28.6 0ZM11.0646 7.05651C11.0384 7.33649 11.0165 7.48961 11.0165 7.64273C11.0165 13.8505 11.0034 20.054 11.0515 26.2618C11.0559 26.708 11.3971 27.2767 11.7559 27.5786C16.5028 31.5727 21.2761 35.5363 26.0537 39.4954C28.4775 41.5078 31.54 41.5035 33.9857 39.4779C38.7371 35.545 43.4622 31.5859 48.2223 27.6704C48.791 27.2023 49.0141 26.7342 49.0098 25.9993C48.9791 20.0277 48.9923 14.0561 48.9923 8.0802C48.9923 7.74335 48.9485 7.40649 48.9266 7.05213C36.2739 7.05651 23.7174 7.05651 11.0646 7.05651ZM35.5914 40.8298C31.4175 43.739 28.67 43.739 24.4261 40.8341C17.6622 46.4557 10.8852 52.086 3.91571 57.8782C21.4379 57.8782 38.6277 57.8782 56.1105 57.8782C49.1191 52.0685 42.3465 46.4426 35.5914 40.8298ZM22.9124 39.4911C15.9735 33.7251 9.11769 28.0292 2.14379 22.2326C2.14379 33.817 2.14379 45.1914 2.14379 56.7495C9.13957 50.9311 15.9778 45.2526 22.9124 39.4911ZM57.9043 22.2107C50.8736 28.0554 44.0265 33.747 37.1095 39.4954C44.0834 45.2876 50.9086 50.9573 57.9043 56.767C57.9043 45.1783 57.9043 33.8214 57.9043 22.2107ZM57.3618 20.0583C55.2093 18.5315 53.2274 17.1272 51.1098 15.6267C51.1098 18.8859 51.1098 21.9526 51.1098 25.2512C53.2667 23.4575 55.2574 21.8082 57.3618 20.0583ZM8.94706 15.6092C6.76827 17.1491 4.77322 18.5622 2.66006 20.0583C4.75135 21.7907 6.76389 23.4619 8.94706 25.2687C8.94706 21.9395 8.94706 18.9034 8.94706 15.6092ZM35.8582 4.91724C30.9888 0.625592 27.8606 1.54429 24.3211 4.91724C28.1318 4.91724 31.8813 4.91724 35.8582 4.91724Z" fill="white"/>
</svg>
