<svg width="500" height="311" viewBox="0 0 500 311" fill="none" xmlns="http://www.w3.org/2000/svg">
<path d="M449.9 288.27H416.78V288.52H449.9V288.27Z" fill="#EBEBEB"/>
<path d="M331.22 290.98H322.53V291.23H331.22V290.98Z" fill="#EBEBEB"/>
<path d="M415.78 278.98H396.59V279.23H415.78V278.98Z" fill="#EBEBEB"/>
<path d="M95.65 280.66H52.46V280.91H95.65V280.66Z" fill="#EBEBEB"/>
<path d="M110.89 280.66H104.56V280.91H110.89V280.66Z" fill="#EBEBEB"/>
<path d="M225.15 284.88H131.47V285.13H225.15V284.88Z" fill="#EBEBEB"/>
<path d="M500 272.17H0V272.42H500V272.17Z" fill="#EBEBEB"/>
<path d="M243.52 244.38L242.72 244.48C242.67 244.07 237.81 203.39 247.84 170.15C257.81 137.11 250.94 116.06 250.87 115.85L251.64 115.59C251.71 115.8 258.65 137.1 248.61 170.39C238.63 203.46 243.47 243.98 243.52 244.38Z" fill="#E0E0E0"/>
<path d="M252.3 120.38C250.57 118.31 248.17 116.83 245.54 116.22L245.72 115.43C248.52 116.09 251.07 117.66 252.91 119.86L252.3 120.38Z" fill="#E0E0E0"/>
<path d="M255.719 123.768L253.412 125.071L253.811 125.776L256.118 124.473L255.719 123.768Z" fill="#E0E0E0"/>
<path d="M251.43 142.5C249.44 137.95 245.66 134.28 241.05 132.43L241.35 131.68C246.16 133.61 250.1 137.43 252.17 142.18L251.43 142.5Z" fill="#E0E0E0"/>
<path d="M249.27 167.92L248.46 167.93C248.42 164.65 246.86 161.47 244.28 159.44L244.78 158.81C247.55 160.98 249.22 164.39 249.27 167.92Z" fill="#E0E0E0"/>
<path d="M247.47 174.41L246.72 174.11C247.53 172.05 249.25 170.36 251.31 169.58L251.6 170.33C249.74 171.04 248.19 172.57 247.47 174.41Z" fill="#E0E0E0"/>
<path d="M242.23 215.65L241.61 215.13C242.59 213.95 243.33 209.44 243.73 207.01C243.83 206.43 243.91 205.94 243.97 205.58L244.76 205.73C244.69 206.08 244.61 206.57 244.52 207.14C243.94 210.76 243.27 214.4 242.23 215.65Z" fill="#E0E0E0"/>
<path d="M241.77 228.59C240.73 225.4 237.41 223.11 234.06 223.27L234.02 222.46C237.72 222.29 241.38 224.81 242.53 228.33L241.77 228.59Z" fill="#E0E0E0"/>
<path d="M247.92 237.02L242.23 243.387L242.834 243.927L248.524 237.56L247.92 237.02Z" fill="#E0E0E0"/>
<path d="M251.96 195.52C253.25 199.69 244.26 207.64 244.26 207.64C244.26 207.64 232.35 206.15 231.07 201.98C229.78 197.81 232.8 190.98 238.57 189.2C244.33 187.41 250.67 191.35 251.96 195.52Z" fill="#F0F0F0"/>
<path d="M261.94 144.88C260.8 149.31 252.28 152.46 252.28 152.46C252.28 152.46 246.34 145.59 247.48 141.16C248.62 136.73 253.33 131.85 257.32 132.87C261.31 133.9 263.08 140.45 261.94 144.88Z" fill="#EBEBEB"/>
<path d="M227.77 211.11C233.12 213.19 236.39 222.65 236.39 222.65C236.39 222.65 227.58 227.4 222.23 225.32C216.88 223.24 211.22 217.37 212.75 213.45C214.28 209.52 222.42 209.02 227.77 211.11Z" fill="#F5F5F5"/>
<path d="M239.49 159.07C240.62 159.91 241.79 160.77 243.14 161.13C244.5 161.5 246.11 161.27 247.04 160.21C248.18 158.89 247.88 156.85 247.16 155.26C245.73 152.11 240.46 146.77 236.41 148.3C230.57 150.53 236.88 157.14 239.49 159.07Z" fill="#E6E6E6"/>
<path d="M251.45 167.1C250.68 168.05 249.87 169.25 250.29 170.39C250.66 171.41 251.91 171.87 252.98 171.71C254.05 171.55 254.98 170.91 255.87 170.3C257.93 168.87 262.16 165.86 259.46 163.05C256.66 160.13 253.06 165.1 251.45 167.1Z" fill="#EBEBEB"/>
<path d="M234.19 127.1C233.31 127.2 232.41 127.79 232.26 128.66C232.08 129.68 232.93 130.58 233.75 131.21C235.8 132.79 241.95 137.05 243.33 132.94C244.64 129.06 236.91 126.8 234.19 127.1Z" fill="#E0E0E0"/>
<path d="M245.54 113.58C244.27 113.7 243 113.24 241.73 113.32C240.46 113.4 239.04 114.42 239.33 115.67C239.59 116.82 241.02 117.2 242.2 117.28C244.21 117.41 246.23 117.27 248.2 116.87C248.66 116.78 249.16 116.64 249.42 116.25C249.93 115.49 249.12 114.48 248.24 114.21C247.36 113.94 246.38 114.03 245.58 113.58H245.54Z" fill="#E6E6E6"/>
<path d="M257.95 122.32C259.23 122.36 260.46 121.81 261.73 121.81C263.01 121.81 264.48 122.74 264.28 124C264.1 125.16 262.69 125.64 261.52 125.79C259.53 126.05 257.5 126.04 255.5 125.77C255.04 125.71 254.53 125.6 254.24 125.24C253.68 124.52 254.43 123.45 255.28 123.12C256.14 122.79 257.13 122.82 257.89 122.31L257.95 122.32Z" fill="#F0F0F0"/>
<path d="M256.7 216.28C257.01 216.01 257.37 215.74 257.78 215.74C258.33 215.74 258.76 216.26 258.86 216.8C258.96 217.34 258.81 217.89 258.65 218.41C257.79 221.3 248.08 242.25 245.85 238.49C244.53 236.27 247.77 228.9 248.73 226.82C250.59 222.79 253.3 219.15 256.7 216.28Z" fill="#F0F0F0"/>
<path d="M250.89 114.38C251.66 112.65 252.49 110.84 254.02 109.73C255.55 108.62 258 108.53 259.12 110.06C260.37 111.77 259.12 114.37 257.21 115.28C255.3 116.19 253.06 115.92 250.97 115.62C250.95 115.31 250.94 115 250.92 114.69L250.89 114.38Z" fill="#E6E6E6"/>
<path d="M257.67 272.33C247.35 274.09 236.59 274.09 226.27 272.33L214.06 236.29H269.89L257.67 272.33Z" fill="#F0F0F0"/>
<path d="M430.349 252.68L435.429 171.82C437.319 141.79 413.469 116.39 383.379 116.39C355.709 116.39 332.859 137.99 331.309 165.61L325.979 260.05H422.499C426.649 260.05 430.089 256.82 430.349 252.68Z" fill="#0067B0"/>
<path opacity="0.1" d="M430.53 249.75L435.42 171.82C437.31 141.79 413.46 116.39 383.37 116.39C355.7 116.39 332.85 137.99 331.3 165.61L325.97 260.05H419.56C425.37 260.05 430.17 255.54 430.53 249.75Z" fill="black"/>
<path d="M414.69 260.05L420.23 171.82C422.12 141.79 398.27 116.39 368.18 116.39C340.51 116.39 317.66 137.99 316.11 165.61L310.78 260.05H414.69Z" fill="#0067B0"/>
<path d="M416.35 275.24H417.68C418.36 275.24 418.99 274.67 419.1 273.88L421.07 260.05H412.96L414.93 273.88C415.03 274.67 415.67 275.24 416.35 275.24Z" fill="#0067B0"/>
<path opacity="0.7" d="M416.35 275.24H417.68C418.36 275.24 418.99 274.67 419.1 273.88L421.07 260.05H412.96L414.93 273.88C415.03 274.67 415.67 275.24 416.35 275.24Z" fill="white"/>
<path d="M285.7 275.24H286.91C287.53 275.24 288.1 274.67 288.2 273.88L289.98 260.05H282.63L284.41 273.88C284.51 274.67 285.08 275.24 285.7 275.24Z" fill="#0067B0"/>
<path opacity="0.5" d="M285.7 275.24H286.91C287.53 275.24 288.1 274.67 288.2 273.88L289.98 260.05H282.63L284.41 273.88C284.51 274.67 285.08 275.24 285.7 275.24Z" fill="white"/>
<path d="M323.31 275.24H324.52C325.14 275.24 325.71 274.67 325.81 273.88L327.59 260.05H320.24L322.02 273.88C322.12 274.67 322.7 275.24 323.31 275.24Z" fill="#0067B0"/>
<path opacity="0.7" d="M323.31 275.24H324.52C325.14 275.24 325.71 274.67 325.81 273.88L327.59 260.05H320.24L322.02 273.88C322.12 274.67 322.7 275.24 323.31 275.24Z" fill="white"/>
<path d="M375.85 275.24H377.18C377.86 275.24 378.49 274.67 378.6 273.88L380.57 260.05H372.46L374.43 273.88C374.54 274.67 375.17 275.24 375.85 275.24Z" fill="#0067B0"/>
<path opacity="0.5" d="M375.85 275.24H377.18C377.86 275.24 378.49 274.67 378.6 273.88L380.57 260.05H372.46L374.43 273.88C374.54 274.67 375.17 275.24 375.85 275.24Z" fill="white"/>
<path d="M331.82 226.73H296.26L293.9 192.45L293.4 185.09V185.08L293.17 181.69C293.1 180.78 292.99 179.9 292.82 179.04C292.78 178.85 292.73 178.65 292.69 178.45C292.67 178.3 292.63 178.16 292.58 178.02C291.57 174.42 289.67 171.25 287.16 168.82C284.16 165.91 280.31 164.07 276.06 163.81H309.5C309.87 163.79 310.23 163.78 310.6 163.78C315.24 163.78 319.48 165.69 322.72 168.82C325.23 171.25 327.12 174.42 328.14 178.02C328.19 178.16 328.23 178.3 328.25 178.45C328.48 179.49 328.65 180.57 328.72 181.69L328.95 185.08V185.09L331.82 226.73Z" fill="#0067B0"/>
<path opacity="0.1" d="M331.82 226.73H296.26L293.9 192.45L293.4 185.09V185.08L293.17 181.69C293.1 180.78 292.99 179.9 292.82 179.04C292.78 178.85 292.73 178.65 292.69 178.45C292.67 178.3 292.63 178.16 292.58 178.02C291.57 174.42 289.67 171.25 287.16 168.82C284.16 165.91 280.31 164.07 276.06 163.81H309.5C309.87 163.79 310.23 163.78 310.6 163.78C315.24 163.78 319.48 165.69 322.72 168.82C325.23 171.25 327.12 174.42 328.14 178.02C328.19 178.16 328.23 178.3 328.25 178.45C328.48 179.49 328.65 180.57 328.72 181.69L328.95 185.08V185.09L331.82 226.73Z" fill="black"/>
<g opacity="0.1">
<path d="M360 208.47H374.28C377.75 208.47 380.57 210.67 380.57 213.38V221.83C380.57 224.54 377.76 226.74 374.28 226.74H360V208.47Z" fill="black"/>
</g>
<path d="M301.69 226.74H364.58C367.58 226.74 370 224.31 370 221.32V213.9C370 210.9 367.57 208.48 364.58 208.48H301.69C298.69 208.48 296.27 210.91 296.27 213.9V221.32C296.26 224.31 298.69 226.74 301.69 226.74Z" fill="#0067B0"/>
<path d="M450.03 184.05C450.03 194.06 442.77 202.39 433.22 204.02L429.54 252.74C429.22 256.88 426.22 260.06 422.62 260.06H383.4C387 260.06 390 256.89 390.32 252.74L392.29 226.73L394 204.01C400.35 202.92 405.68 198.89 408.54 193.35C408.73 193 408.9 192.63 409.06 192.25C410.19 189.74 410.81 186.97 410.81 184.04C410.81 182.62 410.66 181.24 410.38 179.91C410.27 179.37 410.14 178.82 409.99 178.3C409.27 175.88 408.12 173.66 406.62 171.71L406.61 171.7C404.75 169.27 402.35 167.3 399.6 165.93C396.87 164.56 393.8 163.79 390.55 163.79H429.77C431.85 163.79 433.86 164.11 435.76 164.7C436.83 165.03 437.85 165.45 438.83 165.94C441.58 167.31 443.97 169.28 445.84 171.71L445.85 171.72C448.46 175.13 450.03 179.4 450.03 184.05Z" fill="#0067B0"/>
<path opacity="0.1" d="M450.03 184.05C450.03 194.06 442.77 202.39 433.22 204.02L429.54 252.74C429.22 256.88 426.22 260.06 422.62 260.06H383.4C387 260.06 390 256.89 390.32 252.74L392.29 226.73L394 204.01C400.35 202.92 405.68 198.89 408.54 193.35C408.73 193 408.9 192.63 409.06 192.25C410.19 189.74 410.81 186.97 410.81 184.04C410.81 182.62 410.66 181.24 410.38 179.91C410.27 179.37 410.14 178.82 409.99 178.3C409.27 175.88 408.12 173.66 406.62 171.71L406.61 171.7C404.75 169.27 402.35 167.3 399.6 165.93C396.87 164.56 393.8 163.79 390.55 163.79H429.77C431.85 163.79 433.86 164.11 435.76 164.7C436.83 165.03 437.85 165.45 438.83 165.94C441.58 167.31 443.97 169.28 445.84 171.71L445.85 171.72C448.46 175.13 450.03 179.4 450.03 184.05Z" fill="black"/>
<path d="M410.81 184.05C410.81 194.06 404.22 202.39 395.57 204.02L392.23 252.74C391.94 256.89 389.22 260.06 385.95 260.06H281.21C277.95 260.06 275.23 256.88 274.93 252.74L271.58 203.94C263.1 202.16 256.69 193.93 256.69 184.05C256.69 179.68 257.95 175.64 260.07 172.34C261.81 169.64 264.14 167.42 266.85 165.93C269.32 164.55 272.11 163.78 275.06 163.78C279.7 163.78 283.94 165.69 287.18 168.82C289.69 171.24 291.58 174.42 292.6 178.02C292.64 178.16 292.69 178.3 292.7 178.45C292.94 179.49 293.09 180.57 293.17 181.68L293.41 185.07V185.08L296.26 226.72H370.9L373.99 181.68C374.43 175.32 377.53 170.02 381.83 167.51C384.54 165.37 387.81 164.05 391.34 163.82C391.71 163.78 392.07 163.77 392.44 163.77C395.3 163.77 398.01 164.49 400.42 165.8C400.5 165.83 400.57 165.88 400.65 165.92C403.14 167.3 405.32 169.27 407.01 171.69L407.02 171.7C409.38 175.13 410.81 179.4 410.81 184.05Z" fill="#0067B0"/>
<path opacity="0.1" d="M369.17 260.06H281.21C277.95 260.06 275.23 256.88 274.93 252.74L271.58 203.94C263.1 202.16 256.69 193.93 256.69 184.05C256.69 179.68 257.95 175.64 260.07 172.34C261.81 169.64 264.14 167.42 266.85 165.93C269.32 164.55 272.11 163.78 275.06 163.78C279.7 163.78 283.94 165.69 287.18 168.82C289.69 171.24 291.58 174.42 292.6 178.02C292.64 178.16 292.69 178.3 292.7 178.45C292.94 179.49 293.09 180.57 293.17 181.68L293.41 185.07V185.08L296.26 226.72H370.9L369.17 260.06Z" fill="white"/>
<path d="M357.76 121.49C356.02 122.45 354.43 123.32 352.79 124.16C351.15 125 349.48 125.8 347.82 126.57C344.46 128.11 341.06 129.56 337.55 130.84C334.02 132.16 330.43 133.29 326.79 134.25C323 135.27 319.14 135.96 315.23 136.32L314.41 136.4L314.01 136.37C310.48 135.96 307.35 135.32 304.21 134.67C301.07 134.02 297.96 133.28 294.88 132.5C291.8 131.72 288.74 130.9 285.69 130.02C282.64 129.14 279.59 128.23 276.57 127.2L277.96 120.26C284.25 120.67 290.53 121.3 296.75 121.91L306.04 122.84C309.1 123.13 312.23 123.4 314.97 123.5L313.76 123.53C316.9 122.97 319.99 122.19 323.02 121.19C326.16 120.16 329.29 119.05 332.41 117.7C335.53 116.35 338.64 114.98 341.73 113.52C343.3 112.8 344.84 112.03 346.34 111.29C347.84 110.54 349.44 109.75 350.81 109.03L357.76 121.49Z" fill="#263238"/>
<path opacity="0.1" d="M357.76 121.49C356.02 122.45 354.43 123.32 352.79 124.16C351.15 125 349.48 125.8 347.82 126.57C344.46 128.11 341.06 129.56 337.55 130.84C334.02 132.16 330.43 133.29 326.79 134.25C323 135.27 319.14 135.96 315.23 136.32L314.41 136.4L314.01 136.37C310.48 135.96 307.35 135.32 304.21 134.67C301.07 134.02 297.96 133.28 294.88 132.5C291.8 131.72 288.74 130.9 285.69 130.02C282.64 129.14 279.59 128.23 276.57 127.2L277.96 120.26C284.25 120.67 290.53 121.3 296.75 121.91L306.04 122.84C309.1 123.13 312.23 123.4 314.97 123.5L313.76 123.53C316.9 122.97 319.99 122.19 323.02 121.19C326.16 120.16 329.29 119.05 332.41 117.7C335.53 116.35 338.64 114.98 341.73 113.52C343.3 112.8 344.84 112.03 346.34 111.29C347.84 110.54 349.44 109.75 350.81 109.03L357.76 121.49Z" fill="black"/>
<path d="M276.63 116.48C274.29 114.8 271.79 114.11 271.79 114.11L269.2 124.22L276.96 127.48L277.84 126.4C280.33 123.35 279.83 118.77 276.63 116.48Z" fill="#FFC3BD"/>
<path d="M269.2 124.22L271.79 114.11L264.55 110.17L262.37 117.28L269.2 124.22Z" fill="#FFC3BD"/>
<path opacity="0.2" d="M333.41 131.72L333.69 131.71L333.81 131.73C337.63 131.32 348.85 129.43 356.98 121.42C355.76 119.08 354.1 117.27 352.07 116.86C346.48 115.84 339.62 119.85 333.41 131.72Z" fill="black"/>
<path d="M339.98 184.04C349.56 158.17 343.26 134.38 344.46 121.22C345.08 114.56 350.02 109.1 356.59 107.84C363.14 106.57 371.22 105.16 378.94 104.12C379.68 104.02 380.43 103.97 381.17 103.99C389.52 104.1 396.19 110.96 396.08 119.31C395.4 158.34 382.9 184.05 382.9 184.05L362.71 183.96L339.98 184.04Z" fill="#0067B0"/>
<path opacity="0.8" d="M339.98 184.04C349.56 158.17 343.26 134.38 344.46 121.22C345.08 114.56 350.02 109.1 356.59 107.84C363.14 106.57 371.22 105.16 378.94 104.12C379.68 104.02 380.43 103.97 381.17 103.99C389.52 104.1 396.19 110.96 396.08 119.31C395.4 158.34 382.9 184.05 382.9 184.05L362.71 183.96L339.98 184.04Z" fill="white"/>
<path d="M263.36 272.31L260.8 289.15H268.93L274.28 272.31H263.36Z" fill="#FFC3BD"/>
<path d="M259.76 285.39L270.63 285.14C271.01 285.12 271.31 285.38 271.31 285.74L271.33 293.72C271.28 294.59 270.48 295.32 269.54 295.35C265.76 295.38 263.96 295.21 259.18 295.32C254.06 295.3 248.98 294.97 243.97 294.32C240.1 293.66 241.14 290.02 242.9 289.96C250.81 289.67 255.22 288.02 258.06 285.98C258.55 285.61 259.15 285.41 259.76 285.39Z" fill="#263238"/>
<path opacity="0.2" d="M262.33 279.06L263.36 272.31H274.28L271.65 280.73L262.33 279.06Z" fill="black"/>
<path d="M334.97 177.98C334.97 177.98 268.82 178.64 267.8 199.59C266.34 229.71 261.25 275.63 261.25 275.63L273.73 279.06C273.73 279.06 291.52 233.53 292.22 210C310.82 206.29 358.66 210 364.28 197.78C367.03 191.42 367.76 184.62 366.4 177.98H334.97Z" fill="#0067B0"/>
<path opacity="0.6" d="M334.97 177.98C334.97 177.98 268.82 178.64 267.8 199.59C266.34 229.71 261.25 275.63 261.25 275.63L273.73 279.06C273.73 279.06 291.52 233.53 292.22 210C310.82 206.29 358.66 210 364.28 197.78C367.03 191.42 367.76 184.62 366.4 177.98H334.97Z" fill="black"/>
<path d="M321.56 278.82L325.97 290.24H334.89L331.82 278.23L321.56 278.82Z" fill="#FFC3BD"/>
<path opacity="0.2" d="M332.65 281.47L330.92 272.68L319.65 274.08L322.54 281.72L332.65 281.47Z" fill="black"/>
<path d="M323.55 286.46H334.93C335.33 286.44 335.66 286.73 335.68 287.11V287.12L336.24 295.65C336.24 296.58 335.45 297.35 334.46 297.36C330.5 297.3 328.6 297.07 323.59 297.07C320.52 297.07 314.3 297.37 310.05 297.37C305.79 297.37 305.92 293.39 307.72 293.06C315.81 291.44 318.94 289.21 321.8 287.07C322.3 286.69 322.92 286.48 323.55 286.46Z" fill="#263238"/>
<path d="M352.79 177.98C352.79 177.98 292.8 182.05 294.27 202.99C295.88 225.91 319.91 279.06 319.91 279.06H332.04C332.04 279.06 323.98 230.82 320.32 207.47C337.24 207.47 376.46 210.02 382.09 197.77C384.84 191.41 385.57 184.6 384.2 177.97L352.79 177.98Z" fill="#0067B0"/>
<path opacity="0.5" d="M352.79 177.98C352.79 177.98 292.8 182.05 294.27 202.99C295.88 225.91 319.91 279.06 319.91 279.06H332.04C332.04 279.06 323.98 230.82 320.32 207.47C337.24 207.47 376.46 210.02 382.09 197.77C384.84 191.41 385.57 184.6 384.2 177.97L352.79 177.98Z" fill="black"/>
<path d="M361.88 93.2C363.26 98.54 363.7 105.18 356.24 107.95C354.17 111.25 353.16 114.72 361.13 113.49C367.47 112.67 373.25 109.4 377.22 104.39C372.45 100.22 373.32 87.4 374.53 80.17L361.88 93.2Z" fill="#FFC3BD"/>
<path d="M361.03 102.91C354.19 104.09 348.55 109.38 345.53 115.63C342.51 121.88 341.78 129 341.84 135.95C341.9 142.89 342.69 149.83 342.51 156.77C342.3 164.79 340.36 170.44 337.6 177.98C337.6 179.77 340.31 180.78 342.61 181.25C347.39 170.82 350.53 160.85 350.19 149.38C349.95 141.06 349.83 131.58 351.19 123.37C352.53 115.28 362.36 104.46 361.89 102.98L361.03 102.91Z" fill="#263238"/>
<path opacity="0.3" d="M367.7 97.11C366.08 98.17 364.16 98.74 362.64 98.34C362.65 97.04 362.56 95.74 362.36 94.46L370.64 87.66C370.82 88.54 370.94 89.44 370.99 90.34C371.14 93.01 369.94 95.64 367.7 97.11Z" fill="black"/>
<path d="M355.32 61.62C346.56 66.56 346.47 80.56 349.17 88.64C349.94 91.03 351.43 93.12 353.43 94.62C358.78 98.64 366.38 97.56 370.4 92.2C374.68 86.79 374.06 81.33 373.85 71.93C373.64 62.56 364.08 56.67 355.32 61.62Z" fill="#FFC3BD"/>
<path opacity="0.2" d="M358.14 86.7601C355.32 87.9701 352.23 89.5401 349.38 89.2001C350.19 91.3501 351.59 93.2401 353.44 94.6301C358.79 98.6501 366.39 97.5701 370.41 92.2101C373.91 87.7801 375.01 84.7801 373.98 76.7001C368.52 83.1101 364.17 84.1801 358.14 86.7601Z" fill="black"/>
<path d="M366.6 64.73C364.71 67.63 365.1 71.8 367.49 74.3C368.28 75.13 369.25 75.77 370.01 76.63C371.18 77.94 371.82 79.73 371.73 81.49C372.03 79.2 374.17 77.29 376.48 77.26C375.29 80.93 374.11 84.59 372.92 88.26C377.63 86.13 381.05 81.4 381.61 76.26C382.36 69.2 373.6 53.98 366.6 64.73Z" fill="#263238"/>
<path d="M346.18 65.26C345.55 66.03 344.96 66.88 344.79 67.86C344.61 68.84 344.97 69.98 345.84 70.45C346.55 70.83 347.42 70.7 348.22 70.56C350.88 70.1 353.54 69.63 356.2 69.17C360.78 68.37 365.36 67.58 369.88 66.49C371.91 66 374.19 65.24 374.99 63.31C377.58 57.06 366.51 56.25 362.82 56.43C356.49 56.75 350.12 60.39 346.18 65.26Z" fill="#263238"/>
<path d="M375.28 75.6901C372.65 76.2801 371.54 80.0501 371.61 82.4701C371.63 85.2101 373.64 87.0001 375.92 85.3501C377.64 84.0701 378.82 82.1801 379.2 80.0701C379.68 77.4801 377.91 75.1001 375.28 75.6901Z" fill="#FFC3BD"/>
<path d="M356.77 85.24C356.77 85.24 355.27 86.22 354.05 85.65C355.06 83.39 354.93 83.9 355.24 80.05L356.77 85.24Z" fill="#ED847E"/>
<path d="M361.38 72.73C360.63 71.89 358.58 71.57 357.47 71.73C357.46 71.73 357.45 71.73 357.44 71.73C357.21 71.77 356.99 71.61 356.95 71.37C356.92 71.12 357.08 70.89 357.33 70.84C358.73 70.63 361.06 71.05 362.01 72.1L362.02 72.11C362.18 72.3 362.17 72.58 361.98 72.74C361.92 72.79 361.86 72.84 361.78 72.87C361.63 72.9 361.48 72.84 361.38 72.73Z" fill="#263238"/>
<path d="M348.44 74.6401C348.43 74.6301 348.42 74.6301 348.41 74.6201C348.21 74.4901 348.16 74.2201 348.29 74.0301C349 72.7501 350.27 71.8801 351.72 71.6801C351.73 71.6801 351.74 71.6801 351.75 71.6801C351.98 71.6801 352.17 71.8701 352.17 72.1001C352.18 72.3501 351.99 72.5601 351.74 72.5801C350.6 72.7601 349.6 73.4601 349.04 74.4801C348.96 74.6101 348.83 74.6901 348.68 74.7101C348.6 74.7101 348.51 74.6901 348.44 74.6401Z" fill="#263238"/>
<path d="M355.98 89.3101C357.07 90.5901 358.63 93.1601 358.63 93.1601C358.84 93.0801 359.05 92.9901 359.25 92.9001C362.07 91.6801 362.87 89.9801 362.9 88.4701C362.92 87.6401 362.69 86.8601 362.45 86.2601C362.17 85.5601 361.84 85.1001 361.84 85.1001C360.83 86.8301 358.32 88.2101 356.94 88.8801C356.36 89.1601 355.98 89.3101 355.98 89.3101Z" fill="#2E353A"/>
<path d="M356.931 88.8701L357.331 89.4301C357.561 89.7501 358.001 89.8701 358.361 89.7001C360.441 88.7201 361.821 87.6801 362.321 86.5701C362.421 86.3601 362.391 86.1101 362.291 85.8901C362.051 85.3901 361.831 85.0801 361.831 85.0801C360.831 86.8201 358.311 88.2101 356.931 88.8701Z" fill="white"/>
<path d="M359.25 92.8901C362.07 91.6701 362.87 89.9701 362.9 88.4601C361.96 88.9201 360.89 89.6001 360.11 90.5701C359.52 91.3001 359.3 92.1301 359.25 92.8901Z" fill="#DE5753"/>
<path d="M351.65 77.82C351.16 77.91 350.88 78.61 351.03 79.36C351.18 80.11 351.7 80.65 352.19 80.55C352.68 80.45 352.96 79.77 352.81 79.01C352.68 78.27 352.14 77.73 351.65 77.82Z" fill="#263238"/>
<path d="M360.23 76.39C359.74 76.48 359.46 77.17 359.61 77.93C359.76 78.68 360.28 79.22 360.77 79.12C361.26 79.02 361.54 78.33 361.39 77.58C361.26 76.85 360.72 76.3 360.23 76.39Z" fill="#263238"/>
<path opacity="0.9" d="M347.87 81.83L354.18 80.42L354.28 83.09L348.42 84.5L347.87 81.83Z" fill="white"/>
<g opacity="0.8">
<path opacity="0.9" d="M356.1 79.99L356.85 82.46L364.95 80.71L364.47 77.87L356.1 79.99Z" fill="white"/>
</g>
<path d="M354.22 81.4L354.18 80.42L356.1 79.99L356.39 80.93L354.22 81.4Z" fill="#263238"/>
<path d="M351.92 182.89C351.92 182.89 363.31 187.3 365.91 188.17C368.98 189.19 372.09 190.22 375.29 190.32C378.49 190.42 381.84 189.47 384.16 187.01C386.88 184.11 387.72 179.71 388.43 175.58C390.52 163.45 392.61 151.32 394.69 139.19C395.72 133.21 398.32 124.22 398.1 120.8C397.69 114.5 393.68 107.07 383.47 102.97C379.5 101.38 375.59 101.99 372.24 105.99C370.24 108.38 364.42 114.11 362.99 124.22C361.84 132.32 360.07 142.81 360.18 151.04C360.32 161.84 356.02 175.48 351.92 182.89Z" fill="#263238"/>
<path d="M397.55 117.47C398.71 128.01 392.88 154.58 391.76 156.18C386.98 171.6 373.86 163.29 371.95 162.58C368.64 161.36 365.27 158.97 362.12 157.38C356.01 154.35 350.22 151.9 344.54 148.12L347.74 141.8C353.96 143.93 371.6 148.48 374.5 149.19C375.76 149.52 380.67 152.1 380.62 148.7C381.32 147.57 382.28 125.56 384.39 117.79C384.63 116.91 385.05 116.11 385.62 115.4L385.81 115.16C389.22 110.88 396.02 112.23 397.55 117.47Z" fill="#263238"/>
<path opacity="0.1" d="M397.55 117.47C398.71 128.01 392.88 154.58 391.76 156.18C386.98 171.6 373.86 163.29 371.95 162.58C368.64 161.36 365.27 158.97 362.12 157.38C356.01 154.35 350.22 151.9 344.54 148.12L347.74 141.8C353.96 143.93 371.6 148.48 374.5 149.19C375.76 149.52 380.67 152.1 380.62 148.7C381.32 147.57 382.28 125.56 384.39 117.79C384.63 116.91 385.05 116.11 385.62 115.4L385.81 115.16C389.22 110.88 396.02 112.23 397.55 117.47Z" fill="white"/>
<path d="M345.23 157.28H315.64L312.26 118.65H341.86L345.23 157.28Z" fill="#263238"/>
<path opacity="0.5" d="M345.23 157.28H315.64L312.26 118.65H341.86L345.23 157.28Z" fill="white"/>
<path d="M344.19 157.08H314.59L311.21 118.46H340.81L344.19 157.08Z" fill="#0067B0"/>
<path opacity="0.8" d="M344.19 157.08H314.59L311.21 118.46H340.81L344.19 157.08Z" fill="white"/>
<path d="M332.45 120.87H320L319.58 116.05H332.03L332.45 120.87Z" fill="#0067B0"/>
<path d="M319.58 116.05L320.8 115.62H333.69L333.87 117.68L332.91 118.79L332.85 120.47L332.45 120.87L332.03 116.05H319.58Z" fill="#0067B0"/>
<path opacity="0.5" d="M319.58 116.05L320.8 115.62H333.69L333.87 117.68L332.91 118.79L332.85 120.47L332.45 120.87L332.03 116.05H319.58Z" fill="black"/>
<path d="M350.1 143.9L350.78 147.51C349.18 151.67 340 150.57 340 150.57L339.98 139.9L348.07 141.78C349.1 142.03 349.9 142.85 350.1 143.9Z" fill="#FFC3BD"/>
<path d="M339.98 139.9L340.03 150.59L331.9 150.79L330.04 141.39L339.98 139.9Z" fill="#FFC3BD"/>
<path d="M370.9 226.73L373.99 181.69C374.43 175.33 377.53 170.03 381.83 167.52C384.54 165.38 387.81 164.06 391.34 163.83C391.71 163.79 392.07 163.78 392.44 163.78C395.3 163.78 398.01 164.5 400.42 165.81C400.5 165.84 400.57 165.89 400.65 165.93C403.14 167.31 405.32 169.28 407.01 171.7L407.02 171.71C409.39 175.13 410.81 179.4 410.81 184.05C410.81 194.06 404.22 202.39 395.57 204.02L392.23 252.74C391.94 256.89 389.22 260.06 385.95 260.06H369.18L370.9 226.73Z" fill="#0067B0"/>
<path opacity="0.1" d="M370.9 226.73L373.99 181.69C374.43 175.33 377.53 170.03 381.83 167.52C384.54 165.38 387.81 164.06 391.34 163.83C391.71 163.79 392.07 163.78 392.44 163.78C395.3 163.78 398.01 164.5 400.42 165.81C400.5 165.84 400.57 165.89 400.65 165.93C403.14 167.31 405.32 169.28 407.01 171.7L407.02 171.71C409.39 175.13 410.81 179.4 410.81 184.05C410.81 194.06 404.22 202.39 395.57 204.02L392.23 252.74C391.94 256.89 389.22 260.06 385.95 260.06H369.18L370.9 226.73Z" fill="white"/>
<path d="M218.3 17.37V59.18C218.3 61.36 216.53 63.13 214.35 63.13H171.48L156.18 74.96C155.68 75.34 155.06 75.55 154.43 75.55C152.81 75.55 151.5 74.24 151.5 72.62V63.13H149.11C146.93 63.13 145.16 61.36 145.16 59.18V17.36C145.17 15.19 146.94 13.43 149.11 13.44H214.37C216.54 13.44 218.3 15.2 218.3 17.37Z" stroke="#0067B0" stroke-miterlimit="10"/>
<path d="M178.2 7.56006H170.03V8.56006H178.2V7.56006Z" fill="#0067B0"/>
<path d="M139.98 19.34H138.98V14.41C138.99 10.62 142.06 7.55005 145.85 7.55005H164.08V8.55005H145.85C142.61 8.55005 139.99 11.17 139.98 14.41V19.34Z" fill="#0067B0"/>
<path d="M197.77 44.07C195.93 44.07 194.45 42.52 194.61 40.69C194.61 40.68 194.61 40.66 194.61 40.65C195.68 28.46 205.34 27.34 206.55 13.47C206.9 9.49 205.44 7.97 202.65 7.97C199.86 7.97 198.13 9.48 197.79 13.47L197.59 15.76C197.4 17.89 195.62 19.53 193.48 19.53C191.06 19.53 189.16 17.45 189.37 15.04L189.46 14.03C190.23 5.1 195.06 0 203.59 0C212.12 0 216.05 5.1 215.27 14.03C214 28.54 203.45 30.77 202.55 40.97C202.55 41.02 202.54 41.07 202.54 41.12C202.41 42.78 201.05 44.08 199.38 44.08H197.77V44.07ZM202.1 52.55V52.58C201.91 54.75 200.09 56.42 197.91 56.42C195.44 56.42 193.5 54.3 193.72 51.85V51.82C193.91 49.65 195.73 47.98 197.91 47.98C200.37 47.98 202.31 50.09 202.1 52.55Z" fill="#0067B0"/>
<path d="M186.5 34.29H163.54C162.44 34.29 161.54 33.39 161.54 32.29C161.54 31.19 162.44 30.29 163.54 30.29H186.5C187.6 30.29 188.5 31.19 188.5 32.29C188.5 33.39 187.61 34.29 186.5 34.29Z" fill="#0067B0"/>
<path d="M183.32 42.2001H163.54C162.44 42.2001 161.54 41.3001 161.54 40.2001C161.54 39.1001 162.44 38.2001 163.54 38.2001H183.32C184.42 38.2001 185.32 39.1001 185.32 40.2001C185.32 41.3001 184.42 42.2001 183.32 42.2001Z" fill="#0067B0"/>
<path d="M180.14 50.11H163.54C162.44 50.11 161.54 49.21 161.54 48.11C161.54 47.01 162.44 46.11 163.54 46.11H180.14C181.24 46.11 182.14 47.01 182.14 48.11C182.14 49.22 181.24 50.11 180.14 50.11Z" fill="#0067B0"/>
<path d="M133.08 213.29H118.46C114.91 213.29 112.03 215.54 112.03 218.31V226.95C112.03 229.72 114.91 231.97 118.46 231.97H133.08V213.29Z" fill="#0067B0"/>
<path d="M65.1802 253.97L60.1002 173.11C58.2102 143.08 82.0602 117.68 112.16 117.68C139.82 117.68 162.68 139.28 164.23 166.9L169.56 261.34H73.0302C68.8802 261.35 65.4402 258.12 65.1802 253.97Z" fill="#0067B0"/>
<path opacity="0.1" d="M64.9902 251.04L60.1002 173.11C58.2102 143.08 82.0602 117.68 112.16 117.68C139.82 117.68 162.68 139.28 164.23 166.9L169.56 261.34H75.9702C70.1602 261.35 65.3602 256.84 64.9902 251.04Z" fill="black"/>
<path d="M80.8404 261.35L75.3004 173.12C73.4104 143.09 97.2604 117.69 127.36 117.69C155.02 117.69 177.88 139.29 179.43 166.91L184.76 261.35H80.8404Z" fill="#0067B0"/>
<path d="M79.18 276.54H77.85C77.17 276.54 76.54 275.97 76.43 275.18L74.46 261.35H82.57L80.6 275.18C80.49 275.96 79.86 276.54 79.18 276.54Z" fill="#0067B0"/>
<path opacity="0.7" d="M79.18 276.54H77.85C77.17 276.54 76.54 275.97 76.43 275.18L74.46 261.35H82.57L80.6 275.18C80.49 275.96 79.86 276.54 79.18 276.54Z" fill="white"/>
<path d="M209.83 276.54H208.62C208 276.54 207.43 275.97 207.33 275.18L205.55 261.35H212.9L211.12 275.18C211.02 275.96 210.45 276.54 209.83 276.54Z" fill="#0067B0"/>
<path opacity="0.5" d="M209.83 276.54H208.62C208 276.54 207.43 275.97 207.33 275.18L205.55 261.35H212.9L211.12 275.18C211.02 275.96 210.45 276.54 209.83 276.54Z" fill="white"/>
<path d="M172.22 276.54H171.01C170.39 276.54 169.82 275.97 169.72 275.18L167.94 261.35H175.29L173.51 275.18C173.4 275.96 172.83 276.54 172.22 276.54Z" fill="#0067B0"/>
<path opacity="0.7" d="M172.22 276.54H171.01C170.39 276.54 169.82 275.97 169.72 275.18L167.94 261.35H175.29L173.51 275.18C173.4 275.96 172.83 276.54 172.22 276.54Z" fill="white"/>
<path d="M119.68 276.54H118.35C117.67 276.54 117.04 275.97 116.93 275.18L114.96 261.35H123.07L121.1 275.18C120.99 275.96 120.36 276.54 119.68 276.54Z" fill="#0067B0"/>
<path opacity="0.5" d="M119.68 276.54H118.35C117.67 276.54 117.04 275.97 116.93 275.18L114.96 261.35H123.07L121.1 275.18C120.99 275.96 120.36 276.54 119.68 276.54Z" fill="white"/>
<path d="M163.71 228.03H199.27L201.63 193.75L202.13 186.39V186.38L202.36 182.99C202.43 182.08 202.54 181.2 202.71 180.34C202.75 180.15 202.8 179.95 202.84 179.75C202.86 179.6 202.9 179.46 202.95 179.32C203.96 175.72 205.86 172.55 208.37 170.12C211.37 167.21 215.22 165.37 219.47 165.11H186.03C185.66 165.09 185.3 165.08 184.93 165.08C180.29 165.08 176.05 166.99 172.81 170.12C170.3 172.55 168.41 175.72 167.39 179.32C167.34 179.46 167.3 179.6 167.28 179.75C167.05 180.79 166.88 181.87 166.81 182.99L166.58 186.38V186.39L163.71 228.03Z" fill="#0067B0"/>
<path opacity="0.1" d="M163.71 228.03H199.27L201.63 193.75L202.13 186.39V186.38L202.36 182.99C202.43 182.08 202.54 181.2 202.71 180.34C202.75 180.15 202.8 179.95 202.84 179.75C202.86 179.6 202.9 179.46 202.95 179.32C203.96 175.72 205.86 172.55 208.37 170.12C211.37 167.21 215.22 165.37 219.47 165.11H186.03C185.66 165.09 185.3 165.08 184.93 165.08C180.29 165.08 176.05 166.99 172.81 170.12C170.3 172.55 168.41 175.72 167.39 179.32C167.34 179.46 167.3 179.6 167.28 179.75C167.05 180.79 166.88 181.87 166.81 182.99L166.58 186.38V186.39L163.71 228.03Z" fill="black"/>
<g opacity="0.1">
<path d="M135.53 209.76H121.25C117.78 209.76 114.96 211.96 114.96 214.67V223.12C114.96 225.83 117.77 228.03 121.25 228.03H135.53V209.76Z" fill="black"/>
</g>
<path d="M193.84 228.03H130.95C127.95 228.03 125.53 225.6 125.53 222.61V215.19C125.53 212.19 127.96 209.77 130.95 209.77H193.84C196.84 209.77 199.26 212.2 199.26 215.19V222.61C199.26 225.6 196.83 228.03 193.84 228.03Z" fill="#0067B0"/>
<path d="M45.5 185.34C45.5 195.35 52.76 203.68 62.31 205.31L65.99 254.03C66.31 258.17 69.31 261.35 72.91 261.35H112.13C108.53 261.35 105.53 258.18 105.21 254.03L103.24 228.02L101.53 205.3C95.18 204.21 89.85 200.18 86.99 194.64C86.8 194.29 86.63 193.92 86.47 193.54C85.34 191.03 84.72 188.26 84.72 185.33C84.72 183.91 84.87 182.53 85.15 181.2C85.26 180.66 85.4 180.11 85.54 179.59C86.26 177.17 87.41 174.95 88.91 173L88.92 172.99C90.78 170.56 93.18 168.59 95.93 167.22C98.66 165.85 101.73 165.08 104.98 165.08H65.76C63.68 165.08 61.67 165.4 59.77 165.99C58.71 166.32 57.68 166.74 56.7 167.23C53.95 168.6 51.56 170.57 49.69 173L49.68 173.01C47.07 176.43 45.5 180.7 45.5 185.34Z" fill="#0067B0"/>
<path opacity="0.1" d="M45.5 185.34C45.5 195.35 52.76 203.68 62.31 205.31L65.99 254.03C66.31 258.17 69.31 261.35 72.91 261.35H112.13C108.53 261.35 105.53 258.18 105.21 254.03L103.24 228.02L101.53 205.3C95.18 204.21 89.85 200.18 86.99 194.64C86.8 194.29 86.63 193.92 86.47 193.54C85.34 191.03 84.72 188.26 84.72 185.33C84.72 183.91 84.87 182.53 85.15 181.2C85.26 180.66 85.4 180.11 85.54 179.59C86.26 177.17 87.41 174.95 88.91 173L88.92 172.99C90.78 170.56 93.18 168.59 95.93 167.22C98.66 165.85 101.73 165.08 104.98 165.08H65.76C63.68 165.08 61.67 165.4 59.77 165.99C58.71 166.32 57.68 166.74 56.7 167.23C53.95 168.6 51.56 170.57 49.69 173L49.68 173.01C47.07 176.43 45.5 180.7 45.5 185.34Z" fill="black"/>
<path d="M84.7202 185.34C84.7202 195.35 91.3102 203.68 99.9602 205.3L103.3 254.02C103.59 258.17 106.31 261.34 109.58 261.34H214.32C217.58 261.34 220.3 258.16 220.6 254.02L223.95 205.22C232.43 203.44 238.84 195.21 238.84 185.33C238.84 180.96 237.58 176.92 235.46 173.62C233.72 170.92 231.39 168.7 228.68 167.21C226.21 165.83 223.42 165.06 220.47 165.06C215.83 165.06 211.59 166.97 208.35 170.1C205.84 172.52 203.95 175.7 202.93 179.3C202.89 179.44 202.84 179.58 202.83 179.73C202.59 180.77 202.44 181.85 202.36 182.96L202.12 186.35V186.36L199.27 228H124.63L121.54 182.96C121.1 176.6 118 171.3 113.7 168.79C110.99 166.65 107.72 165.33 104.19 165.1C103.82 165.06 103.46 165.05 103.09 165.05C100.23 165.05 97.5202 165.77 95.1102 167.08C95.0302 167.11 94.9602 167.16 94.8802 167.2C92.3902 168.58 90.2102 170.55 88.5202 172.97L88.5102 172.98C86.1402 176.42 84.7202 180.69 84.7202 185.34Z" fill="#0067B0"/>
<path opacity="0.1" d="M126.35 261.35H214.31C217.57 261.35 220.29 258.17 220.59 254.03L223.94 205.23C232.42 203.45 238.83 195.22 238.83 185.34C238.83 180.97 237.57 176.93 235.45 173.63C233.71 170.93 231.38 168.71 228.67 167.22C226.2 165.84 223.41 165.07 220.46 165.07C215.82 165.07 211.58 166.98 208.34 170.11C205.83 172.53 203.94 175.71 202.92 179.31C202.88 179.45 202.83 179.59 202.82 179.74C202.58 180.78 202.43 181.86 202.35 182.97L202.11 186.36V186.37L199.26 228.01H124.62L126.35 261.35Z" fill="white"/>
<path d="M153.13 278.56L161.66 280.92L169.32 260.87L160.79 258.51L153.13 278.56Z" fill="#FFC3BD"/>
<path d="M165.481 278.26C164.821 277.38 163.831 276.81 162.751 276.6L153.961 274.89C153.551 274.79 153.141 275.03 153.011 275.43L150.291 283.44C149.971 284.35 150.451 285.36 151.361 285.68C151.381 285.69 151.401 285.69 151.421 285.7C154.661 286.98 156.851 286.54 161.921 287.52C165.041 288.13 171.601 290.2 175.981 290.03C180.361 289.85 180.351 285.52 178.511 285.2C171.971 284.17 166.971 280.24 165.481 278.26Z" fill="#263238"/>
<g opacity="0.2">
<path d="M169.32 260.88L165.37 271.22L156.84 268.85L160.78 258.51L169.32 260.88Z" fill="black"/>
</g>
<path d="M140.85 184.81C140.85 184.81 192.21 184.53 190.6 201.73C189.52 213.34 183.94 225.56 179.59 237.35C173.28 254.44 167.82 269.32 167.82 269.32L156.12 265.27C156.12 265.27 166.63 215.85 173.71 210.79H130.29C115.92 210.79 109.71 195.01 123.7 176.61C132.25 176.63 140.85 184.81 140.85 184.81Z" fill="#0067B0"/>
<path opacity="0.6" d="M140.85 184.81C140.85 184.81 192.21 184.53 190.6 201.73C191.4 212.41 167.82 269.33 167.82 269.33L156.12 265.28C156.12 265.28 166.63 215.86 173.71 210.8H130.29C115.92 210.8 109.71 195.02 123.7 176.62C132.25 176.63 140.85 184.81 140.85 184.81Z" fill="black"/>
<path d="M177.07 153.54C170.75 159.32 158.34 145.65 156.34 144.03C152.06 140.54 139.47 128.79 140.14 124.71C142.1 112.7 161.82 129.71 167.5 141.43L177.07 153.54Z" fill="#263238"/>
<path d="M121.76 117.43C118.59 118.1 115.16 116.96 112.94 119.31C110.71 121.66 109.78 124.96 109.45 128.19C109 132.67 109.57 137.18 110.15 141.65C110.85 147.06 111.54 152.48 112.24 157.89C112.72 161.59 112.49 167.61 111.73 171.26L111.72 171.29C111.53 172.22 112.07 173.24 112.95 173.62C112.95 173.62 137.54 174.47 144.69 174.2C148.49 174.06 145.88 164.06 147.05 158.23C147.31 156.94 149.85 151.59 150.23 150.22C152 143.77 150.83 139.33 149.19 132.85C148 128.14 147.51 121.35 145.11 120.83C140.83 119.9 130.58 115.56 121.76 117.43Z" fill="#0067B0"/>
<path opacity="0.8" d="M121.76 117.43C118.59 118.1 115.16 116.96 112.94 119.31C110.71 121.66 109.78 124.96 109.45 128.19C109 132.67 109.57 137.18 110.15 141.65C110.85 147.06 111.54 152.48 112.24 157.89C112.72 161.59 112.49 167.61 111.73 171.26L111.72 171.29C111.53 172.22 112.07 173.24 112.95 173.62C112.95 173.62 137.54 174.47 144.69 174.2C148.49 174.06 145.88 164.06 147.05 158.23C147.31 156.94 149.85 151.59 150.23 150.22C152 143.77 150.83 139.33 149.19 132.85C148 128.14 147.51 121.35 145.11 120.83C140.83 119.9 130.58 115.56 121.76 117.43Z" fill="white"/>
<path d="M118.25 122.05C117.92 121.55 109.28 114.27 107.7 122.68C105.51 134.39 110.04 145.91 110.04 145.91C110.04 145.91 111.08 158.58 114.76 159.85C118.44 161.11 121.94 161.43 123.18 159.26C124.42 157.09 124.42 153.85 124.42 153.85C124.42 153.85 123.98 130.8 118.25 122.05Z" fill="#263238"/>
<path d="M124.24 101.36C125.14 106.75 125.89 116.6 122.03 120.07C122.03 120.07 131.45 125 137.62 133.6C141.19 130.78 141.21 127.2 140.48 124.5C139.91 122.41 138.41 120.75 136.51 119.71C132.85 117.7 133.2 113.93 134.21 110.39L124.24 101.36Z" fill="#E8BFBF"/>
<path opacity="0.2" d="M125.47 110.51L128.98 111.86C130.48 112.44 132.09 112.7 133.7 112.62C133.61 113.4 133.3 115.03 133.7 115.95C131.53 116.74 128.09 115.7 126.72 113.71C126.15 112.94 125.73 111.44 125.47 110.51Z" fill="black"/>
<path d="M212.6 261.32H222.16L212.15 237.35L205.67 248.35L212.6 261.32Z" fill="#FFC3BD"/>
<path d="M221.37 259.05L210.16 256.5C209.76 256.39 209.35 256.61 209.22 257L206.09 265.62C205.82 266.53 206.35 267.49 207.26 267.75C207.28 267.76 207.3 267.76 207.31 267.76C211.24 268.58 213.17 268.78 218.1 269.9C221.14 270.59 228.82 272.61 233 273.56C237.19 274.51 238.29 270.41 236.62 269.63C229.14 266.17 225.09 262.86 222.92 260.04C222.55 259.55 222 259.19 221.37 259.05Z" fill="#263238"/>
<g opacity="0.2">
<path d="M212.15 237.36L216.41 247.56L207.81 252.36L205.67 248.36L212.15 237.36Z" fill="black"/>
</g>
<path d="M111.54 173.7L110.51 176.96C110.37 177.21 110.66 177.48 111.09 177.49L148.13 178.61C148.46 178.61 148.74 178.47 148.77 178.25L149.2 174.98C149.2 174.75 148.95 174.55 148.59 174.54L112.19 173.44C111.94 173.41 111.69 173.51 111.54 173.7Z" fill="#263238"/>
<path d="M157.82 200.45C145.65 205.64 132.44 210.82 125.27 210.82C110.89 210.82 98.1202 200.44 111.74 176.83C120.29 176.8 135.16 177.07 135.16 177.07C135.16 177.07 163.2 169.11 183.54 171.43C193.46 172.56 201.48 180.01 203.43 189.8C208.59 215.78 216.54 243.92 216.54 243.92L206.31 250.88C206.31 250.88 190.36 217.34 181.18 190.73C176.32 192.3 167.39 196.38 157.82 200.45Z" fill="#0067B0"/>
<path opacity="0.5" d="M203.43 189.82C201.48 180.03 193.46 172.58 183.54 171.45C163.2 169.13 135.16 177.09 135.16 177.09C135.16 177.09 120.29 176.82 111.74 176.85C97.9002 200.38 110.9 210.84 125.27 210.84C132.45 210.84 145.65 205.65 157.82 200.47C167.39 196.39 176.32 192.32 181.17 190.76C190.35 217.37 206.3 250.91 206.3 250.91L216.53 243.95C216.54 243.93 208.59 215.79 203.43 189.82Z" fill="black"/>
<path d="M190.61 201.74C190.31 204.95 189.79 208.28 189.11 211.69C189.06 211.58 189.02 211.48 188.98 211.38C188.96 211.35 188.96 211.33 188.94 211.3C188.89 211.19 188.86 211.08 188.81 210.98C186.08 204.22 183.43 197.29 181.18 190.76C181.2 190.76 181.22 190.78 181.25 190.78V190.77C187.11 193.25 191.08 196.76 190.61 201.74Z" fill="#0067B0"/>
<path opacity="0.6" d="M190.61 201.74C190.31 204.95 189.79 208.28 189.11 211.69C189.06 211.58 189.02 211.48 188.98 211.38C188.96 211.35 188.96 211.33 188.94 211.3C188.89 211.19 188.86 211.08 188.81 210.98C186.08 204.22 183.43 197.29 181.18 190.76C181.2 190.76 181.22 190.78 181.25 190.78V190.77C187.11 193.25 191.08 196.76 190.61 201.74Z" fill="black"/>
<path d="M117.68 96.18C120.68 104.63 121.77 108.27 127.39 111.44C135.86 116.22 145.56 110.66 145.14 101.48C144.76 93.22 139.91 80.78 130.51 79.78C123.79 79.03 117.74 83.87 116.99 90.58C116.79 92.48 117.02 94.4 117.68 96.18Z" fill="#E8BFBF"/>
<path d="M132.87 95.0801C133.08 95.8201 133.61 96.2501 134.07 96.1101C134.53 95.9701 134.71 95.3101 134.53 94.6001C134.35 93.8901 133.8 93.4401 133.33 93.5701C132.87 93.7001 132.67 94.3801 132.87 95.0801Z" fill="#263238"/>
<path d="M140.72 92.61C140.92 93.35 141.46 93.78 141.91 93.64C142.36 93.5 142.55 92.84 142.37 92.13C142.19 91.42 141.64 90.97 141.18 91.1C140.73 91.23 140.52 91.91 140.72 92.61Z" fill="#263238"/>
<path d="M140.98 91.2L142.52 90.23C142.52 90.23 142.05 91.79 140.98 91.2Z" fill="#263238"/>
<path d="M137.91 94.2C138.99 95.62 140.26 96.88 141.69 97.96C141.02 99.08 139.32 99.11 139.32 99.11L137.91 94.2Z" fill="#ED847E"/>
<path d="M112.16 101.81C112.63 103.38 113.4 104.89 113.55 106.52C113.84 109.74 111.22 112.95 108.01 113.32C110.77 114.14 114.02 112.67 115.23 110.06C114.47 112.07 112.9 113.76 110.95 114.68C113.73 114.73 116.5 113.4 118.2 111.19C117.73 112.41 117.25 113.62 116.78 114.84C119.14 113.42 121.12 111.35 122.43 108.92C122.97 107.93 123.37 106.62 122.67 105.74C122.04 104.94 120.85 104.92 119.83 104.9C118.81 104.88 117.59 104.64 117.21 103.69C116.85 102.78 117.52 101.79 118.26 101.14C119 100.49 119.89 99.89 120.16 98.95C120.35 98.28 120.19 97.57 120.02 96.89C119.57 95.05 119.12 93.2 118.67 91.36C118.51 90.72 118.35 90.05 117.98 89.5C115.97 86.51 113.75 90.9 113.01 92.39C111.58 95.28 111.23 98.71 112.16 101.81Z" fill="#263238"/>
<path d="M117.09 104.46C118.22 105.94 119.89 106.91 121.74 107.15C124.19 107.45 125.05 105.17 124.07 103.06C123.18 101.15 120.84 98.7 118.53 99.34C116.21 99.98 115.71 102.62 117.09 104.46Z" fill="#E8BFBF"/>
<path d="M133 89.0401C132.97 89.2301 132.82 89.3801 132.63 89.4101C130.6 89.7901 129.47 92.2101 129.46 92.2301C129.36 92.4501 129.09 92.55 128.87 92.45C128.65 92.35 128.55 92.0801 128.65 91.8601C128.74 91.7701 129.98 89.0001 132.46 88.5301C132.7 88.4901 132.93 88.6501 132.98 88.8901C133 88.9401 133.01 88.9901 133 89.0401Z" fill="#263238"/>
<path d="M138.34 87.04C138.18 87.02 138.04 87.06 137.96 87.14C137.85 87.26 137.49 87.47 137.69 87.57C138.91 88.2 140.6 89.21 141.9 89.01C142.12 88.97 142.64 88.78 142.53 88.62C142.42 88.47 142.15 88.38 141.93 88.42C140.9 88.57 139.52 87.6 138.56 87.1C138.49 87.07 138.41 87.05 138.34 87.04Z" fill="#263238"/>
<path d="M133.14 93.68L134.68 92.71C134.69 92.71 134.2 94.27 133.14 93.68Z" fill="#263238"/>
<path d="M133 76.0499C129.58 75.4299 129.15 75.1999 125.68 75.4199C122.21 75.6299 118.72 76.6299 115.99 78.7799C113.33 80.8799 111.55 83.9599 110.7 87.2399C109.85 90.5199 109.89 93.9799 110.44 97.3199C110.7 98.8799 111.14 100.55 112.38 101.53C112.56 99.7399 112.75 97.9299 113.3 96.2199C113.85 94.5099 114.8 92.8699 116.26 91.8099C116.84 91.3899 117.53 91.0299 117.86 90.3899C118.15 89.8399 118.12 89.1899 118.22 88.5699C118.46 87.1699 119.41 85.9799 120.55 85.1399C121.69 84.2999 123.02 83.7599 124.32 83.1999C128.53 81.3799 133.12 80.3499 137 77.9099C136.06 77.0999 133 76.0499 133 76.0499Z" fill="#263238"/>
<path d="M115.55 89.4399C116.46 90.5399 117.73 91.3399 119.12 91.6599C120.78 92.0399 124.93 91.9499 125.18 91.5099C125.48 90.9899 123.96 86.4199 122.28 86.1399C123.51 87.1699 124.79 88.2299 126.34 88.6599C127.89 89.0899 130.5 88.8799 131.54 88.6399C132.41 88.4399 130.45 84.7999 129.02 83.7599C133.33 84.6599 137.88 85.6899 141.06 88.7299C144.33 91.8699 145.53 96.6699 145.37 101.19C146.85 100.03 147.73 98.1499 147.68 96.2699C149.22 100.93 148.75 106.22 146.41 110.54C151 106.78 152.71 100.21 151.5 94.3999C150.29 88.5899 146.52 83.5599 141.89 79.8499C137.93 76.6799 133.13 74.3099 128.06 74.1899C121.37 74.0399 109.05 81.5999 115.55 89.4399Z" fill="#263238"/>
<path d="M120.94 116.17C120.98 115.84 121.02 115.41 121.06 114.94C121.24 112.75 119.74 110.78 117.59 110.39C117.57 110.39 117.55 110.38 117.54 110.38C116.91 110.26 116.39 109.82 116.18 109.22C115.4 106.98 115.11 106.3 114.36 104.1C112.34 103.61 109.96 104.36 107.86 104.58C107.28 107.08 107.24 109.7 107.75 112.22C107.86 112.78 108.01 113.36 108.39 113.79C108.77 114.22 112.85 117.1 114.63 117.63C116.47 118.17 119.01 116.35 120.94 116.17Z" fill="#E8BFBF"/>
<path d="M114.88 117.67C114.88 117.67 109.37 153.22 115.05 158.63C118.39 161.81 121.26 160.06 123.07 158.07C124.41 156.59 125.02 154.58 124.81 152.59L120.94 116.16C120.94 116.17 117.12 113.95 114.88 117.67Z" fill="#E8BFBF"/>
<path d="M174.08 149.75C176.29 148.05 178.25 144.52 178.74 142.28C178.9 141.56 178.96 140.48 178.94 139.17C178.89 132.73 177.07 120.92 177.07 120.92L171.84 119.19C171.84 119.19 170.21 128.17 169.85 133.11C169.78 134.08 169.67 135.22 169.55 136.43C169.32 138.63 169.03 141.05 168.78 143.06L174.08 149.75Z" fill="#E8BFBF"/>
<path d="M177.07 153.54C178.67 152.07 178.95 150.29 179.78 146.5C180.57 142.92 179.68 138.54 178.94 139.17C178.87 139.22 178.8 139.33 178.74 139.48C177.47 142.48 172.53 139.85 171.13 138.35C170.58 137.76 169.93 137.11 169.56 136.43C169.22 135.82 169.11 135.2 169.52 134.61C168 133.98 166.78 139.96 167.51 141.43L167.88 142.54C168.48 144.34 169.42 146.02 170.63 147.48L173.38 150.79L177.07 153.54Z" fill="#263238"/>
<path d="M171.7 119.96L171.07 110.83C171.07 110.83 172.14 111.42 176.12 112.77C178.67 113.64 182.09 112.11 181.33 113.76C180.09 116.45 177.07 120.92 177.07 120.92L171.7 119.96Z" fill="#E8BFBF"/>
<path d="M171.08 110.83L174.98 101.68L180.1 104.81C181.51 107.87 181.34 113.76 181.34 113.76C181.34 113.76 174.24 114.08 171.08 110.83Z" fill="#E8BFBF"/>
<path d="M137.31 103.78C137.44 104.43 137.91 104.89 138.33 104.8C138.76 104.71 138.98 104.11 138.84 103.45C138.7 102.8 138.24 102.35 137.82 102.44C137.4 102.54 137.17 103.16 137.31 103.78Z" fill="#263238"/>
<path d="M124.63 228.02L121.54 182.98C121.1 176.62 118 171.32 113.7 168.81C110.99 166.67 107.72 165.35 104.19 165.12C103.82 165.08 103.46 165.07 103.09 165.07C100.23 165.07 97.5202 165.79 95.1102 167.1C95.0302 167.13 94.9602 167.18 94.8802 167.22C92.3902 168.6 90.2102 170.57 88.5202 172.99L88.5102 173C86.1402 176.42 84.7202 180.69 84.7202 185.34C84.7202 195.35 91.3102 203.68 99.9602 205.3L103.3 254.02C103.59 258.17 106.31 261.34 109.58 261.34H126.35L124.63 228.02Z" fill="#0067B0"/>
<path opacity="0.1" d="M124.63 228.02L121.54 182.98C121.1 176.62 118 171.32 113.7 168.81C110.99 166.67 107.72 165.35 104.19 165.12C103.82 165.08 103.46 165.07 103.09 165.07C100.23 165.07 97.5202 165.79 95.1102 167.1C95.0302 167.13 94.9602 167.18 94.8802 167.22C92.3902 168.6 90.2102 170.57 88.5202 172.99L88.5102 173C86.1402 176.42 84.7202 180.69 84.7202 185.34C84.7202 195.35 91.3102 203.68 99.9602 205.3L103.3 254.02C103.59 258.17 106.31 261.34 109.58 261.34H126.35L124.63 228.02Z" fill="white"/>
<path d="M244.16 310.24C262.684 310.24 277.7 306.399 277.7 301.66C277.7 296.921 262.684 293.08 244.16 293.08C225.636 293.08 210.62 296.921 210.62 301.66C210.62 306.399 225.636 310.24 244.16 310.24Z" fill="#263238"/>
<path opacity="0.3" d="M244.16 307.38C262.684 307.38 277.7 304.179 277.7 300.23C277.7 296.281 262.684 293.08 244.16 293.08C225.636 293.08 210.62 296.281 210.62 300.23C210.62 304.179 225.636 307.38 244.16 307.38Z" fill="white"/>
<path d="M246.93 300.23H241.39L234.99 231.2H253.33L246.93 300.23Z" fill="#263238"/>
<path d="M253.33 231.2C253.33 233.21 249.22 234.84 244.16 234.84C239.09 234.84 234.99 233.21 234.99 231.2C234.99 229.19 239.1 227.56 244.16 227.56C249.23 227.56 253.33 229.19 253.33 231.2Z" fill="#263238"/>
<path opacity="0.7" d="M253.33 231.2C253.33 233.21 249.22 234.84 244.16 234.84C239.09 234.84 234.99 233.21 234.99 231.2C234.99 229.19 239.1 227.56 244.16 227.56C249.23 227.56 253.33 229.19 253.33 231.2Z" fill="white"/>
<path opacity="0.7" d="M132.04 232.28C132.04 231.55 132.4 230.83 133.11 230.12C140.86 237.92 190.03 243.93 249.53 243.93C309.03 243.93 358.2 237.92 365.96 230.12C366.67 230.83 367.03 231.55 367.03 232.28C367.03 241.09 314.42 248.24 249.53 248.24C184.64 248.24 132.04 241.09 132.04 232.28Z" fill="white"/>
<path opacity="0.7" d="M133.11 234.27C140.86 226.47 190.03 220.47 249.53 220.47C309.03 220.47 358.2 226.47 365.96 234.27C358.2 242.07 309.03 248.08 249.53 248.08C190.03 248.08 140.86 242.07 133.11 234.27Z" fill="white"/>
<path opacity="0.7" d="M132.04 231.97C132.04 223.15 184.64 216.01 249.53 216.01C314.42 216.01 367.03 223.15 367.03 231.97C367.03 232.7 366.67 233.42 365.96 234.12C358.2 226.32 309.03 220.32 249.53 220.32C190.03 220.32 140.86 226.32 133.11 234.12C132.4 233.42 132.04 232.7 132.04 231.97Z" fill="white"/>
<path d="M294.85 224.2L245.69 223.27C245.18 223.26 244.78 222.76 244.79 222.15C244.8 221.55 245.23 221.06 245.74 221.07L294.9 222C295.41 222.01 295.81 222.51 295.8 223.12C295.78 223.72 295.36 224.21 294.85 224.2Z" fill="#263238"/>
<path opacity="0.2" d="M294.85 224.2L245.69 223.27C245.18 223.26 244.78 222.76 244.79 222.15C244.8 221.55 245.23 221.06 245.74 221.07L294.9 222C295.41 222.01 295.81 222.51 295.8 223.12C295.78 223.72 295.36 224.21 294.85 224.2Z" fill="white"/>
<path d="M318.72 220.61L295.22 224.16C294.71 224.24 294.25 223.81 294.2 223.21C294.14 222.61 294.51 222.06 295.01 221.98L318.51 218.43C319.01 218.35 319.48 218.78 319.53 219.38C319.6 219.98 319.23 220.54 318.72 220.61Z" fill="#263238"/>
<path d="M318.51 218.43H268.83L245.74 221.07L293.56 221.98L318.51 218.43Z" fill="#263238"/>
<path opacity="0.6" d="M318.51 218.43H268.83L245.74 221.07L293.56 221.98L318.51 218.43Z" fill="white"/>
<path opacity="0.5" d="M318.72 220.61L295.22 224.16C294.71 224.24 294.25 223.81 294.2 223.21C294.14 222.61 294.51 222.06 295.01 221.98L318.51 218.43C319.01 218.35 319.48 218.78 319.53 219.38C319.6 219.98 319.23 220.54 318.72 220.61Z" fill="white"/>
<path d="M293.56 221.98L247.72 221.12C246.1 221.09 244.7 219.49 244.6 217.56L243.22 189.89C243.12 187.96 244.37 186.41 245.99 186.44L291.83 187.3C293.45 187.33 294.85 188.93 294.95 190.86L296.33 218.53C296.42 220.45 295.18 222.01 293.56 221.98Z" fill="#0067B0"/>
<path opacity="0.2" d="M293.56 221.98L247.72 221.12C246.1 221.09 244.7 219.49 244.6 217.56L243.22 189.89C243.12 187.96 244.37 186.41 245.99 186.44L291.83 187.3C293.45 187.33 294.85 188.93 294.95 190.86L296.33 218.53C296.42 220.45 295.18 222.01 293.56 221.98Z" fill="white"/>
<path d="M292.22 221.83L246.38 220.97C244.76 220.94 243.36 219.34 243.26 217.41L241.88 189.74C241.78 187.81 243.03 186.26 244.65 186.29L290.49 187.15C292.11 187.18 293.51 188.78 293.61 190.71L294.99 218.38C295.08 220.31 293.83 221.86 292.22 221.83Z" fill="#0067B0"/>
<path opacity="0.6" d="M292.22 221.83L246.38 220.97C244.76 220.94 243.36 219.34 243.26 217.41L241.88 189.74C241.78 187.81 243.03 186.26 244.65 186.29L290.49 187.15C292.11 187.18 293.51 188.78 293.61 190.71L294.99 218.38C295.08 220.31 293.83 221.86 292.22 221.83Z" fill="white"/>
<path d="M262.36 203.6C262.59 206.29 264.96 208.46 267.65 208.46C270.34 208.46 272.32 206.28 272.09 203.6C271.86 200.91 269.49 198.74 266.8 198.74C264.11 198.73 262.12 200.91 262.36 203.6Z" fill="white"/>
</svg>
