<svg width="25" height="24" viewBox="0 0 25 24" fill="none" xmlns="http://www.w3.org/2000/svg">
<path fill-rule="evenodd" clip-rule="evenodd" d="M0.666816 0.0508485C0.453265 0.112392 0.114799 0.461545 0.0530211 0.684142C-0.0217873 0.953518 -0.0156001 5.05908 0.0600051 5.31209C0.134392 5.56113 0.438406 5.86514 0.68744 5.93953C0.96155 6.02146 5.04283 6.02146 5.31694 5.93953C5.56597 5.86514 5.86999 5.56113 5.94437 5.31209C6.02631 5.03798 6.02631 0.956706 5.94437 0.682595C5.86999 0.433562 5.56597 0.129547 5.31694 0.0551608C5.07986 -0.0156635 0.911162 -0.0195539 0.666816 0.0508485ZM9.66633 0.0508485C9.45278 0.112392 9.11431 0.461545 9.05253 0.684142C8.97772 0.953518 8.98391 5.05908 9.05952 5.31209C9.1339 5.56113 9.43792 5.86514 9.68695 5.93953C9.96106 6.02146 14.0423 6.02146 14.3164 5.93953C14.5655 5.86514 14.8695 5.56113 14.9439 5.31209C15.0258 5.03798 15.0258 0.956706 14.9439 0.682595C14.8695 0.433562 14.5655 0.129547 14.3164 0.0551608C14.0794 -0.0156635 9.91067 -0.0195539 9.66633 0.0508485ZM18.6658 0.0508485C18.4523 0.112392 18.1138 0.461545 18.052 0.684142C17.9772 0.953518 17.9834 5.05908 18.059 5.31209C18.1334 5.56113 18.4374 5.86514 18.6865 5.93953C18.9606 6.02146 23.0418 6.02146 23.316 5.93953C23.565 5.86514 23.869 5.56113 23.9434 5.31209C24.0253 5.03798 24.0253 0.956706 23.9434 0.682595C23.869 0.433562 23.565 0.129547 23.316 0.0551608C23.0789 -0.0156635 18.9102 -0.0195539 18.6658 0.0508485ZM0.666816 9.05036C0.453265 9.1119 0.114799 9.46106 0.0530211 9.68365C-0.0217873 9.95303 -0.0156001 14.0586 0.0600051 14.3116C0.134392 14.5606 0.438406 14.8647 0.68744 14.939C0.96155 15.021 5.04283 15.021 5.31694 14.939C5.56597 14.8647 5.86999 14.5606 5.94437 14.3116C6.02631 14.0375 6.02631 9.95622 5.94437 9.68211C5.86999 9.43307 5.56597 9.12906 5.31694 9.05467C5.07986 8.98385 0.911162 8.97996 0.666816 9.05036ZM9.66633 9.05036C9.45278 9.1119 9.11431 9.46106 9.05253 9.68365C8.97772 9.95303 8.98391 14.0586 9.05952 14.3116C9.1339 14.5606 9.43792 14.8647 9.68695 14.939C9.96106 15.021 14.0423 15.021 14.3164 14.939C14.5655 14.8647 14.8695 14.5606 14.9439 14.3116C15.0258 14.0375 15.0258 9.95622 14.9439 9.68211C14.8695 9.43307 14.5655 9.12906 14.3164 9.05467C14.0794 8.98385 9.91067 8.97996 9.66633 9.05036ZM18.6658 9.05036C18.4523 9.1119 18.1138 9.46106 18.052 9.68365C17.9772 9.95303 17.9834 14.0586 18.059 14.3116C18.1334 14.5606 18.4374 14.8647 18.6865 14.939C18.9606 15.021 23.0418 15.021 23.316 14.939C23.565 14.8647 23.869 14.5606 23.9434 14.3116C24.0253 14.0375 24.0253 9.95622 23.9434 9.68211C23.869 9.43307 23.565 9.12906 23.316 9.05467C23.0789 8.98385 18.9102 8.97996 18.6658 9.05036ZM0.666816 18.0499C0.453265 18.1114 0.114799 18.4606 0.0530211 18.6832C-0.0217873 18.9525 -0.0156001 23.0581 0.0600051 23.3111C0.134392 23.5602 0.438406 23.8642 0.68744 23.9385C0.96155 24.0205 5.04283 24.0205 5.31694 23.9385C5.56597 23.8642 5.86999 23.5602 5.94437 23.3111C6.02631 23.037 6.02631 18.9557 5.94437 18.6816C5.86999 18.4326 5.56597 18.1286 5.31694 18.0542C5.07986 17.9834 0.911162 17.9795 0.666816 18.0499ZM9.66633 18.0499C9.45278 18.1114 9.11431 18.4606 9.05253 18.6832C8.97772 18.9525 8.98391 23.0581 9.05952 23.3111C9.1339 23.5602 9.43792 23.8642 9.68695 23.9385C9.96106 24.0205 14.0423 24.0205 14.3164 23.9385C14.5655 23.8642 14.8695 23.5602 14.9439 23.3111C15.0258 23.037 15.0258 18.9557 14.9439 18.6816C14.8695 18.4326 14.5655 18.1286 14.3164 18.0542C14.0794 17.9834 9.91067 17.9795 9.66633 18.0499ZM18.6658 18.0499C18.4523 18.1114 18.1138 18.4606 18.052 18.6832C17.9772 18.9525 17.9834 23.0581 18.059 23.3111C18.1334 23.5602 18.4374 23.8642 18.6865 23.9385C18.9606 24.0205 23.0418 24.0205 23.316 23.9385C23.565 23.8642 23.869 23.5602 23.9434 23.3111C24.0253 23.037 24.0253 18.9557 23.9434 18.6816C23.869 18.4326 23.565 18.1286 23.316 18.0542C23.0789 17.9834 18.9102 17.9795 18.6658 18.0499Z" fill="#505050"/>
</svg>
