<svg width="25" height="25" viewBox="0 0 25 25" fill="none" xmlns="http://www.w3.org/2000/svg">
<circle cx="12.2587" cy="12.9355" r="12" fill="#14B4FF"/>
<path d="M18.4656 8.7502C18.0039 8.9527 17.512 9.08693 16.9992 9.1521C17.5268 8.8371 17.9294 8.3421 18.1187 7.74546C17.6268 8.03874 17.0837 8.24589 16.5049 8.3615C16.0379 7.86417 15.3722 7.55615 14.646 7.55615C13.237 7.55615 12.1027 8.69977 12.1027 10.1018C12.1027 10.3035 12.1198 10.4974 12.1617 10.6821C10.0459 10.5789 8.17374 9.56486 6.91607 8.02012C6.6965 8.40107 6.56771 8.8371 6.56771 9.3065C6.56771 10.1879 7.02159 10.9692 7.69814 11.4215C7.28926 11.4137 6.88814 11.295 6.54831 11.108C6.54831 11.1158 6.54831 11.1259 6.54831 11.136C6.54831 12.3727 7.43046 13.3999 8.58727 13.6366C8.38012 13.6932 8.15434 13.7204 7.92003 13.7204C7.7571 13.7204 7.59262 13.7111 7.43822 13.6769C7.76796 14.6848 8.70365 15.4257 9.81624 15.4498C8.95038 16.1271 7.85098 16.5352 6.66081 16.5352C6.4521 16.5352 6.25193 16.5259 6.05176 16.5003C7.17909 17.2273 8.51512 17.6424 9.9559 17.6424C14.639 17.6424 17.1993 13.763 17.1993 10.4005C17.1993 10.288 17.1955 10.1793 17.19 10.0715C17.6951 9.71305 18.1195 9.26538 18.4656 8.7502Z" fill="white"/>
</svg>
